<?xml version="1.0" encoding="UTF-8" standalone="no"?>
<!DOCTYPE svg PUBLIC "-//W3C//DTD SVG 1.1//EN" "http://www.w3.org/Graphics/SVG/1.1/DTD/svg11.dtd">
<svg version="1.1" xmlns="http://www.w3.org/2000/svg" xmlns:xlink="http://www.w3.org/1999/xlink" preserveAspectRatio="xMidYMid meet" viewBox="0 0 300 150" width="300" height="150"><defs><path d="M34.24 63.63C33.78 63.55 33.26 63.52 32.69 63.54C32.6 63.54 32.5 63.54 32.39 63.55C32.19 63.56 32 63.58 31.81 63.6C30.72 63.7 29.68 63.89 28.69 64.17C27.51 64.5 26.17 64.39 24.66 63.87C24.28 63.73 23.95 63.53 23.67 63.27C23.67 63.66 23.65 66.77 23.65 67.16C23.94 67.43 24.27 67.64 24.66 67.79C26.17 68.31 27.51 68.41 28.69 68.09C29.86 67.75 31.09 67.55 32.39 67.47C32.5 67.46 32.59 67.46 32.69 67.46C33.26 67.43 33.78 67.47 34.24 67.55C34.63 67.7 35.03 67.82 35.46 67.91C35.84 68.01 36.24 68.08 36.62 68.12C36.62 67.73 36.62 64.59 36.62 64.2C36.24 64.16 35.85 64.09 35.46 64C35.03 63.9 34.63 63.78 34.24 63.63Z" id="f2KpfkQK3G"></path><path d="M36.53 60.27C36.22 59.84 35.78 59.52 35.19 59.29C33.53 58.62 32.49 58.58 32.06 59.16C32.02 59.23 31.97 59.31 31.93 59.38C31.77 59.69 31.67 60 31.63 60.33C31.61 60.54 31.61 60.74 31.62 60.93C31.62 61.01 31.63 61.09 31.65 61.17C31.66 61.25 31.62 61.48 31.52 61.86C31.43 62.23 30.93 62.66 30.02 63.16C29.11 63.63 28.1 63.87 26.98 63.87C25.87 63.85 25.17 63.65 24.9 63.28C24.62 62.9 24.42 62.75 24.31 62.81C24.19 62.85 24.02 62.94 23.82 63.08C23.81 63.09 23.76 63.13 23.67 63.2C23.64 63.21 23.62 63.22 23.62 63.22C23.63 63.23 23.65 63.25 23.67 63.27C23.95 63.53 24.28 63.73 24.66 63.87C26.17 64.39 27.51 64.49 28.69 64.17C29.68 63.88 30.72 63.69 31.8 63.6C31.99 63.58 32.19 63.56 32.39 63.55C32.5 63.54 32.59 63.54 32.69 63.54C33.26 63.51 33.78 63.55 34.24 63.63C34.63 63.78 35.03 63.9 35.46 63.99C35.84 64.09 36.24 64.16 36.62 64.2C36.63 64.2 36.64 64.2 36.64 64.2C36.65 64.17 36.66 64.14 36.67 64.12C37.09 62.85 37.17 61.8 36.91 60.99C36.82 60.72 36.7 60.48 36.53 60.27Z" id="c4SMScyftQ"></path><path d="M73.61 70.17L73.61 70.24L73.61 70.3L73.62 70.37L73.62 70.44L73.62 70.5L73.62 70.72L73.61 70.93L73.6 71.14L73.58 71.35L73.55 71.57L73.52 71.78L73.18 73.37L72.58 74.91L71.73 76.39L70.62 77.83L69.26 79.22L67.65 80.55L67.63 80.57L67.6 80.59L67.57 80.61L67.54 80.63L67.51 80.65L67.48 80.66L67.46 80.68L67.38 80.72L67.3 80.75L67.21 80.78L67.13 80.8L67.03 80.81L66.93 80.82L66.83 80.82L66.73 80.82L66.63 80.8L66.55 80.78L66.47 80.75L66.4 80.71L66.34 80.67L66.29 80.63L66.26 80.59L66.23 80.54L66.22 80.48L66.22 80.43L66.22 76.56L66.23 76.6L66.24 76.65L66.27 76.69L66.3 76.73L66.34 76.76L66.4 76.79L66.47 76.83L66.55 76.86L66.63 76.88L66.73 76.9L66.83 76.91L66.93 76.9L67.03 76.9L67.13 76.88L67.21 76.86L67.3 76.83L67.38 76.8L67.46 76.76L67.48 76.75L67.51 76.73L67.54 76.71L67.57 76.69L67.6 76.67L67.63 76.65L67.65 76.63L67.89 76.45L68.12 76.27L68.35 76.08L68.58 75.9L68.8 75.71L69.02 75.53L70.14 74.45L71.1 73.34L71.91 72.2L72.56 71.03L73.06 69.84L73.4 68.61L73.42 68.49L73.45 68.36L73.47 68.24L73.49 68.12L73.51 67.99L73.52 67.87L73.54 67.72L73.56 67.57L73.58 67.43L73.59 67.28L73.6 67.14L73.6 67L73.6 70.11L73.61 70.17Z" id="b3vUfQ1D9j"></path><path d="M68.77 72.86C68.4 74.08 67.64 75.19 66.49 76.19C66.49 76.19 66.48 76.19 66.47 76.19C66.41 76.25 66.35 76.3 66.28 76.37C66.25 76.41 66.23 76.45 66.22 76.49C66.22 76.51 66.22 76.53 66.22 76.54C66.22 76.54 66.22 76.56 66.22 76.56C66.22 76.65 66.28 76.73 66.39 76.79C66.53 76.88 66.71 76.91 66.93 76.9C67.13 76.89 67.31 76.85 67.45 76.76C67.51 76.73 67.57 76.69 67.63 76.65C67.63 76.65 67.64 76.64 67.64 76.63C68.13 76.27 68.59 75.9 69.02 75.53C71.41 73.4 72.87 71.09 73.4 68.61C73.45 68.37 73.49 68.12 73.52 67.87C73.56 67.57 73.59 67.28 73.6 67C73.61 66.81 73.62 66.62 73.62 66.44C73.55 62.97 71.44 60.04 67.27 57.66C62.53 54.96 56.55 53.76 49.3 54.06C44.87 54.24 40.76 54.95 36.97 56.19C36.19 56.44 35.42 56.72 34.67 57.03C34.5 57.11 34.34 57.2 34.19 57.28C33.19 57.84 32.48 58.46 32.06 59.16C32.49 58.58 33.53 58.62 35.19 59.29C35.78 59.52 36.23 59.84 36.53 60.27C36.7 60.48 36.83 60.72 36.91 60.99C37.17 61.8 37.09 62.85 36.67 64.12C36.66 64.14 36.65 64.17 36.64 64.2C37.18 64.25 37.76 64.27 38.38 64.26C39.74 64.22 41 63.99 42.17 63.57C42.39 63.47 42.61 63.39 42.82 63.32C45.7 62.19 48.88 61.56 52.35 61.42C57.16 61.22 61.15 62.03 64.32 63.84C66.38 65.01 67.76 66.43 68.48 68.12C68.86 69.02 69.05 70.01 69.04 71.09C69.02 71.7 68.94 72.29 68.77 72.86Z" id="bdoVlcqii"></path><path d="M227.09 36.76C226.63 36.67 226.11 36.64 225.54 36.66C225.45 36.66 225.35 36.67 225.24 36.68C225.04 36.69 224.85 36.71 224.66 36.73C223.57 36.82 222.53 37.01 221.54 37.29C220.36 37.62 219.02 37.52 217.51 36.99C217.13 36.86 216.8 36.66 216.52 36.39C216.52 36.78 216.5 39.89 216.5 40.28C216.79 40.55 217.12 40.77 217.51 40.91C219.02 41.44 220.36 41.54 221.54 41.21C222.71 40.88 223.95 40.67 225.24 40.6C225.35 40.59 225.45 40.58 225.54 40.58C226.11 40.56 226.63 40.59 227.09 40.68C227.48 40.82 227.89 40.94 228.31 41.04C228.7 41.13 229.09 41.2 229.48 41.24C229.48 40.85 229.48 37.72 229.48 37.33C229.09 37.28 228.7 37.21 228.31 37.12C227.89 37.03 227.48 36.91 227.09 36.76Z" id="dypxfzoCl"></path><path d="M229.38 33.39C229.08 32.97 228.63 32.64 228.04 32.41C226.39 31.75 225.34 31.71 224.91 32.29C224.87 32.36 224.82 32.43 224.78 32.51C224.63 32.81 224.52 33.13 224.48 33.45C224.46 33.67 224.46 33.87 224.47 34.05C224.47 34.14 224.48 34.22 224.5 34.29C224.51 34.38 224.47 34.61 224.37 34.99C224.28 35.36 223.78 35.79 222.87 36.28C221.96 36.76 220.95 36.99 219.84 36.99C218.72 36.97 218.02 36.78 217.75 36.41C217.47 36.03 217.27 35.87 217.16 35.93C217.04 35.98 216.88 36.07 216.67 36.2C216.66 36.21 216.61 36.25 216.52 36.33C216.49 36.34 216.47 36.34 216.47 36.35C216.48 36.36 216.5 36.37 216.52 36.39C216.8 36.66 217.13 36.86 217.51 36.99C219.02 37.52 220.36 37.62 221.54 37.29C222.53 37.01 223.57 36.82 224.66 36.72C224.85 36.7 225.04 36.69 225.24 36.68C225.35 36.67 225.45 36.66 225.54 36.66C226.11 36.64 226.63 36.67 227.09 36.76C227.48 36.9 227.89 37.02 228.31 37.12C228.7 37.21 229.09 37.28 229.48 37.32C229.48 37.32 229.49 37.32 229.49 37.32C229.5 37.29 229.51 37.27 229.52 37.25C229.95 35.97 230.02 34.93 229.76 34.12C229.68 33.84 229.55 33.6 229.38 33.39Z" id="a6LA8nF99u"></path><path d="M266.46 43.3L266.46 43.36L266.47 43.43L266.47 43.49L266.47 43.56L266.47 43.63L266.47 43.84L266.46 44.05L266.45 44.27L266.43 44.48L266.4 44.69L266.37 44.91L266.03 46.5L265.43 48.03L264.58 49.52L263.47 50.96L262.11 52.34L260.5 53.68L260.48 53.7L260.45 53.72L260.42 53.74L260.39 53.75L260.36 53.77L260.33 53.79L260.31 53.81L260.23 53.84L260.15 53.88L260.07 53.9L259.98 53.93L259.88 53.94L259.78 53.95L259.68 53.95L259.58 53.94L259.48 53.93L259.4 53.91L259.32 53.88L259.25 53.84L259.19 53.8L259.14 53.76L259.11 53.71L259.09 53.66L259.07 53.61L259.07 53.55L259.07 49.68L259.08 49.73L259.09 49.77L259.12 49.81L259.15 49.85L259.19 49.89L259.25 49.92L259.32 49.96L259.4 49.99L259.48 50.01L259.58 50.02L259.68 50.03L259.78 50.03L259.88 50.02L259.98 50.01L260.07 49.99L260.15 49.96L260.23 49.93L260.31 49.89L260.33 49.87L260.36 49.85L260.39 49.84L260.42 49.82L260.45 49.8L260.48 49.78L260.5 49.76L260.74 49.58L260.97 49.39L261.2 49.21L261.43 49.02L261.65 48.84L261.87 48.65L262.99 47.58L263.95 46.47L264.76 45.33L265.41 44.16L265.91 42.96L266.25 41.73L266.27 41.61L266.3 41.49L266.32 41.37L266.34 41.24L266.36 41.12L266.37 40.99L266.39 40.84L266.41 40.7L266.43 40.55L266.44 40.41L266.45 40.26L266.45 40.12L266.45 43.24L266.46 43.3Z" id="dmNiYOAZV"></path><path d="M261.62 45.99C261.25 47.21 260.49 48.32 259.34 49.32C259.34 49.32 259.33 49.32 259.33 49.32C259.26 49.37 259.2 49.43 259.14 49.49C259.1 49.53 259.08 49.58 259.07 49.62C259.07 49.64 259.07 49.66 259.07 49.67C259.07 49.67 259.07 49.68 259.07 49.68C259.07 49.78 259.13 49.86 259.25 49.92C259.38 50 259.56 50.04 259.78 50.03C259.98 50.02 260.16 49.97 260.3 49.89C260.36 49.86 260.42 49.82 260.48 49.78C260.48 49.77 260.49 49.76 260.49 49.76C260.98 49.39 261.44 49.02 261.87 48.65C264.26 46.53 265.72 44.22 266.25 41.73C266.3 41.49 266.34 41.24 266.37 40.99C266.42 40.7 266.44 40.41 266.45 40.12C266.46 39.93 266.47 39.75 266.47 39.57C266.4 36.09 264.29 33.17 260.12 30.79C255.39 28.09 249.4 26.89 242.15 27.18C237.72 27.36 233.61 28.07 229.82 29.32C229.04 29.57 228.27 29.85 227.52 30.15C227.35 30.24 227.19 30.32 227.04 30.41C226.04 30.96 225.33 31.59 224.91 32.29C225.34 31.71 226.38 31.75 228.04 32.41C228.63 32.64 229.08 32.97 229.38 33.39C229.55 33.6 229.68 33.85 229.76 34.12C230.02 34.93 229.94 35.97 229.52 37.25C229.51 37.27 229.5 37.29 229.49 37.33C230.03 37.38 230.61 37.4 231.23 37.39C232.59 37.35 233.85 37.12 235.02 36.69C235.24 36.6 235.46 36.52 235.67 36.44C238.56 35.32 241.73 34.68 245.2 34.55C250.01 34.35 254 35.15 257.18 36.96C259.23 38.13 260.62 39.56 261.33 41.24C261.71 42.15 261.9 43.14 261.89 44.22C261.88 44.83 261.79 45.42 261.62 45.99Z" id="a1P6M0y5NF"></path><path d="M230.15 116.96C229.68 116.87 229.17 116.84 228.6 116.86C228.5 116.86 228.4 116.87 228.3 116.88C228.1 116.89 227.9 116.9 227.71 116.92C226.63 117.02 225.59 117.21 224.6 117.49C223.42 117.82 222.07 117.72 220.57 117.19C220.19 117.06 219.86 116.86 219.57 116.59C219.57 116.98 219.56 120.09 219.56 120.48C219.84 120.75 220.18 120.96 220.57 121.11C222.07 121.64 223.42 121.74 224.6 121.41C225.77 121.07 227 120.87 228.3 120.8C228.4 120.78 228.5 120.78 228.6 120.78C229.16 120.76 229.68 120.79 230.14 120.87C230.53 121.02 230.94 121.14 231.36 121.24C231.75 121.33 232.14 121.4 232.53 121.44C232.53 121.05 232.53 117.92 232.53 117.52C232.14 117.48 231.75 117.41 231.36 117.32C230.94 117.22 230.53 117.1 230.15 116.96Z" id="c3CLuh8MQ5"></path><path d="M232.44 113.59C232.13 113.17 231.68 112.84 231.09 112.61C229.44 111.95 228.4 111.9 227.96 112.48C227.92 112.56 227.88 112.63 227.84 112.7C227.68 113.01 227.58 113.33 227.54 113.65C227.52 113.86 227.51 114.06 227.52 114.25C227.52 114.34 227.53 114.42 227.55 114.49C227.56 114.57 227.52 114.81 227.43 115.18C227.33 115.55 226.83 115.99 225.92 116.48C225.02 116.95 224.01 117.19 222.89 117.19C221.77 117.17 221.08 116.98 220.8 116.61C220.52 116.23 220.33 116.07 220.22 116.13C220.09 116.17 219.93 116.26 219.73 116.4C219.72 116.41 219.67 116.45 219.57 116.53C219.54 116.54 219.53 116.54 219.52 116.54C219.53 116.55 219.55 116.57 219.57 116.59C219.86 116.85 220.19 117.05 220.57 117.19C222.07 117.72 223.42 117.82 224.6 117.49C225.59 117.21 226.62 117.02 227.71 116.92C227.9 116.9 228.09 116.89 228.3 116.88C228.4 116.86 228.5 116.86 228.6 116.86C229.16 116.84 229.68 116.87 230.14 116.95C230.53 117.1 230.94 117.22 231.36 117.32C231.75 117.41 232.14 117.48 232.53 117.52C232.53 117.52 232.54 117.52 232.55 117.52C232.56 117.49 232.57 117.46 232.58 117.44C233 116.17 233.08 115.13 232.81 114.32C232.73 114.04 232.6 113.8 232.44 113.59Z" id="e1AaasTCr8"></path><path d="M269.51 123.5L269.52 123.56L269.52 123.63L269.52 123.69L269.52 123.76L269.52 123.83L269.52 124.04L269.51 124.25L269.5 124.46L269.48 124.68L269.46 124.89L269.43 125.11L269.09 126.69L268.49 128.23L267.64 129.72L266.53 131.15L265.17 132.54L263.55 133.88L263.53 133.89L263.5 133.91L263.47 133.93L263.44 133.95L263.42 133.97L263.39 133.99L263.36 134L263.28 134.04L263.2 134.08L263.12 134.1L263.03 134.12L262.94 134.14L262.84 134.15L262.73 134.15L262.63 134.14L262.54 134.13L262.45 134.1L262.37 134.07L262.3 134.03L262.24 134L262.2 133.95L262.16 133.91L262.14 133.86L262.13 133.81L262.13 133.75L262.13 129.88L262.13 129.93L262.15 129.97L262.17 130.01L262.21 130.05L262.25 130.09L262.3 130.12L262.37 130.16L262.45 130.19L262.54 130.21L262.63 130.22L262.73 130.23L262.84 130.23L262.94 130.22L263.03 130.21L263.12 130.18L263.2 130.16L263.28 130.12L263.36 130.09L263.39 130.07L263.41 130.05L263.44 130.03L263.47 130.01L263.5 129.99L263.53 129.97L263.55 129.96L263.79 129.77L264.03 129.59L264.26 129.4L264.49 129.22L264.71 129.04L264.93 128.85L266.04 127.77L267.01 126.66L267.81 125.53L268.47 124.36L268.96 123.16L269.3 121.93L269.33 121.81L269.35 121.69L269.37 121.56L269.39 121.44L269.41 121.31L269.43 121.19L269.45 121.04L269.47 120.9L269.48 120.75L269.49 120.61L269.5 120.46L269.51 120.32L269.51 123.43L269.51 123.5Z" id="a18QjQtau"></path><path d="M264.67 126.18C264.3 127.4 263.54 128.52 262.4 129.52C262.4 129.52 262.38 129.52 262.38 129.52C262.32 129.57 262.25 129.63 262.19 129.69C262.16 129.73 262.14 129.78 262.13 129.82C262.13 129.84 262.13 129.85 262.13 129.86C262.13 129.87 262.13 129.88 262.13 129.88C262.13 129.98 262.19 130.06 262.3 130.12C262.44 130.2 262.62 130.24 262.84 130.23C263.04 130.22 263.21 130.17 263.36 130.09C263.41 130.05 263.47 130.02 263.53 129.97C263.53 129.97 263.55 129.96 263.55 129.96C264.03 129.59 264.49 129.22 264.92 128.85C267.32 126.72 268.77 124.42 269.3 121.93C269.36 121.69 269.4 121.44 269.43 121.19C269.47 120.89 269.5 120.6 269.51 120.32C269.52 120.13 269.52 119.95 269.52 119.77C269.46 116.29 267.34 113.36 263.17 110.98C258.44 108.29 252.45 107.09 245.2 107.38C240.78 107.56 236.67 108.27 232.88 109.51C232.1 109.77 231.33 110.05 230.57 110.35C230.4 110.44 230.24 110.52 230.1 110.6C229.1 111.16 228.39 111.79 227.96 112.48C228.4 111.9 229.44 111.95 231.09 112.61C231.68 112.84 232.13 113.17 232.44 113.59C232.61 113.8 232.73 114.04 232.81 114.32C233.08 115.13 233 116.17 232.58 117.45C232.57 117.47 232.56 117.49 232.55 117.52C233.08 117.58 233.66 117.6 234.28 117.59C235.64 117.55 236.91 117.31 238.08 116.89C238.3 116.8 238.51 116.71 238.72 116.64C241.61 115.51 244.79 114.88 248.25 114.74C253.07 114.54 257.06 115.35 260.23 117.16C262.28 118.33 263.67 119.76 264.39 121.44C264.77 122.35 264.95 123.34 264.94 124.41C264.93 125.02 264.84 125.61 264.67 126.18Z" id="d4l4PjnB1y"></path></defs><g><g><g><g><use xlink:href="#f2KpfkQK3G" opacity="1" fill="#546f32" fill-opacity="1"></use><g><use xlink:href="#f2KpfkQK3G" opacity="1" fill-opacity="0" stroke="#000000" stroke-width="1" stroke-opacity="0"></use></g></g><g><use xlink:href="#c4SMScyftQ" opacity="1" fill="#709342" fill-opacity="1"></use><g><use xlink:href="#c4SMScyftQ" opacity="1" fill-opacity="0" stroke="#000000" stroke-width="1" stroke-opacity="0"></use></g></g><g><use xlink:href="#b3vUfQ1D9j" opacity="1" fill="#9c3321" fill-opacity="1"></use><g><use xlink:href="#b3vUfQ1D9j" opacity="1" fill-opacity="0" stroke="#000000" stroke-width="1" stroke-opacity="0"></use></g></g><g><use xlink:href="#bdoVlcqii" opacity="1" fill="#dd4e34" fill-opacity="1"></use><g><use xlink:href="#bdoVlcqii" opacity="1" fill-opacity="0" stroke="#000000" stroke-width="1" stroke-opacity="0"></use></g></g></g><g><g><use xlink:href="#dypxfzoCl" opacity="1" fill="#546f32" fill-opacity="1"></use><g><use xlink:href="#dypxfzoCl" opacity="1" fill-opacity="0" stroke="#000000" stroke-width="1" stroke-opacity="0"></use></g></g><g><use xlink:href="#a6LA8nF99u" opacity="1" fill="#709342" fill-opacity="1"></use><g><use xlink:href="#a6LA8nF99u" opacity="1" fill-opacity="0" stroke="#000000" stroke-width="1" stroke-opacity="0"></use></g></g><g><use xlink:href="#dmNiYOAZV" opacity="1" fill="#9c3321" fill-opacity="1"></use><g><use xlink:href="#dmNiYOAZV" opacity="1" fill-opacity="0" stroke="#000000" stroke-width="1" stroke-opacity="0"></use></g></g><g><use xlink:href="#a1P6M0y5NF" opacity="1" fill="#dd4e34" fill-opacity="1"></use><g><use xlink:href="#a1P6M0y5NF" opacity="1" fill-opacity="0" stroke="#000000" stroke-width="1" stroke-opacity="0"></use></g></g></g><g><g><use xlink:href="#c3CLuh8MQ5" opacity="1" fill="#546f32" fill-opacity="1"></use><g><use xlink:href="#c3CLuh8MQ5" opacity="1" fill-opacity="0" stroke="#000000" stroke-width="1" stroke-opacity="0"></use></g></g><g><use xlink:href="#e1AaasTCr8" opacity="1" fill="#709342" fill-opacity="1"></use><g><use xlink:href="#e1AaasTCr8" opacity="1" fill-opacity="0" stroke="#000000" stroke-width="1" stroke-opacity="0"></use></g></g><g><use xlink:href="#a18QjQtau" opacity="1" fill="#9c3321" fill-opacity="1"></use><g><use xlink:href="#a18QjQtau" opacity="1" fill-opacity="0" stroke="#000000" stroke-width="1" stroke-opacity="0"></use></g></g><g><use xlink:href="#d4l4PjnB1y" opacity="1" fill="#dd4e34" fill-opacity="1"></use><g><use xlink:href="#d4l4PjnB1y" opacity="1" fill-opacity="0" stroke="#000000" stroke-width="1" stroke-opacity="0"></use></g></g></g></g></g></svg>