<?xml version="1.0" encoding="UTF-8" standalone="no"?>
<!DOCTYPE svg PUBLIC "-//W3C//DTD SVG 1.1//EN" "http://www.w3.org/Graphics/SVG/1.1/DTD/svg11.dtd">
<svg version="1.1" xmlns="http://www.w3.org/2000/svg" xmlns:xlink="http://www.w3.org/1999/xlink" preserveAspectRatio="xMidYMid meet" viewBox="0 0 300 150" width="300" height="150"><defs><path d="M74.12 73.97L74.12 75.42C74.11 75.42 74.1 75.42 74.1 75.42C74.01 75.47 73.9 75.49 73.76 75.49C73.65 75.47 73.56 75.44 73.47 75.4C73.42 75.34 73.4 75.28 73.4 75.22C73.4 75.21 73.4 75.17 73.4 75.1C73.41 74.36 73.42 73.94 73.42 73.86C73.42 73.89 73.44 73.92 73.47 73.95C73.56 74 73.66 74.03 73.76 74.04C73.9 74.04 74.01 74.02 74.1 73.97C74.1 73.97 74.11 73.97 74.12 73.97Z" id="bhTmUv67M"></path><path d="M68.45 69.27L68.47 69.41L68.49 69.54L68.98 70.87L69.98 72L71.48 72.94L73.49 73.68L73.47 73.69L73.45 73.71L73.43 73.73L73.42 73.75L73.42 73.86L73.4 75.1L71.15 74.22L69.57 73.06L68.67 71.65L68.45 69.97L68.43 69L68.44 69.14L68.45 69.27Z" id="a7152SdA"></path><path d="M98.79 52.91C98.77 52.86 98.73 52.83 98.65 52.82C98.62 52.8 98.57 52.81 98.51 52.84C98.45 52.85 98.39 52.88 98.33 52.91C96.28 55.17 97.2 57.2 101.09 59.01C97.31 61.57 93.22 64.02 88.82 66.36C87.17 65.03 86.5 62.9 86.8 59.96C86.8 59.91 86.78 59.88 86.74 59.85C86.69 59.83 86.64 59.83 86.58 59.85C86.52 59.83 86.47 59.84 86.42 59.87C86.38 59.88 86.35 59.92 86.33 59.98C86.03 63 86.74 65.19 88.48 66.56C85.42 68.2 82.19 69.79 78.78 71.33C76.52 69.7 75.93 66.91 77.02 62.94C77.05 62.9 77.04 62.87 76.99 62.85C76.95 62.82 76.88 62.81 76.79 62.81C76.74 62.79 76.7 62.8 76.65 62.83C76.61 62.86 76.58 62.89 76.56 62.92C75.43 66.98 76.04 69.83 78.4 71.49C76.84 72.2 75.25 72.9 73.63 73.59C73.57 73.62 73.52 73.65 73.49 73.68C70.47 72.82 68.81 71.44 68.49 69.55C68.46 69.36 68.44 69.18 68.43 69C68.44 68.97 68.44 68.94 68.43 68.91C68.43 68.88 68.43 68.85 68.43 68.82C68.44 68.29 68.54 67.73 68.72 67.13C69.74 63.81 72.7 60.77 77.58 58.02C82.46 55.24 88.12 53.08 94.56 51.53C101.01 49.96 108.96 47.89 118.43 45.31C118.4 45.81 118.35 46.31 118.29 46.81C117.61 54.54 116.03 59.98 113.54 63.15C110.92 66.49 107.18 69.53 102.31 72.26C97.44 74.98 92.08 76.62 86.24 77.16C80.5 77.69 76.46 76.63 74.12 73.98C74.14 73.98 74.15 73.98 74.17 73.98C75.82 73.28 77.43 72.58 78.98 71.87C82.04 73.59 88.11 73.61 97.2 71.94C97.28 71.93 97.32 71.9 97.34 71.87C97.37 71.84 97.38 71.81 97.38 71.76C97.38 71.73 97.34 71.71 97.27 71.69C97.24 71.68 97.18 71.68 97.11 71.69C88.28 73.31 82.36 73.31 79.36 71.69C82.75 70.17 85.98 68.58 89.04 66.92C91.34 68.28 95.98 68.46 102.96 67.47C103.04 67.45 103.09 67.42 103.12 67.37C103.15 67.36 103.16 67.33 103.16 67.28C103.16 67.25 103.14 67.23 103.1 67.22C103.04 67.19 102.97 67.18 102.89 67.19C96.13 68.19 91.63 68.04 89.4 66.76C92.32 65.18 95.11 63.57 97.76 61.92C99.98 63.52 104.03 63.56 109.92 62.04C109.98 62.02 110.03 62 110.06 61.97C110.09 61.92 110.09 61.9 110.06 61.88C110.06 61.84 110.02 61.81 109.95 61.81C109.89 61.78 109.82 61.77 109.77 61.79C104.11 63.25 100.23 63.22 98.1 61.7C99.43 60.87 100.71 60.04 101.94 59.21C103.47 58.16 104.94 57.1 106.37 56.03C108.74 56.83 111.22 56.53 113.81 55.14C113.86 55.12 113.88 55.09 113.88 55.05C113.89 55.01 113.88 54.97 113.83 54.94C113.79 54.93 113.73 54.93 113.65 54.94C113.59 54.94 113.54 54.96 113.49 54.99C111.11 56.27 108.85 56.55 106.69 55.82C108.62 54.35 110.46 52.85 112.21 51.32C112.31 51.28 112.34 51.21 112.3 51.12C112.27 51.06 112.2 51.01 112.09 50.98C112 50.94 111.89 50.93 111.75 50.96C111.63 50.98 111.53 51.01 111.46 51.07C108.38 53.74 105.03 56.31 101.4 58.78C97.71 57.07 96.83 55.14 98.76 53.02C98.79 52.98 98.8 52.94 98.79 52.91Z" id="a2OsJimGqr"></path><path d="M98.76 53.02C96.83 55.14 97.71 57.07 101.41 58.78C105.04 56.31 108.39 53.74 111.46 51.08C111.54 51.02 111.64 50.98 111.76 50.96C111.89 50.93 112.01 50.94 112.1 50.99C112.2 51.02 112.27 51.06 112.3 51.12C112.35 51.21 112.32 51.28 112.21 51.33C110.46 52.85 108.63 54.35 106.7 55.82C108.85 56.55 111.12 56.27 113.5 54.99C113.54 54.96 113.6 54.94 113.66 54.94C113.73 54.93 113.79 54.93 113.84 54.94C113.88 54.97 113.9 55.01 113.88 55.06C113.88 55.09 113.86 55.12 113.82 55.15C111.22 56.53 108.74 56.83 106.38 56.03C104.95 57.1 103.47 58.16 101.95 59.22C100.71 60.04 99.43 60.87 98.11 61.7C100.23 63.22 104.12 63.25 109.77 61.79C109.83 61.78 109.89 61.78 109.95 61.81C110.03 61.81 110.06 61.84 110.06 61.88C110.09 61.9 110.09 61.93 110.06 61.97C110.03 62 109.99 62.02 109.93 62.04C104.04 63.56 99.98 63.52 97.77 61.93C95.11 63.57 92.33 65.18 89.4 66.76C91.63 68.05 96.13 68.19 102.9 67.19C102.97 67.18 103.04 67.19 103.1 67.22C103.15 67.23 103.17 67.25 103.17 67.28C103.17 67.33 103.15 67.36 103.12 67.38C103.09 67.42 103.04 67.45 102.97 67.47C95.99 68.46 91.35 68.28 89.04 66.93C85.98 68.58 82.76 70.17 79.37 71.69C82.37 73.31 88.28 73.31 97.11 71.69C97.19 71.68 97.24 71.68 97.27 71.69C97.35 71.71 97.38 71.73 97.38 71.76C97.38 71.81 97.37 71.85 97.34 71.88C97.33 71.91 97.28 71.93 97.2 71.94C88.12 73.62 82.04 73.59 78.99 71.88C77.43 72.58 75.83 73.28 74.17 73.98C74.16 73.98 74.14 73.98 74.13 73.98C74.12 73.98 74.11 73.98 74.1 73.98C74.01 74.02 73.9 74.05 73.76 74.05C73.66 74.03 73.56 74 73.47 73.95C73.44 73.92 73.42 73.89 73.42 73.86C73.42 73.82 73.42 73.78 73.42 73.75C73.44 73.72 73.46 73.7 73.49 73.68C73.52 73.65 73.57 73.62 73.63 73.59C75.26 72.9 76.85 72.2 78.4 71.49C76.05 69.83 75.44 66.98 76.57 62.92C76.58 62.89 76.61 62.86 76.66 62.83C76.7 62.8 76.75 62.79 76.79 62.81C76.88 62.81 76.95 62.82 77 62.85C77.04 62.87 77.05 62.9 77.02 62.94C75.93 66.91 76.52 69.7 78.78 71.33C82.19 69.79 85.42 68.2 88.48 66.56C86.75 65.19 86.03 63 86.33 59.98C86.35 59.92 86.38 59.88 86.42 59.87C86.47 59.84 86.52 59.83 86.58 59.85C86.64 59.83 86.7 59.83 86.74 59.85C86.78 59.88 86.81 59.91 86.81 59.96C86.51 62.9 87.18 65.03 88.82 66.36C93.22 64.02 97.31 61.57 101.09 59.01C97.21 57.2 96.29 55.17 98.34 52.91C98.4 52.88 98.46 52.85 98.52 52.84C98.58 52.81 98.62 52.8 98.65 52.82C98.72 52.83 98.77 52.86 98.78 52.91C98.8 52.94 98.79 52.98 98.76 53.02Z" id="b1FueT58x3"></path><path d="M167.79 39.48L167.79 40.92C167.78 40.92 167.77 40.92 167.77 40.92C167.68 40.97 167.56 40.99 167.43 40.99C167.32 40.98 167.22 40.95 167.13 40.9C167.09 40.84 167.07 40.78 167.07 40.72C167.07 40.71 167.07 40.68 167.07 40.61C167.08 39.86 167.09 39.45 167.09 39.36C167.09 39.39 167.1 39.42 167.13 39.46C167.22 39.5 167.32 39.53 167.43 39.55C167.56 39.55 167.68 39.52 167.77 39.48C167.77 39.48 167.78 39.48 167.79 39.48Z" id="dXJeS4tLY"></path><path d="M162.12 34.78L162.14 34.91L162.16 35.05L162.65 36.37L163.65 37.51L165.15 38.44L167.16 39.18L167.14 39.2L167.12 39.21L167.1 39.23L167.09 39.25L167.09 39.36L167.07 40.61L164.82 39.72L163.24 38.57L162.34 37.15L162.12 35.48L162.09 34.51L162.11 34.64L162.12 34.78Z" id="a2pzC4txJD"></path><path d="M192.45 18.41C192.44 18.37 192.39 18.34 192.32 18.32C192.29 18.31 192.24 18.31 192.18 18.34C192.12 18.36 192.06 18.38 192 18.41C189.95 20.67 190.87 22.71 194.76 24.51C190.98 27.08 186.88 29.52 182.48 31.86C180.84 30.53 180.17 28.4 180.47 25.46C180.47 25.42 180.45 25.38 180.4 25.35C180.36 25.34 180.31 25.34 180.25 25.35C180.19 25.34 180.13 25.34 180.09 25.37C180.04 25.39 180.01 25.43 180 25.49C179.69 28.5 180.41 30.69 182.14 32.06C179.08 33.71 175.85 35.3 172.45 36.83C170.19 35.21 169.6 32.41 170.68 28.45C170.71 28.4 170.71 28.37 170.66 28.36C170.62 28.33 170.55 28.31 170.46 28.31C170.41 28.3 170.37 28.3 170.32 28.34C170.28 28.37 170.25 28.4 170.23 28.43C169.1 32.48 169.71 35.34 172.06 36.99C170.51 37.7 168.92 38.4 167.29 39.09C167.23 39.12 167.19 39.15 167.16 39.19C164.14 38.33 162.48 36.95 162.16 35.05C162.13 34.87 162.11 34.69 162.09 34.51C162.11 34.48 162.11 34.45 162.09 34.42C162.09 34.39 162.09 34.36 162.09 34.32C162.11 33.8 162.21 33.23 162.39 32.63C163.41 29.31 166.36 26.28 171.25 23.52C176.13 20.75 181.79 18.59 188.22 17.03C194.67 15.47 202.63 13.39 212.09 10.82C212.06 11.31 212.02 11.81 211.96 12.31C211.28 20.04 209.7 25.49 207.21 28.65C204.59 32 200.84 35.03 195.98 37.76C191.11 40.49 185.75 42.12 179.9 42.67C174.16 43.19 170.12 42.13 167.79 39.48C167.8 39.48 167.82 39.48 167.83 39.48C169.49 38.79 171.1 38.09 172.65 37.38C175.71 39.1 181.78 39.12 190.87 37.45C190.94 37.43 190.99 37.41 191 37.38C191.03 37.35 191.05 37.31 191.05 37.27C191.05 37.24 191.01 37.21 190.93 37.2C190.9 37.18 190.85 37.18 190.78 37.2C181.95 38.81 176.03 38.81 173.03 37.2C176.42 35.68 179.65 34.08 182.7 32.43C185.01 33.78 189.65 33.96 196.63 32.97C196.7 32.95 196.76 32.92 196.79 32.88C196.82 32.86 196.83 32.83 196.83 32.79C196.83 32.76 196.81 32.73 196.76 32.72C196.7 32.69 196.64 32.68 196.56 32.7C189.79 33.69 185.29 33.55 183.06 32.27C185.99 30.68 188.77 29.07 191.43 27.43C193.64 29.03 197.7 29.06 203.59 27.54C203.65 27.53 203.7 27.5 203.73 27.47C203.76 27.43 203.76 27.4 203.73 27.38C203.73 27.34 203.69 27.32 203.61 27.32C203.55 27.29 203.49 27.28 203.43 27.29C197.78 28.75 193.89 28.72 191.77 27.2C193.09 26.37 194.38 25.55 195.61 24.72C197.13 23.66 198.61 22.6 200.04 21.53C202.41 22.33 204.89 22.04 207.48 20.65C207.52 20.62 207.55 20.59 207.55 20.56C207.56 20.51 207.55 20.47 207.5 20.44C207.46 20.43 207.4 20.43 207.32 20.44C207.26 20.44 207.21 20.46 207.16 20.49C204.78 21.77 202.51 22.05 200.36 21.33C202.29 19.85 204.13 18.35 205.87 16.83C205.98 16.78 206.01 16.72 205.96 16.62C205.93 16.57 205.87 16.52 205.76 16.49C205.67 16.44 205.56 16.44 205.42 16.47C205.3 16.48 205.2 16.52 205.13 16.58C202.05 19.24 198.7 21.82 195.07 24.29C191.38 22.57 190.5 20.65 192.43 18.52C192.46 18.48 192.47 18.44 192.45 18.41Z" id="b126oMX7OS"></path><path d="M192.43 18.52C190.5 20.65 191.38 22.57 195.07 24.29C198.7 21.82 202.06 19.25 205.13 16.58C205.21 16.52 205.31 16.48 205.42 16.47C205.56 16.44 205.67 16.44 205.76 16.49C205.87 16.52 205.94 16.57 205.97 16.63C206.01 16.72 205.98 16.78 205.88 16.83C204.13 18.35 202.29 19.85 200.36 21.33C202.52 22.05 204.79 21.77 207.17 20.49C207.21 20.46 207.26 20.45 207.33 20.45C207.4 20.43 207.46 20.43 207.51 20.45C207.55 20.48 207.57 20.51 207.55 20.56C207.55 20.59 207.53 20.62 207.48 20.65C204.89 22.04 202.41 22.33 200.05 21.53C198.61 22.6 197.14 23.66 195.62 24.72C194.38 25.55 193.1 26.38 191.77 27.21C193.9 28.73 197.79 28.76 203.44 27.29C203.5 27.28 203.56 27.29 203.62 27.32C203.69 27.32 203.73 27.34 203.73 27.39C203.76 27.4 203.76 27.43 203.73 27.48C203.7 27.51 203.65 27.53 203.59 27.54C197.7 29.06 193.65 29.03 191.43 27.43C188.78 29.07 185.99 30.69 183.07 32.27C185.3 33.55 189.8 33.69 196.56 32.7C196.64 32.68 196.71 32.69 196.77 32.72C196.81 32.74 196.84 32.76 196.84 32.79C196.84 32.83 196.82 32.86 196.79 32.88C196.76 32.92 196.71 32.95 196.63 32.97C189.66 33.97 185.02 33.78 182.71 32.43C179.65 34.09 176.42 35.68 173.04 37.2C176.03 38.81 181.95 38.81 190.78 37.2C190.86 37.18 190.91 37.18 190.94 37.2C191.01 37.21 191.05 37.24 191.05 37.27C191.05 37.31 191.04 37.35 191.01 37.38C190.99 37.41 190.95 37.43 190.87 37.45C181.78 39.12 175.71 39.1 172.65 37.38C171.1 38.09 169.5 38.79 167.84 39.48C167.82 39.48 167.81 39.48 167.79 39.48C167.79 39.48 167.77 39.48 167.77 39.48C167.68 39.53 167.57 39.55 167.43 39.55C167.32 39.53 167.23 39.5 167.14 39.46C167.11 39.43 167.09 39.4 167.09 39.37C167.09 39.32 167.09 39.28 167.09 39.25C167.11 39.22 167.13 39.2 167.16 39.19C167.19 39.16 167.23 39.13 167.3 39.09C168.92 38.4 170.51 37.7 172.07 36.99C169.72 35.34 169.1 32.48 170.23 28.43C170.25 28.4 170.28 28.37 170.32 28.34C170.37 28.31 170.42 28.3 170.46 28.31C170.55 28.31 170.62 28.33 170.66 28.36C170.71 28.37 170.72 28.4 170.69 28.45C169.6 32.41 170.19 35.21 172.45 36.83C175.86 35.3 179.09 33.71 182.15 32.06C180.41 30.69 179.7 28.5 180 25.49C180.01 25.43 180.04 25.39 180.09 25.37C180.14 25.34 180.19 25.34 180.25 25.35C180.31 25.34 180.36 25.34 180.41 25.35C180.45 25.38 180.48 25.42 180.48 25.46C180.17 28.4 180.84 30.53 182.49 31.86C186.89 29.53 190.98 27.08 194.76 24.51C190.87 22.71 189.95 20.67 192 18.41C192.06 18.38 192.12 18.36 192.18 18.34C192.24 18.31 192.29 18.31 192.32 18.32C192.39 18.34 192.44 18.36 192.45 18.41C192.47 18.44 192.46 18.48 192.43 18.52Z" id="cF47DtiO"></path><path d="M130.7 132.74L130.7 134.18C130.68 134.18 130.67 134.18 130.67 134.18C130.58 134.23 130.47 134.25 130.33 134.25C130.23 134.24 130.13 134.21 130.04 134.16C130 134.1 129.97 134.04 129.97 133.98C129.97 133.97 129.97 133.93 129.97 133.87C129.99 133.12 129.99 132.71 130 132.62C130 132.65 130.01 132.68 130.04 132.71C130.13 132.76 130.23 132.79 130.33 132.81C130.47 132.8 130.58 132.78 130.67 132.74C130.68 132.74 130.68 132.74 130.7 132.74Z" id="bAhFUoeC"></path><path d="M125.03 128.04L125.05 128.17L125.07 128.31L125.56 129.63L126.55 130.77L128.06 131.7L130.06 132.44L130.04 132.46L130.02 132.47L130.01 132.49L130 132.51L130 132.62L129.97 133.87L127.72 132.98L126.15 131.83L125.25 130.41L125.02 128.74L125 127.76L125.01 127.9L125.03 128.04Z" id="afcmubXA2"></path><path d="M155.36 111.67C155.34 111.63 155.3 111.59 155.22 111.58C155.19 111.56 155.15 111.57 155.09 111.6C155.03 111.62 154.97 111.64 154.91 111.67C152.86 113.93 153.78 115.96 157.66 117.77C153.88 120.33 149.79 122.78 145.39 125.12C143.75 123.79 143.08 121.66 143.38 118.72C143.38 118.68 143.35 118.64 143.31 118.61C143.27 118.59 143.21 118.59 143.15 118.61C143.09 118.59 143.04 118.6 142.99 118.63C142.95 118.65 142.92 118.69 142.9 118.75C142.6 121.76 143.32 123.95 145.05 125.32C141.99 126.97 138.76 128.56 135.35 130.09C133.09 128.47 132.51 125.67 133.59 121.71C133.62 121.66 133.61 121.63 133.57 121.62C133.52 121.59 133.45 121.57 133.36 121.57C133.32 121.56 133.27 121.56 133.23 121.59C133.18 121.62 133.15 121.65 133.14 121.69C132.01 125.74 132.62 128.59 134.97 130.25C133.42 130.96 131.83 131.66 130.2 132.35C130.14 132.38 130.09 132.41 130.06 132.44C127.05 131.59 125.38 130.21 125.07 128.31C125.04 128.13 125.01 127.95 125 127.77C125.01 127.74 125.01 127.71 125 127.68C125 127.65 125 127.62 125 127.58C125.01 127.06 125.11 126.49 125.29 125.89C126.32 122.57 129.27 119.54 134.15 116.78C139.04 114.01 144.69 111.84 151.13 110.29C157.58 108.73 165.54 106.65 175 104.08C174.97 104.57 174.92 105.07 174.86 105.57C174.19 113.3 172.6 118.75 170.12 121.91C167.5 125.26 163.75 128.29 158.88 131.02C154.01 133.75 148.66 135.38 142.81 135.93C137.07 136.45 133.03 135.39 130.69 132.74C130.71 132.74 130.72 132.74 130.74 132.74C132.4 132.05 134 131.34 135.55 130.64C138.61 132.36 144.69 132.38 153.77 130.7C153.85 130.69 153.89 130.67 153.91 130.64C153.94 130.61 153.95 130.57 153.95 130.52C153.95 130.49 153.92 130.47 153.84 130.46C153.81 130.44 153.76 130.44 153.68 130.46C144.85 132.07 138.94 132.07 135.94 130.46C139.33 128.93 142.55 127.34 145.61 125.69C147.92 127.04 152.56 127.22 159.54 126.23C159.61 126.21 159.66 126.18 159.69 126.14C159.72 126.12 159.74 126.09 159.74 126.05C159.74 126.02 159.71 125.99 159.67 125.98C159.61 125.95 159.54 125.94 159.47 125.95C152.7 126.95 148.2 126.81 145.97 125.53C148.89 123.94 151.68 122.33 154.33 120.69C156.55 122.29 160.6 122.32 166.5 120.8C166.56 120.79 166.6 120.76 166.63 120.73C166.66 120.69 166.66 120.66 166.63 120.64C166.63 120.6 166.59 120.58 166.52 120.58C166.46 120.55 166.4 120.54 166.34 120.55C160.69 122.01 156.8 121.98 154.67 120.46C156 119.63 157.28 118.81 158.52 117.98C160.04 116.92 161.52 115.86 162.95 114.79C165.31 115.59 167.79 115.29 170.38 113.91C170.43 113.88 170.45 113.85 170.45 113.82C170.47 113.77 170.45 113.73 170.41 113.7C170.36 113.69 170.3 113.69 170.23 113.7C170.17 113.7 170.11 113.72 170.07 113.75C167.69 115.03 165.42 115.31 163.26 114.59C165.19 113.11 167.03 111.61 168.78 110.09C168.89 110.04 168.92 109.97 168.87 109.88C168.84 109.82 168.77 109.78 168.67 109.75C168.57 109.7 168.46 109.69 168.33 109.72C168.2 109.74 168.11 109.78 168.03 109.84C164.96 112.5 161.61 115.07 157.97 117.55C154.29 115.83 153.41 113.91 155.34 111.78C155.37 111.74 155.37 111.7 155.36 111.67Z" id="c3rhJNFGPR"></path><path d="M155.33 111.78C153.4 113.91 154.29 115.83 157.98 117.55C161.61 115.08 164.96 112.51 168.04 109.84C168.11 109.78 168.21 109.74 168.33 109.73C168.47 109.7 168.58 109.7 168.67 109.75C168.78 109.78 168.84 109.82 168.87 109.89C168.92 109.98 168.89 110.04 168.79 110.09C167.04 111.61 165.2 113.11 163.27 114.59C165.42 115.31 167.69 115.03 170.07 113.75C170.12 113.72 170.17 113.71 170.23 113.71C170.31 113.69 170.37 113.69 170.41 113.71C170.46 113.74 170.47 113.77 170.46 113.82C170.46 113.85 170.43 113.88 170.39 113.91C167.8 115.3 165.32 115.59 162.95 114.79C161.52 115.86 160.04 116.92 158.52 117.98C157.29 118.81 156.01 119.64 154.68 120.46C156.8 121.99 160.69 122.02 166.34 120.55C166.4 120.54 166.46 120.55 166.52 120.58C166.6 120.58 166.64 120.6 166.64 120.64C166.67 120.66 166.67 120.69 166.64 120.73C166.61 120.76 166.56 120.79 166.5 120.8C160.61 122.32 156.56 122.29 154.34 120.69C151.69 122.33 148.9 123.94 145.98 125.53C148.21 126.81 152.7 126.95 159.47 125.96C159.55 125.94 159.61 125.95 159.67 125.98C159.72 125.99 159.74 126.02 159.74 126.05C159.74 126.09 159.73 126.12 159.7 126.14C159.67 126.18 159.62 126.21 159.54 126.23C152.56 127.22 147.92 127.04 145.62 125.69C142.56 127.35 139.33 128.93 135.94 130.46C138.94 132.07 144.85 132.07 153.69 130.46C153.76 130.44 153.81 130.44 153.85 130.46C153.92 130.47 153.96 130.5 153.96 130.53C153.96 130.57 153.94 130.61 153.91 130.64C153.9 130.67 153.85 130.69 153.78 130.71C144.69 132.38 138.62 132.36 135.56 130.64C134.01 131.35 132.4 132.05 130.74 132.74C130.73 132.74 130.71 132.74 130.7 132.74C130.7 132.74 130.68 132.74 130.68 132.74C130.59 132.78 130.47 132.81 130.34 132.81C130.23 132.79 130.13 132.76 130.04 132.72C130.01 132.69 130 132.66 130 132.63C130 132.58 130 132.54 130 132.51C130.01 132.48 130.04 132.46 130.07 132.44C130.1 132.42 130.14 132.39 130.2 132.35C131.83 131.66 133.42 130.96 134.97 130.25C132.62 128.59 132.01 125.74 133.14 121.69C133.16 121.66 133.19 121.63 133.23 121.59C133.28 121.56 133.32 121.56 133.37 121.57C133.46 121.57 133.52 121.59 133.57 121.62C133.61 121.63 133.62 121.66 133.59 121.71C132.51 125.67 133.1 128.47 135.36 130.09C138.76 128.56 141.99 126.97 145.05 125.32C143.32 123.95 142.6 121.76 142.91 118.75C142.92 118.69 142.95 118.65 143 118.63C143.04 118.6 143.09 118.59 143.16 118.61C143.22 118.59 143.27 118.59 143.31 118.61C143.36 118.64 143.38 118.68 143.38 118.72C143.08 121.66 143.75 123.79 145.39 125.12C149.79 122.78 153.89 120.33 157.67 117.77C153.78 115.96 152.86 113.93 154.91 111.67C154.97 111.64 155.03 111.62 155.09 111.6C155.15 111.57 155.2 111.56 155.23 111.58C155.3 111.59 155.34 111.62 155.36 111.67C155.37 111.7 155.37 111.74 155.33 111.78Z" id="a469iVH6Ta"></path></defs><g><g><g><g><use xlink:href="#bhTmUv67M" opacity="1" fill="#74b568" fill-opacity="1"></use><g><use xlink:href="#bhTmUv67M" opacity="1" fill-opacity="0" stroke="#000000" stroke-width="1" stroke-opacity="0"></use></g></g><g><use xlink:href="#a7152SdA" opacity="1" fill="#4d7637" fill-opacity="1"></use><g><use xlink:href="#a7152SdA" opacity="1" fill-opacity="0" stroke="#000000" stroke-width="1" stroke-opacity="0"></use></g></g><g><use xlink:href="#a2OsJimGqr" opacity="1" fill="#86b65a" fill-opacity="1"></use><g><use xlink:href="#a2OsJimGqr" opacity="1" fill-opacity="0" stroke="#000000" stroke-width="1" stroke-opacity="0"></use></g></g><g><use xlink:href="#b1FueT58x3" opacity="1" fill="#b5da99" fill-opacity="1"></use><g><use xlink:href="#b1FueT58x3" opacity="1" fill-opacity="0" stroke="#000000" stroke-width="1" stroke-opacity="0"></use></g></g></g><g><g><use xlink:href="#dXJeS4tLY" opacity="1" fill="#74b568" fill-opacity="1"></use><g><use xlink:href="#dXJeS4tLY" opacity="1" fill-opacity="0" stroke="#000000" stroke-width="1" stroke-opacity="0"></use></g></g><g><use xlink:href="#a2pzC4txJD" opacity="1" fill="#4d7637" fill-opacity="1"></use><g><use xlink:href="#a2pzC4txJD" opacity="1" fill-opacity="0" stroke="#000000" stroke-width="1" stroke-opacity="0"></use></g></g><g><use xlink:href="#b126oMX7OS" opacity="1" fill="#86b65a" fill-opacity="1"></use><g><use xlink:href="#b126oMX7OS" opacity="1" fill-opacity="0" stroke="#000000" stroke-width="1" stroke-opacity="0"></use></g></g><g><use xlink:href="#cF47DtiO" opacity="1" fill="#b5da99" fill-opacity="1"></use><g><use xlink:href="#cF47DtiO" opacity="1" fill-opacity="0" stroke="#000000" stroke-width="1" stroke-opacity="0"></use></g></g></g><g><g><use xlink:href="#bAhFUoeC" opacity="1" fill="#74b568" fill-opacity="1"></use><g><use xlink:href="#bAhFUoeC" opacity="1" fill-opacity="0" stroke="#000000" stroke-width="1" stroke-opacity="0"></use></g></g><g><use xlink:href="#afcmubXA2" opacity="1" fill="#4d7637" fill-opacity="1"></use><g><use xlink:href="#afcmubXA2" opacity="1" fill-opacity="0" stroke="#000000" stroke-width="1" stroke-opacity="0"></use></g></g><g><use xlink:href="#c3rhJNFGPR" opacity="1" fill="#86b65a" fill-opacity="1"></use><g><use xlink:href="#c3rhJNFGPR" opacity="1" fill-opacity="0" stroke="#000000" stroke-width="1" stroke-opacity="0"></use></g></g><g><use xlink:href="#a469iVH6Ta" opacity="1" fill="#b5da99" fill-opacity="1"></use><g><use xlink:href="#a469iVH6Ta" opacity="1" fill-opacity="0" stroke="#000000" stroke-width="1" stroke-opacity="0"></use></g></g></g></g></g></svg>