<?xml version="1.0" encoding="UTF-8" standalone="no"?>
<!DOCTYPE svg PUBLIC "-//W3C//DTD SVG 1.1//EN" "http://www.w3.org/Graphics/SVG/1.1/DTD/svg11.dtd">
<svg version="1.1" xmlns="http://www.w3.org/2000/svg" xmlns:xlink="http://www.w3.org/1999/xlink" preserveAspectRatio="xMidYMid meet" viewBox="0 0 300 150" width="300" height="150"><defs><path d="M31.55 106.13L31.55 106.18L31.55 106.24L31.56 106.29L31.56 106.34L31.56 106.39L31.57 106.44L31.57 106.49L31.58 106.54L31.58 106.6L31.59 106.65L31.6 106.7L31.6 106.75L31.61 106.81L31.62 106.86L31.62 106.91L31.63 106.96L31.64 107.02L31.65 107.07L31.66 107.12L31.67 107.18L31.68 107.23L31.69 107.28L31.7 107.34L31.71 107.39L31.72 107.45L31.74 107.53L31.76 107.61L31.78 107.69L31.8 107.77L31.82 107.85L31.84 107.93L31.86 108.01L31.89 108.09L31.92 108.17L31.94 108.25L31.97 108.32L32 108.4L32.03 108.48L32.06 108.56L32.1 108.63L32.13 108.71L32.17 108.78L32.2 108.86L32.24 108.94L32.28 109.01L32.32 109.08L32.36 109.16L32.4 109.23L32.44 109.31L32.48 109.38L32.53 109.45L32.58 109.53L32.77 109.81L32.98 110.09L33.21 110.36L33.45 110.62L33.71 110.88L33.99 111.14L34.28 111.39L34.59 111.63L34.91 111.87L35.26 112.1L35.61 112.33L35.98 112.55L36.37 112.77L36.78 112.98L37.2 113.18L37.64 113.38L38.09 113.57L38.56 113.76L39.04 113.94L39.55 114.12L40.06 114.29L40.6 114.46L41.15 114.62L41.71 114.77L42.29 114.92L42.89 115.06L43.51 115.2L43.52 115.2L43.54 115.2L43.56 115.21L43.59 115.21L43.62 115.21L43.66 115.22L43.7 115.22L43.74 115.23L43.79 115.23L43.85 115.24L43.91 115.25L43.97 115.26L44.04 115.26L44.11 115.27L44.19 115.28L44.27 115.29L44.36 115.3L44.45 115.32L44.55 115.33L44.65 115.34L44.75 115.35L44.86 115.37L44.98 115.38L45.1 115.4L45.22 115.41L45.35 115.43L45.48 115.44L45.51 115.44L45.55 115.44L45.58 115.44L45.62 115.44L45.66 115.44L45.7 115.44L45.74 115.45L45.79 115.45L45.83 115.45L45.88 115.46L45.93 115.46L45.98 115.47L46.03 115.48L46.09 115.49L46.14 115.49L46.2 115.5L46.26 115.51L46.32 115.52L46.38 115.54L46.45 115.55L46.52 115.56L46.58 115.57L46.65 115.59L46.72 115.6L46.8 115.62L46.87 115.64L46.95 115.65L46.13 115.57L46.85 115.67L47.56 115.78L48.26 115.9L48.95 116.02L49.63 116.14L50.3 116.28L50.96 116.41L51.61 116.55L52.25 116.7L52.88 116.85L53.49 117.01L54.1 117.17L54.7 117.34L55.29 117.51L55.87 117.69L56.44 117.87L57 118.06L57.54 118.25L58.08 118.45L58.61 118.66L59.13 118.87L59.63 119.08L60.13 119.3L60.62 119.52L61.09 119.75L61.56 119.99L62.01 120.23L62.5 120.48L62.99 120.71L63.48 120.93L63.97 121.12L64.47 121.29L64.96 121.44L65.45 121.57L65.94 121.68L66.44 121.78L66.93 121.85L67.43 121.9L67.92 121.93L68.42 121.94L68.92 121.93L69.41 121.9L69.91 121.85L70.41 121.78L70.91 121.69L71.41 121.58L71.91 121.45L72.41 121.3L72.91 121.12L73.41 120.93L73.91 120.72L74.42 120.49L74.92 120.24L75.42 119.97L75.71 119.8L75.99 119.64L76.27 119.47L76.53 119.3L76.79 119.13L77.05 118.96L77.29 118.78L77.53 118.6L77.76 118.42L77.99 118.24L78.21 118.06L78.42 117.88L78.63 117.69L78.82 117.5L79.01 117.31L79.2 117.12L79.38 116.93L79.55 116.73L79.71 116.53L79.87 116.33L80.02 116.13L80.16 115.93L80.29 115.72L80.42 115.52L80.54 115.31L80.66 115.1L80.77 114.89L80.81 114.8L80.84 114.72L80.88 114.64L80.92 114.56L80.95 114.48L80.98 114.39L81.02 114.31L81.05 114.23L81.08 114.14L81.11 114.06L81.14 113.97L81.17 113.89L81.19 113.8L81.22 113.72L81.24 113.63L81.27 113.55L81.29 113.46L81.31 113.37L81.33 113.29L81.35 113.2L81.37 113.11L81.39 113.02L81.41 112.94L81.42 112.85L81.44 112.76L81.45 112.67L81.47 112.58L81.47 117.52L81.47 117.55L81.47 117.59L81.48 117.62L81.48 117.65L81.49 117.68L81.49 117.71L81.49 117.74L81.5 117.77L81.5 117.8L81.5 117.83L81.5 117.86L81.51 117.9L81.51 117.93L81.51 117.96L81.52 117.99L81.52 118.02L81.52 118.05L81.52 118.08L81.52 118.11L81.53 118.14L81.53 118.17L81.53 118.21L81.53 118.24L81.53 118.27L81.54 118.3L81.54 118.33L81.54 118.36L81.55 118.75L81.53 119.14L81.5 119.52L81.46 119.9L81.39 120.28L81.31 120.64L81.21 121.01L81.09 121.37L80.95 121.72L80.8 122.07L80.63 122.41L80.44 122.75L80.23 123.08L80 123.41L79.76 123.74L79.49 124.05L79.21 124.37L78.92 124.68L78.6 124.98L78.27 125.28L77.91 125.57L77.54 125.86L77.16 126.14L76.75 126.42L76.33 126.7L75.89 126.97L75.43 127.23L74.92 127.5L74.42 127.75L73.92 127.99L73.41 128.2L72.91 128.39L72.41 128.56L71.91 128.71L71.41 128.84L70.91 128.95L70.41 129.04L69.91 129.11L69.42 129.16L68.92 129.19L68.42 129.2L67.93 129.19L67.43 129.16L66.93 129.11L66.44 129.04L65.95 128.95L65.45 128.84L64.96 128.7L64.47 128.55L63.98 128.38L63.49 128.19L63 127.98L62.51 127.74L62.02 127.49L61.52 127.23L61.01 126.98L60.49 126.72L59.96 126.47L59.42 126.23L58.86 125.98L58.29 125.74L57.71 125.51L57.11 125.27L56.5 125.04L55.89 124.81L55.25 124.59L54.61 124.37L53.95 124.15L53.28 123.94L52.6 123.73L51.91 123.52L51.2 123.32L50.48 123.12L49.75 122.92L49 122.72L48.25 122.53L47.48 122.34L46.7 122.16L45.9 121.98L45.1 121.8L44.28 121.63L43.77 121.61L42.97 121.49L42.2 121.37L41.46 121.23L40.75 121.09L40.06 120.93L39.4 120.76L38.76 120.58L38.15 120.39L37.57 120.19L37.02 119.98L36.49 119.76L35.99 119.52L35.52 119.28L35.07 119.02L34.65 118.76L34.26 118.48L33.9 118.19L33.56 117.89L33.25 117.58L32.96 117.26L32.7 116.93L32.47 116.59L32.27 116.23L32.09 115.87L31.94 115.49L31.82 115.11L31.72 114.71L31.71 114.66L31.7 114.61L31.69 114.56L31.68 114.51L31.67 114.47L31.67 114.42L31.66 114.37L31.65 114.32L31.64 114.27L31.63 114.22L31.63 114.17L31.62 114.12L31.62 114.08L31.61 114.03L31.6 113.98L31.6 113.93L31.59 113.88L31.59 113.83L31.59 113.79L31.58 113.74L31.58 113.69L31.57 113.64L31.57 113.59L31.57 113.54L31.57 113.5L31.57 113.45L31.56 113.4L31.56 113.38L31.56 113.36L31.56 113.34L31.56 113.32L31.56 113.3L31.56 113.28L31.56 113.26L31.56 113.24L31.56 113.22L31.56 113.2L31.56 113.18L31.56 113.16L31.56 113.14L31.56 113.12L31.56 113.1L31.56 113.08L31.56 113.06L31.56 113.04L31.56 113.02L31.56 113L31.56 112.98L31.56 112.96L31.56 112.94L31.56 112.92L31.56 112.9L31.56 112.88L31.56 112.86L31.55 106.03L31.55 106.08L31.55 106.13Z" id="a4HQPOZ6Lv"></path><path d="M53.7 94.72L54.56 94.75L55.42 94.8L56.28 94.87L57.13 94.94L57.96 95.04L58.79 95.14L59.61 95.26L60.42 95.39L61.23 95.54L62.02 95.7L62.8 95.88L63.58 96.07L64.35 96.27L65.1 96.49L65.85 96.72L66.59 96.96L67.33 97.22L68.05 97.5L68.76 97.78L69.47 98.08L70.16 98.4L70.85 98.73L71.53 99.07L72.2 99.43L72.86 99.8L73.5 100.18L74.12 100.57L74.72 100.96L75.29 101.35L75.83 101.75L76.35 102.16L76.85 102.57L77.32 102.98L77.76 103.4L78.18 103.82L78.58 104.25L78.95 104.69L79.29 105.12L79.62 105.57L79.91 106.01L80.18 106.47L80.43 106.92L80.65 107.39L80.85 107.85L81.02 108.33L81.17 108.8L81.3 109.28L81.39 109.77L81.47 110.26L81.48 110.33L81.48 110.4L81.49 110.47L81.5 110.54L81.5 110.61L81.51 110.69L81.52 110.76L81.52 110.83L81.53 110.9L81.53 110.97L81.53 111.04L81.54 111.11L81.54 111.18L81.54 111.25L81.54 111.32L81.55 111.38L81.55 111.45L81.55 111.52L81.55 111.59L81.55 111.66L81.54 111.73L81.54 111.8L81.54 111.87L81.54 111.94L81.54 111.96L81.53 111.99L81.53 112.02L81.53 112.05L81.53 112.07L81.53 112.1L81.52 112.13L81.52 112.16L81.52 112.18L81.52 112.21L81.51 112.24L81.51 112.26L81.51 112.29L81.51 112.32L81.5 112.34L81.5 112.37L81.5 112.4L81.49 112.42L81.49 112.45L81.48 112.48L81.48 112.5L81.48 112.53L81.47 112.56L81.47 112.58L81.45 112.68L81.44 112.78L81.42 112.88L81.4 112.98L81.38 113.08L81.36 113.18L81.34 113.28L81.31 113.37L81.29 113.47L81.26 113.57L81.23 113.67L81.21 113.76L81.18 113.86L81.14 113.95L81.11 114.05L81.08 114.14L81.04 114.24L81.01 114.33L80.97 114.42L80.93 114.52L80.89 114.61L80.85 114.7L80.81 114.8L80.77 114.89L80.65 115.13L80.51 115.36L80.38 115.6L80.23 115.83L80.07 116.06L79.9 116.29L79.73 116.51L79.55 116.73L79.35 116.95L79.15 117.17L78.94 117.39L78.72 117.6L78.5 117.81L78.26 118.02L78.02 118.22L77.76 118.43L77.5 118.63L77.23 118.83L76.95 119.02L76.66 119.22L76.37 119.41L76.06 119.6L75.75 119.78L75.42 119.97L74.86 120.27L74.29 120.55L73.73 120.81L73.16 121.03L72.6 121.24L72.03 121.41L71.47 121.56L70.91 121.69L70.35 121.79L69.79 121.87L69.23 121.91L68.67 121.94L68.11 121.94L67.55 121.91L66.99 121.86L66.44 121.78L65.88 121.67L65.33 121.54L64.77 121.39L64.22 121.21L63.67 121L63.12 120.77L62.56 120.51L62.01 120.23L61.5 119.96L60.97 119.7L60.43 119.44L59.88 119.19L59.32 118.95L58.74 118.71L58.15 118.48L57.54 118.26L56.93 118.04L56.3 117.83L55.65 117.62L55 117.43L54.33 117.23L53.65 117.05L52.95 116.87L52.25 116.7L51.53 116.54L50.79 116.38L50.05 116.23L49.29 116.08L48.52 115.94L47.73 115.81L46.94 115.69L46.13 115.57L46.95 115.66L46.86 115.64L46.78 115.62L46.7 115.6L46.62 115.58L46.54 115.57L46.47 115.55L46.39 115.54L46.32 115.53L46.25 115.51L46.19 115.5L46.12 115.49L46.06 115.48L46 115.47L45.94 115.47L45.89 115.46L45.83 115.46L45.78 115.45L45.73 115.45L45.68 115.44L45.64 115.44L45.6 115.44L45.55 115.44L45.52 115.44L45.48 115.45L45.33 115.43L45.19 115.41L45.05 115.39L44.92 115.38L44.79 115.36L44.67 115.34L44.56 115.33L44.45 115.32L44.35 115.3L44.25 115.29L44.16 115.28L44.08 115.27L44 115.26L43.92 115.25L43.86 115.24L43.79 115.24L43.74 115.23L43.69 115.22L43.64 115.22L43.6 115.21L43.57 115.21L43.54 115.21L43.52 115.2L43.51 115.2L42.82 115.05L42.15 114.88L41.5 114.72L40.87 114.54L40.26 114.36L39.67 114.17L39.11 113.97L38.56 113.76L38.03 113.55L37.53 113.33L37.04 113.11L36.57 112.87L36.13 112.63L35.7 112.39L35.3 112.13L34.91 111.87L34.55 111.6L34.21 111.33L33.88 111.05L33.58 110.76L33.3 110.46L33.04 110.16L32.8 109.84L32.58 109.53L32.52 109.44L32.47 109.36L32.42 109.28L32.38 109.2L32.33 109.11L32.29 109.03L32.24 108.95L32.2 108.86L32.16 108.78L32.12 108.69L32.08 108.6L32.05 108.52L32.01 108.43L31.98 108.34L31.95 108.26L31.92 108.17L31.89 108.08L31.86 107.99L31.83 107.9L31.81 107.81L31.78 107.72L31.76 107.63L31.74 107.54L31.72 107.45L31.71 107.39L31.7 107.33L31.68 107.27L31.67 107.21L31.66 107.15L31.65 107.09L31.64 107.03L31.63 106.97L31.62 106.91L31.61 106.85L31.61 106.79L31.6 106.73L31.59 106.67L31.59 106.61L31.58 106.55L31.57 106.49L31.57 106.44L31.56 106.38L31.56 106.32L31.56 106.26L31.55 106.21L31.55 106.15L31.55 106.09L31.55 106.03L31.55 105.93L31.55 105.55L31.58 105.17L31.63 104.8L31.69 104.43L31.78 104.07L31.89 103.71L32.02 103.35L32.17 103L32.34 102.66L32.53 102.32L32.74 101.98L32.97 101.65L33.23 101.32L33.5 101L33.79 100.68L34.11 100.37L34.44 100.06L34.8 99.76L35.17 99.46L35.57 99.17L35.99 98.88L36.42 98.59L36.88 98.31L37.36 98.04L37.93 97.73L38.52 97.43L39.12 97.15L39.73 96.89L40.35 96.64L40.99 96.4L41.64 96.18L42.3 95.98L42.97 95.79L43.66 95.62L44.35 95.46L45.07 95.31L45.79 95.18L46.52 95.07L47.27 94.97L48.03 94.89L48.8 94.82L49.59 94.76L50.39 94.72L51.2 94.7L52.02 94.69L52.85 94.7L53.7 94.72ZM41.2 109.68L41.19 109.67L41.17 109.66L41.15 109.65L41.13 109.63L40.77 109.57L40.66 109.56L40.8 109.6L41.2 109.68ZM38.29 101.23L36.68 102.49L35.77 103.84L35.55 105.26L36.03 106.77L37.61 108.43L37.94 108.6L38.37 108.78L38.89 108.96L39.49 109.15L40.19 109.33L40.97 109.53L38.71 107.59L37.54 105.72L37.44 103.92L38.41 102.19L40.47 100.52L43.61 98.93L40.6 100.04L38.29 101.23Z" id="bwgADXzVP"></path><path d="M201.95 20.62L201.95 20.67L201.96 20.72L201.96 20.77L201.96 20.82L201.97 20.87L201.97 20.92L201.97 20.98L201.98 21.03L201.99 21.08L201.99 21.13L202 21.18L202 21.24L202.01 21.29L202.02 21.34L202.02 21.39L202.03 21.45L202.04 21.5L202.05 21.55L202.06 21.61L202.07 21.66L202.08 21.71L202.09 21.77L202.1 21.82L202.11 21.88L202.12 21.93L202.14 22.01L202.16 22.09L202.18 22.17L202.2 22.25L202.22 22.33L202.24 22.41L202.27 22.49L202.29 22.57L202.32 22.65L202.35 22.73L202.37 22.81L202.4 22.88L202.43 22.96L202.47 23.04L202.5 23.12L202.53 23.19L202.57 23.27L202.6 23.34L202.64 23.42L202.68 23.49L202.72 23.57L202.76 23.64L202.8 23.72L202.84 23.79L202.89 23.86L202.93 23.94L202.98 24.01L203.17 24.29L203.38 24.57L203.61 24.84L203.86 25.11L204.12 25.37L204.39 25.62L204.68 25.87L204.99 26.12L205.32 26.35L205.66 26.59L206.01 26.81L206.39 27.04L206.77 27.25L207.18 27.46L207.6 27.67L208.04 27.86L208.49 28.06L208.96 28.25L209.45 28.43L209.95 28.6L210.46 28.78L211 28.94L211.55 29.1L212.11 29.25L212.7 29.4L213.29 29.55L213.91 29.68L213.92 29.68L213.94 29.69L213.96 29.69L213.99 29.69L214.02 29.7L214.06 29.7L214.1 29.71L214.15 29.71L214.2 29.72L214.25 29.72L214.31 29.73L214.37 29.74L214.44 29.75L214.52 29.76L214.59 29.77L214.67 29.78L214.76 29.79L214.85 29.8L214.95 29.81L215.05 29.82L215.15 29.84L215.26 29.85L215.38 29.86L215.5 29.88L215.62 29.9L215.75 29.91L215.88 29.93L215.91 29.93L215.95 29.92L215.98 29.92L216.02 29.92L216.06 29.93L216.1 29.93L216.14 29.93L216.19 29.93L216.23 29.94L216.28 29.94L216.33 29.95L216.38 29.95L216.44 29.96L216.49 29.97L216.55 29.98L216.6 29.99L216.66 30L216.72 30.01L216.79 30.02L216.85 30.03L216.92 30.04L216.98 30.06L217.05 30.07L217.12 30.09L217.2 30.1L217.27 30.12L217.35 30.14L216.53 30.05L217.25 30.16L217.96 30.27L218.66 30.38L219.35 30.5L220.03 30.63L220.7 30.76L221.36 30.9L222.01 31.04L222.65 31.18L223.28 31.34L223.9 31.49L224.51 31.65L225.1 31.82L225.69 31.99L226.27 32.17L226.84 32.36L227.4 32.54L227.94 32.74L228.48 32.94L229.01 33.14L229.53 33.35L230.03 33.56L230.53 33.78L231.02 34.01L231.49 34.24L231.96 34.47L232.42 34.71L232.91 34.97L233.39 35.2L233.89 35.41L234.38 35.6L234.87 35.77L235.36 35.92L235.85 36.06L236.35 36.17L236.84 36.26L237.33 36.33L237.83 36.38L238.32 36.41L238.82 36.42L239.32 36.41L239.81 36.38L240.31 36.33L240.81 36.26L241.31 36.17L241.81 36.06L242.31 35.93L242.81 35.78L243.31 35.61L243.81 35.42L244.32 35.21L244.82 34.97L245.32 34.72L245.83 34.45L246.11 34.29L246.39 34.12L246.67 33.95L246.94 33.78L247.2 33.61L247.45 33.44L247.69 33.26L247.93 33.09L248.17 32.91L248.39 32.73L248.61 32.54L248.82 32.36L249.03 32.17L249.23 31.99L249.42 31.8L249.6 31.6L249.78 31.41L249.95 31.21L250.11 31.02L250.27 30.82L250.42 30.62L250.56 30.41L250.7 30.21L250.82 30L250.95 29.79L251.06 29.58L251.17 29.37L251.21 29.29L251.25 29.21L251.28 29.12L251.32 29.04L251.35 28.96L251.39 28.88L251.42 28.79L251.45 28.71L251.48 28.62L251.51 28.54L251.54 28.46L251.57 28.37L251.59 28.29L251.62 28.2L251.64 28.12L251.67 28.03L251.69 27.94L251.71 27.86L251.73 27.77L251.75 27.68L251.77 27.6L251.79 27.51L251.81 27.42L251.83 27.33L251.84 27.24L251.86 27.15L251.87 27.07L251.87 32.01L251.87 32.04L251.88 32.07L251.88 32.1L251.88 32.13L251.89 32.16L251.89 32.19L251.89 32.22L251.9 32.25L251.9 32.29L251.9 32.32L251.91 32.35L251.91 32.38L251.91 32.41L251.91 32.44L251.92 32.47L251.92 32.5L251.92 32.53L251.92 32.56L251.93 32.6L251.93 32.63L251.93 32.66L251.93 32.69L251.93 32.72L251.94 32.75L251.94 32.78L251.94 32.81L251.94 32.84L251.95 33.24L251.94 33.62L251.91 34.01L251.86 34.39L251.79 34.76L251.71 35.13L251.61 35.49L251.49 35.85L251.35 36.2L251.2 36.55L251.03 36.9L250.84 37.23L250.63 37.57L250.4 37.9L250.16 38.22L249.9 38.54L249.62 38.85L249.32 39.16L249 39.46L248.67 39.76L248.32 40.06L247.95 40.34L247.56 40.63L247.15 40.91L246.73 41.18L246.29 41.45L245.83 41.71L245.32 41.99L244.82 42.24L244.32 42.47L243.82 42.68L243.31 42.87L242.81 43.04L242.31 43.19L241.81 43.32L241.31 43.43L240.81 43.53L240.31 43.6L239.82 43.65L239.32 43.68L238.82 43.68L238.33 43.67L237.83 43.64L237.34 43.59L236.84 43.52L236.35 43.43L235.86 43.32L235.36 43.19L234.87 43.04L234.38 42.86L233.89 42.67L233.4 42.46L232.91 42.23L232.42 41.98L231.92 41.72L231.42 41.46L230.9 41.21L230.36 40.96L229.82 40.71L229.26 40.47L228.69 40.23L228.11 39.99L227.51 39.76L226.91 39.53L226.29 39.3L225.65 39.07L225.01 38.85L224.35 38.64L223.68 38.42L223 38.21L222.31 38L221.6 37.8L220.88 37.6L220.15 37.4L219.41 37.21L218.65 37.02L217.88 36.83L217.1 36.64L216.3 36.46L215.5 36.28L214.68 36.11L214.17 36.09L213.38 35.98L212.61 35.85L211.86 35.72L211.15 35.57L210.46 35.41L209.8 35.24L209.16 35.06L208.56 34.87L207.97 34.67L207.42 34.46L206.89 34.24L206.39 34L205.92 33.76L205.47 33.5L205.06 33.24L204.66 32.96L204.3 32.67L203.96 32.37L203.65 32.06L203.36 31.74L203.1 31.41L202.87 31.07L202.67 30.72L202.49 30.35L202.34 29.98L202.22 29.59L202.12 29.19L202.11 29.15L202.1 29.1L202.09 29.05L202.08 29L202.08 28.95L202.07 28.9L202.06 28.85L202.05 28.8L202.04 28.75L202.04 28.7L202.03 28.66L202.02 28.61L202.02 28.56L202.01 28.51L202.01 28.46L202 28.41L202 28.37L201.99 28.32L201.99 28.27L201.98 28.22L201.98 28.17L201.98 28.12L201.97 28.08L201.97 28.03L201.97 27.98L201.97 27.93L201.97 27.88L201.96 27.86L201.96 27.84L201.96 27.82L201.96 27.8L201.96 27.78L201.96 27.76L201.96 27.74L201.96 27.72L201.96 27.7L201.96 27.68L201.96 27.66L201.96 27.64L201.96 27.62L201.96 27.6L201.96 27.58L201.96 27.56L201.96 27.54L201.96 27.52L201.96 27.5L201.96 27.48L201.96 27.46L201.96 27.44L201.96 27.42L201.96 27.4L201.96 27.38L201.96 27.36L201.97 27.34L201.95 20.52L201.95 20.57L201.95 20.62Z" id="b3DVVmJk0Y"></path><path d="M224.1 9.2L224.96 9.24L225.83 9.29L226.68 9.35L227.53 9.43L228.37 9.52L229.19 9.62L230.01 9.74L230.83 9.88L231.63 10.02L232.42 10.19L233.21 10.36L233.98 10.55L234.75 10.75L235.51 10.97L236.26 11.2L237 11.45L237.73 11.71L238.45 11.98L239.16 12.27L239.87 12.57L240.56 12.88L241.25 13.21L241.93 13.56L242.6 13.91L243.26 14.28L243.9 14.66L244.52 15.05L245.12 15.44L245.69 15.84L246.23 16.24L246.75 16.64L247.25 17.05L247.72 17.46L248.16 17.88L248.58 18.31L248.98 18.74L249.35 19.17L249.7 19.61L250.02 20.05L250.31 20.5L250.59 20.95L250.83 21.41L251.06 21.87L251.25 22.34L251.43 22.81L251.57 23.29L251.7 23.77L251.8 24.25L251.87 24.74L251.88 24.81L251.89 24.89L251.89 24.96L251.9 25.03L251.91 25.1L251.91 25.17L251.92 25.24L251.92 25.31L251.93 25.38L251.93 25.45L251.94 25.52L251.94 25.59L251.94 25.66L251.94 25.73L251.95 25.8L251.95 25.87L251.95 25.94L251.95 26.01L251.95 26.08L251.95 26.14L251.95 26.21L251.94 26.28L251.94 26.35L251.94 26.42L251.94 26.45L251.94 26.47L251.93 26.5L251.93 26.53L251.93 26.56L251.93 26.58L251.93 26.61L251.92 26.64L251.92 26.67L251.92 26.69L251.92 26.72L251.91 26.75L251.91 26.77L251.91 26.8L251.9 26.83L251.9 26.85L251.9 26.88L251.89 26.91L251.89 26.93L251.89 26.96L251.88 26.99L251.88 27.01L251.87 27.04L251.87 27.07L251.85 27.17L251.84 27.27L251.82 27.37L251.8 27.47L251.78 27.56L251.76 27.66L251.74 27.76L251.71 27.86L251.69 27.96L251.66 28.05L251.64 28.15L251.61 28.24L251.58 28.34L251.55 28.44L251.51 28.53L251.48 28.63L251.45 28.72L251.41 28.81L251.37 28.91L251.33 29L251.3 29.09L251.25 29.19L251.21 29.28L251.17 29.37L251.05 29.61L250.92 29.85L250.78 30.08L250.63 30.31L250.47 30.54L250.31 30.77L250.13 30.99L249.95 31.22L249.76 31.44L249.55 31.65L249.34 31.87L249.13 32.08L248.9 32.29L248.66 32.5L248.42 32.71L248.17 32.91L247.9 33.11L247.63 33.31L247.35 33.51L247.07 33.7L246.77 33.89L246.46 34.08L246.15 34.27L245.83 34.45L245.26 34.76L244.69 35.04L244.13 35.29L243.56 35.52L243 35.72L242.43 35.9L241.87 36.05L241.31 36.17L240.75 36.27L240.19 36.35L239.63 36.4L239.07 36.42L238.51 36.42L237.95 36.39L237.4 36.34L236.84 36.26L236.28 36.16L235.73 36.03L235.18 35.87L234.62 35.69L234.07 35.49L233.52 35.25L232.97 35L232.42 34.71L231.9 34.44L231.38 34.18L230.84 33.92L230.28 33.67L229.72 33.43L229.14 33.19L228.55 32.96L227.94 32.74L227.33 32.52L226.7 32.31L226.06 32.11L225.4 31.91L224.73 31.72L224.05 31.53L223.36 31.36L222.65 31.18L221.93 31.02L221.2 30.86L220.45 30.71L219.69 30.57L218.92 30.43L218.13 30.3L217.34 30.17L216.53 30.05L217.35 30.14L217.26 30.12L217.18 30.1L217.1 30.08L217.02 30.07L216.94 30.05L216.87 30.04L216.79 30.02L216.72 30.01L216.66 30L216.59 29.99L216.52 29.98L216.46 29.97L216.4 29.96L216.34 29.95L216.29 29.94L216.23 29.94L216.18 29.93L216.13 29.93L216.09 29.93L216.04 29.93L216 29.93L215.96 29.93L215.92 29.93L215.88 29.93L215.73 29.91L215.59 29.89L215.45 29.88L215.32 29.86L215.2 29.84L215.08 29.83L214.96 29.81L214.85 29.8L214.75 29.79L214.65 29.78L214.56 29.76L214.48 29.75L214.4 29.74L214.33 29.73L214.26 29.73L214.2 29.72L214.14 29.71L214.09 29.71L214.04 29.7L214.01 29.7L213.97 29.69L213.94 29.69L213.92 29.69L213.91 29.68L213.22 29.53L212.55 29.37L211.9 29.2L211.27 29.02L210.66 28.84L210.07 28.65L209.51 28.45L208.96 28.25L208.43 28.04L207.93 27.82L207.44 27.59L206.98 27.36L206.53 27.12L206.11 26.87L205.7 26.62L205.32 26.35L204.95 26.09L204.61 25.81L204.29 25.53L203.98 25.24L203.7 24.94L203.44 24.64L203.2 24.33L202.98 24.01L202.93 23.93L202.88 23.85L202.83 23.76L202.78 23.68L202.73 23.6L202.69 23.51L202.64 23.43L202.6 23.34L202.56 23.26L202.52 23.17L202.49 23.09L202.45 23L202.41 22.91L202.38 22.83L202.35 22.74L202.32 22.65L202.29 22.56L202.26 22.47L202.23 22.39L202.21 22.3L202.19 22.21L202.16 22.11L202.14 22.02L202.12 21.93L202.11 21.87L202.1 21.81L202.09 21.75L202.07 21.69L202.06 21.63L202.05 21.57L202.04 21.51L202.03 21.45L202.02 21.39L202.02 21.33L202.01 21.27L202 21.21L201.99 21.15L201.99 21.09L201.98 21.04L201.98 20.98L201.97 20.92L201.97 20.86L201.96 20.8L201.96 20.75L201.95 20.69L201.95 20.63L201.95 20.57L201.95 20.52L201.95 20.41L201.95 20.03L201.98 19.65L202.03 19.28L202.1 18.91L202.18 18.55L202.29 18.19L202.42 17.84L202.57 17.49L202.74 17.14L202.93 16.8L203.14 16.47L203.38 16.13L203.63 15.81L203.9 15.49L204.2 15.17L204.51 14.86L204.84 14.55L205.2 14.24L205.58 13.95L205.97 13.65L206.39 13.36L206.83 13.08L207.28 12.8L207.76 12.52L208.34 12.21L208.92 11.92L209.52 11.64L210.13 11.37L210.76 11.12L211.39 10.89L212.04 10.67L212.7 10.46L213.37 10.27L214.06 10.1L214.76 9.94L215.47 9.8L216.19 9.67L216.93 9.55L217.67 9.45L218.43 9.37L219.21 9.3L219.99 9.25L220.79 9.21L221.6 9.18L222.42 9.17L223.25 9.18L224.1 9.2ZM211.6 24.17L211.59 24.16L211.57 24.14L211.55 24.13L211.53 24.11L211.17 24.06L211.06 24.05L211.2 24.08L211.6 24.17ZM208.69 15.71L207.08 16.98L206.17 18.32L205.95 19.75L206.44 21.25L208.01 22.91L208.34 23.08L208.77 23.26L209.29 23.44L209.89 23.63L210.59 23.82L211.38 24.01L209.12 22.07L207.94 20.21L207.84 18.41L208.82 16.67L210.87 15.01L214.01 13.41L211 14.52L208.69 15.71Z" id="d1Qwed3A91"></path><path d="M191.94 105.3L191.95 105.36L191.95 105.41L191.95 105.46L191.96 105.51L191.96 105.56L191.96 105.61L191.97 105.66L191.97 105.72L191.98 105.77L191.98 105.82L191.99 105.87L192 105.92L192 105.98L192.01 106.03L192.02 106.08L192.03 106.14L192.03 106.19L192.04 106.24L192.05 106.29L192.06 106.35L192.07 106.4L192.08 106.46L192.09 106.51L192.1 106.56L192.12 106.62L192.13 106.7L192.15 106.78L192.17 106.86L192.19 106.94L192.21 107.02L192.24 107.1L192.26 107.18L192.29 107.26L192.31 107.34L192.34 107.42L192.37 107.49L192.4 107.57L192.43 107.65L192.46 107.73L192.49 107.8L192.53 107.88L192.56 107.96L192.6 108.03L192.63 108.11L192.67 108.18L192.71 108.26L192.75 108.33L192.79 108.4L192.84 108.48L192.88 108.55L192.92 108.62L192.97 108.7L193.17 108.98L193.38 109.26L193.61 109.53L193.85 109.79L194.11 110.06L194.39 110.31L194.68 110.56L194.99 110.8L195.31 111.04L195.65 111.27L196.01 111.5L196.38 111.72L196.77 111.94L197.17 112.15L197.59 112.35L198.03 112.55L198.48 112.75L198.95 112.93L199.44 113.12L199.94 113.29L200.46 113.46L200.99 113.63L201.54 113.79L202.11 113.94L202.69 114.09L203.29 114.23L203.9 114.37L203.92 114.37L203.93 114.37L203.96 114.38L203.98 114.38L204.02 114.38L204.05 114.39L204.09 114.39L204.14 114.4L204.19 114.41L204.24 114.41L204.3 114.42L204.37 114.43L204.44 114.44L204.51 114.44L204.59 114.45L204.67 114.46L204.76 114.48L204.85 114.49L204.94 114.5L205.04 114.51L205.15 114.52L205.26 114.54L205.37 114.55L205.49 114.57L205.61 114.58L205.74 114.6L205.87 114.62L205.91 114.61L205.94 114.61L205.98 114.61L206.02 114.61L206.05 114.61L206.1 114.62L206.14 114.62L206.18 114.62L206.23 114.63L206.28 114.63L206.33 114.64L206.38 114.64L206.43 114.65L206.48 114.66L206.54 114.67L206.6 114.67L206.66 114.68L206.72 114.7L206.78 114.71L206.84 114.72L206.91 114.73L206.98 114.75L207.05 114.76L207.12 114.78L207.19 114.79L207.27 114.81L207.34 114.83L206.52 114.74L207.24 114.84L207.95 114.95L208.65 115.07L209.34 115.19L210.02 115.32L210.69 115.45L211.35 115.58L212 115.72L212.64 115.87L213.27 116.02L213.89 116.18L214.5 116.34L215.1 116.51L215.69 116.68L216.26 116.86L216.83 117.04L217.39 117.23L217.94 117.42L218.48 117.62L219 117.83L219.52 118.04L220.03 118.25L220.52 118.47L221.01 118.7L221.49 118.93L221.95 119.16L222.41 119.4L222.9 119.65L223.39 119.89L223.88 120.1L224.37 120.29L224.86 120.46L225.35 120.61L225.85 120.74L226.34 120.86L226.83 120.95L227.33 121.02L227.82 121.07L228.32 121.1L228.81 121.11L229.31 121.1L229.81 121.07L230.31 121.02L230.8 120.95L231.3 120.86L231.8 120.75L232.3 120.62L232.8 120.47L233.3 120.3L233.81 120.1L234.31 119.89L234.81 119.66L235.32 119.41L235.82 119.14L236.11 118.97L236.39 118.81L236.66 118.64L236.93 118.47L237.19 118.3L237.44 118.13L237.69 117.95L237.93 117.77L238.16 117.6L238.39 117.41L238.6 117.23L238.82 117.05L239.02 116.86L239.22 116.67L239.41 116.48L239.59 116.29L239.77 116.1L239.94 115.9L240.1 115.7L240.26 115.51L240.41 115.3L240.55 115.1L240.69 114.9L240.82 114.69L240.94 114.48L241.06 114.27L241.16 114.06L241.2 113.98L241.24 113.89L241.28 113.81L241.31 113.73L241.35 113.65L241.38 113.56L241.41 113.48L241.44 113.4L241.47 113.31L241.5 113.23L241.53 113.14L241.56 113.06L241.59 112.97L241.61 112.89L241.64 112.8L241.66 112.72L241.69 112.63L241.71 112.54L241.73 112.46L241.75 112.37L241.77 112.28L241.79 112.2L241.8 112.11L241.82 112.02L241.83 111.93L241.85 111.84L241.86 111.75L241.86 116.69L241.87 116.73L241.87 116.76L241.87 116.79L241.88 116.82L241.88 116.85L241.88 116.88L241.89 116.91L241.89 116.94L241.89 116.97L241.9 117L241.9 117.04L241.9 117.07L241.91 117.1L241.91 117.13L241.91 117.16L241.91 117.19L241.92 117.22L241.92 117.25L241.92 117.28L241.92 117.31L241.92 117.35L241.93 117.38L241.93 117.41L241.93 117.44L241.93 117.47L241.93 117.5L241.93 117.53L241.94 117.92L241.93 118.31L241.9 118.7L241.85 119.07L241.79 119.45L241.7 119.82L241.6 120.18L241.49 120.54L241.35 120.89L241.19 121.24L241.02 121.58L240.83 121.92L240.62 122.25L240.4 122.58L240.15 122.91L239.89 123.23L239.61 123.54L239.31 123.85L239 124.15L238.66 124.45L238.31 124.74L237.94 125.03L237.55 125.32L237.15 125.59L236.72 125.87L236.28 126.14L235.82 126.4L235.32 126.67L234.81 126.92L234.31 127.16L233.81 127.37L233.31 127.56L232.81 127.73L232.31 127.88L231.81 128.01L231.31 128.12L230.81 128.21L230.31 128.28L229.81 128.33L229.31 128.36L228.82 128.37L228.32 128.36L227.83 128.33L227.33 128.28L226.84 128.21L226.34 128.12L225.85 128.01L225.36 127.88L224.86 127.72L224.37 127.55L223.88 127.36L223.39 127.15L222.9 126.92L222.41 126.66L221.92 126.4L221.41 126.15L220.89 125.89L220.36 125.64L219.81 125.4L219.25 125.15L218.68 124.91L218.1 124.68L217.51 124.44L216.9 124.21L216.28 123.99L215.65 123.76L215 123.54L214.35 123.32L213.68 123.11L213 122.9L212.3 122.69L211.59 122.49L210.87 122.29L210.14 122.09L209.4 121.89L208.64 121.7L207.87 121.52L207.09 121.33L206.3 121.15L205.49 120.97L204.67 120.8L204.17 120.78L203.37 120.66L202.6 120.54L201.86 120.4L201.14 120.26L200.45 120.1L199.79 119.93L199.16 119.75L198.55 119.56L197.97 119.36L197.41 119.15L196.89 118.93L196.39 118.69L195.91 118.45L195.47 118.19L195.05 117.93L194.66 117.65L194.29 117.36L193.95 117.06L193.64 116.75L193.36 116.43L193.1 116.1L192.87 115.76L192.66 115.4L192.49 115.04L192.34 114.66L192.21 114.28L192.12 113.88L192.11 113.83L192.1 113.78L192.09 113.73L192.08 113.69L192.07 113.64L192.06 113.59L192.05 113.54L192.04 113.49L192.04 113.44L192.03 113.39L192.02 113.34L192.02 113.3L192.01 113.25L192 113.2L192 113.15L191.99 113.1L191.99 113.05L191.98 113L191.98 112.96L191.98 112.91L191.97 112.86L191.97 112.81L191.97 112.76L191.96 112.72L191.96 112.67L191.96 112.62L191.96 112.57L191.96 112.55L191.96 112.53L191.96 112.51L191.96 112.49L191.95 112.47L191.95 112.45L191.95 112.43L191.95 112.41L191.95 112.39L191.95 112.37L191.95 112.35L191.95 112.33L191.95 112.31L191.95 112.29L191.95 112.27L191.95 112.25L191.95 112.23L191.95 112.21L191.95 112.19L191.95 112.17L191.95 112.15L191.95 112.13L191.96 112.11L191.96 112.09L191.96 112.07L191.96 112.05L191.96 112.03L191.94 105.2L191.94 105.25L191.94 105.3Z" id="c3htVn5Isk"></path><path d="M214.1 93.89L214.95 93.93L215.82 93.97L216.67 94.04L217.52 94.12L218.36 94.21L219.19 94.31L220.01 94.43L220.82 94.56L221.62 94.71L222.41 94.87L223.2 95.05L223.98 95.24L224.74 95.44L225.5 95.66L226.25 95.89L226.99 96.13L227.72 96.39L228.44 96.67L229.16 96.95L229.86 97.26L230.56 97.57L231.25 97.9L231.92 98.24L232.59 98.6L233.25 98.97L233.9 99.35L234.52 99.74L235.11 100.13L235.68 100.52L236.23 100.92L236.75 101.33L237.24 101.74L237.71 102.15L238.16 102.57L238.58 102.99L238.97 103.42L239.34 103.86L239.69 104.29L240.01 104.74L240.31 105.19L240.58 105.64L240.83 106.1L241.05 106.56L241.25 107.02L241.42 107.5L241.57 107.97L241.69 108.45L241.79 108.94L241.86 109.43L241.87 109.5L241.88 109.57L241.89 109.64L241.89 109.71L241.9 109.79L241.91 109.86L241.91 109.93L241.92 110L241.92 110.07L241.93 110.14L241.93 110.21L241.93 110.28L241.94 110.35L241.94 110.42L241.94 110.49L241.94 110.56L241.94 110.62L241.94 110.69L241.94 110.76L241.94 110.83L241.94 110.9L241.94 110.97L241.94 111.04L241.93 111.11L241.93 111.13L241.93 111.16L241.93 111.19L241.93 111.22L241.92 111.24L241.92 111.27L241.92 111.3L241.92 111.33L241.92 111.35L241.91 111.38L241.91 111.41L241.91 111.43L241.9 111.46L241.9 111.49L241.9 111.51L241.89 111.54L241.89 111.57L241.89 111.6L241.88 111.62L241.88 111.65L241.88 111.67L241.87 111.7L241.87 111.73L241.86 111.75L241.85 111.85L241.83 111.95L241.81 112.05L241.79 112.15L241.77 112.25L241.75 112.35L241.73 112.45L241.71 112.55L241.68 112.64L241.66 112.74L241.63 112.84L241.6 112.93L241.57 113.03L241.54 113.12L241.51 113.22L241.47 113.31L241.44 113.41L241.4 113.5L241.37 113.6L241.33 113.69L241.29 113.78L241.25 113.87L241.21 113.97L241.16 114.06L241.04 114.3L240.91 114.53L240.77 114.77L240.62 115L240.46 115.23L240.3 115.46L240.12 115.68L239.94 115.9L239.75 116.12L239.55 116.34L239.34 116.56L239.12 116.77L238.89 116.98L238.66 117.19L238.41 117.39L238.16 117.6L237.9 117.8L237.63 118L237.35 118.19L237.06 118.39L236.76 118.58L236.46 118.77L236.14 118.95L235.82 119.14L235.25 119.44L234.69 119.72L234.12 119.98L233.56 120.2L232.99 120.41L232.43 120.58L231.87 120.74L231.3 120.86L230.74 120.96L230.18 121.04L229.62 121.09L229.06 121.11L228.5 121.11L227.95 121.08L227.39 121.03L226.83 120.95L226.28 120.84L225.72 120.71L225.17 120.56L224.62 120.38L224.06 120.17L223.51 119.94L222.96 119.68L222.41 119.4L221.9 119.13L221.37 118.87L220.83 118.61L220.28 118.36L219.71 118.12L219.13 117.88L218.54 117.65L217.94 117.43L217.32 117.21L216.69 117L216.05 116.79L215.39 116.6L214.73 116.41L214.04 116.22L213.35 116.04L212.64 115.87L211.92 115.71L211.19 115.55L210.44 115.4L209.68 115.25L208.91 115.11L208.13 114.98L207.33 114.86L206.52 114.74L207.34 114.83L207.26 114.81L207.17 114.79L207.09 114.77L207.01 114.75L206.94 114.74L206.86 114.72L206.79 114.71L206.72 114.7L206.65 114.68L206.58 114.67L206.52 114.66L206.46 114.65L206.4 114.65L206.34 114.64L206.28 114.63L206.23 114.63L206.18 114.62L206.13 114.62L206.08 114.62L206.03 114.61L205.99 114.61L205.95 114.61L205.91 114.61L205.87 114.62L205.73 114.6L205.58 114.58L205.45 114.56L205.31 114.55L205.19 114.53L205.07 114.52L204.95 114.5L204.85 114.49L204.74 114.48L204.65 114.46L204.56 114.45L204.47 114.44L204.39 114.43L204.32 114.42L204.25 114.41L204.19 114.41L204.13 114.4L204.08 114.39L204.04 114.39L204 114.38L203.97 114.38L203.94 114.38L203.92 114.37L203.9 114.37L203.21 114.22L202.54 114.06L201.89 113.89L201.26 113.71L200.66 113.53L200.07 113.34L199.5 113.14L198.95 112.93L198.43 112.72L197.92 112.5L197.43 112.28L196.97 112.05L196.52 111.81L196.1 111.56L195.69 111.3L195.31 111.04L194.95 110.77L194.6 110.5L194.28 110.22L193.98 109.93L193.7 109.63L193.43 109.33L193.19 109.02L192.97 108.7L192.92 108.62L192.87 108.53L192.82 108.45L192.77 108.37L192.73 108.28L192.68 108.2L192.64 108.12L192.6 108.03L192.56 107.95L192.52 107.86L192.48 107.78L192.44 107.69L192.41 107.6L192.37 107.52L192.34 107.43L192.31 107.34L192.28 107.25L192.25 107.16L192.23 107.07L192.2 106.98L192.18 106.89L192.16 106.8L192.14 106.71L192.12 106.62L192.1 106.56L192.09 106.5L192.08 106.44L192.07 106.38L192.06 106.32L192.05 106.26L192.04 106.2L192.03 106.14L192.02 106.08L192.01 106.02L192 105.96L191.99 105.9L191.99 105.84L191.98 105.78L191.97 105.72L191.97 105.66L191.96 105.61L191.96 105.55L191.95 105.49L191.95 105.43L191.95 105.38L191.95 105.32L191.94 105.26L191.94 105.2L191.94 105.1L191.95 104.72L191.97 104.34L192.02 103.97L192.09 103.6L192.18 103.24L192.29 102.88L192.41 102.52L192.56 102.17L192.73 101.83L192.93 101.49L193.14 101.15L193.37 100.82L193.62 100.5L193.9 100.17L194.19 99.86L194.5 99.54L194.84 99.24L195.19 98.93L195.57 98.63L195.97 98.34L196.38 98.05L196.82 97.76L197.28 97.48L197.76 97.21L198.33 96.9L198.92 96.6L199.51 96.32L200.13 96.06L200.75 95.81L201.38 95.58L202.03 95.36L202.69 95.15L203.37 94.96L204.05 94.79L204.75 94.63L205.46 94.48L206.18 94.35L206.92 94.24L207.67 94.14L208.43 94.06L209.2 93.99L209.98 93.93L210.78 93.89L211.59 93.87L212.41 93.86L213.25 93.87L214.1 93.89ZM201.6 108.85L201.58 108.84L201.56 108.83L201.55 108.82L201.53 108.8L201.16 108.74L201.05 108.73L201.2 108.77L201.6 108.85ZM198.69 100.4L197.07 101.66L196.16 103.01L195.95 104.44L196.43 105.94L198 107.6L198.34 107.77L198.77 107.95L199.28 108.13L199.89 108.32L200.58 108.51L201.37 108.7L199.11 106.76L197.93 104.89L197.83 103.09L198.81 101.36L200.87 99.7L204.01 98.1L201 99.21L198.69 100.4Z" id="hiLnXQh6c"></path></defs><g><g><g><g><use xlink:href="#a4HQPOZ6Lv" opacity="1" fill="#e9e9e9" fill-opacity="1"></use><g><use xlink:href="#a4HQPOZ6Lv" opacity="1" fill-opacity="0" stroke="#000000" stroke-width="1" stroke-opacity="0"></use></g></g><g><use xlink:href="#bwgADXzVP" opacity="1" fill="#ffffff" fill-opacity="1"></use><g><use xlink:href="#bwgADXzVP" opacity="1" fill-opacity="0" stroke="#000000" stroke-width="1" stroke-opacity="0"></use></g></g></g><g><g><use xlink:href="#b3DVVmJk0Y" opacity="1" fill="#e9e9e9" fill-opacity="1"></use><g><use xlink:href="#b3DVVmJk0Y" opacity="1" fill-opacity="0" stroke="#000000" stroke-width="1" stroke-opacity="0"></use></g></g><g><use xlink:href="#d1Qwed3A91" opacity="1" fill="#ffffff" fill-opacity="1"></use><g><use xlink:href="#d1Qwed3A91" opacity="1" fill-opacity="0" stroke="#000000" stroke-width="1" stroke-opacity="0"></use></g></g></g><g><g><use xlink:href="#c3htVn5Isk" opacity="1" fill="#e9e9e9" fill-opacity="1"></use><g><use xlink:href="#c3htVn5Isk" opacity="1" fill-opacity="0" stroke="#000000" stroke-width="1" stroke-opacity="0"></use></g></g><g><use xlink:href="#hiLnXQh6c" opacity="1" fill="#ffffff" fill-opacity="1"></use><g><use xlink:href="#hiLnXQh6c" opacity="1" fill-opacity="0" stroke="#000000" stroke-width="1" stroke-opacity="0"></use></g></g></g></g></g></svg>