<?xml version="1.0" encoding="UTF-8" standalone="no"?>
<!DOCTYPE svg PUBLIC "-//W3C//DTD SVG 1.1//EN" "http://www.w3.org/Graphics/SVG/1.1/DTD/svg11.dtd">
<svg version="1.1" xmlns="http://www.w3.org/2000/svg" xmlns:xlink="http://www.w3.org/1999/xlink" preserveAspectRatio="xMidYMid meet" viewBox="0 0 300 150" width="300" height="150"><defs><path d="M124.39 70.77L124.59 71.23L124.74 71.7L124.85 72.8L124.6 73.8L124.01 74.69L123.05 75.48L122.98 75.53L122.9 75.58L122.82 75.63L122.74 75.67L121.84 76.12L120.86 76.46L119.79 76.7L118.62 76.85L118.62 76.7L118.6 76.58L118.56 76.46L118.5 76.35L118.42 76.24L118.33 76.14L118.23 76.05L118.12 75.96L118.01 75.87L118.4 75.82L118.79 75.75L119.16 75.68L119.53 75.6L119.99 75.46L120.44 75.29L120.86 75.1L121.27 74.89L121.58 74.69L121.87 74.49L122.13 74.28L122.37 74.06L122.4 74.01L122.44 73.97L122.47 73.92L122.49 73.89L122.82 73.36L123.01 72.8L123.06 72.2L122.96 71.56L122.89 71.31L122.8 71.07L122.69 70.84L122.56 70.6L123.81 69.87L124.13 70.31L124.39 70.77Z" id="a1RksTIyPX"></path><path d="M102.83 70.13C102.16 70.12 101.58 69.97 101.07 69.69C100.95 69.63 100.86 69.56 100.77 69.5C100.73 69.45 100.67 69.41 100.63 69.38C100.62 69.37 100.6 69.33 100.6 69.33C100.55 69.26 100.49 69.18 100.41 69.08C99.44 67.86 98.8 66.58 98.47 65.26C98.47 65.26 98.47 65.24 98.47 65.23C98.35 64.74 98.29 64.27 98.27 63.81C98.27 64.1 98.25 66.39 98.25 66.68C98.25 66.7 98.25 66.73 98.25 66.78C98.25 66.83 98.25 66.88 98.25 66.93C98.26 67.45 98.34 68 98.47 68.57C98.78 69.83 99.37 71.04 100.23 72.19C101.54 71.57 102.83 70.94 104.11 70.28C104.43 70.1 104.76 69.93 105.09 69.77C105.09 69.69 105.09 69.08 105.09 69.01C105.06 69.3 104.86 69.56 104.5 69.77C104.37 69.83 104.24 69.9 104.11 69.96C103.99 70 103.87 70.03 103.74 70.06C103.46 70.11 103.16 70.13 102.83 70.13Z" id="a1plecTYRz"></path><path d="M113.82 76.48C113.82 76.17 114.02 75.89 114.43 75.65C114.87 75.39 115.42 75.26 116.07 75.28C116.74 75.3 117.32 75.45 117.81 75.75C117.83 75.75 117.84 75.75 117.86 75.75C117.91 75.78 117.96 75.82 118.01 75.87C118.54 75.8 119.05 75.71 119.53 75.6C120.44 75.08 121.39 74.56 122.37 74.05C122.42 73.99 122.46 73.93 122.49 73.88C123.03 73.21 123.19 72.44 122.96 71.55C122.87 71.23 122.74 70.91 122.56 70.6C115.18 74.45 109.47 78.5 105.43 82.73C105.43 82.73 105.41 82.72 105.38 82.7L105.38 86.04C105.41 86.05 105.43 86.06 105.43 86.06C107.7 83.69 110.5 81.38 113.81 79.13C113.81 79.19 113.81 79.74 113.81 79.81C113.81 79.85 113.81 79.88 113.81 79.91C113.86 80.3 114.13 80.64 114.62 80.94C114.67 80.96 114.72 80.98 114.77 81.01C114.93 81.08 115.09 81.14 115.23 81.19C115.3 81.2 115.36 81.22 115.41 81.23C117.99 81.99 120.72 82.45 123.59 82.63C129.33 83.04 133.94 82.24 137.41 80.23C139.88 78.81 141.18 77.15 141.31 75.25C141.33 75.06 141.33 74.86 141.31 74.66C141.31 74.37 141.33 72.02 141.34 71.72C141.3 72.23 141.21 72.73 141.04 73.22C140.52 74.57 139.31 75.8 137.41 76.89C133.93 78.9 129.33 79.7 123.59 79.3C122.27 79.22 120.98 79.08 119.72 78.88C118.3 78.64 116.92 78.32 115.58 77.95C115.51 77.93 115.45 77.92 115.41 77.9C115.36 77.88 115.3 77.87 115.23 77.85C115.09 77.8 114.93 77.75 114.77 77.68C114.72 77.65 114.67 77.62 114.62 77.61C114.13 77.31 113.86 76.97 113.82 76.58C113.82 76.55 113.82 76.52 113.82 76.48Z" id="chPsjOgkM"></path><path d="M111.49 65.13C109.05 64.95 107.1 65.29 105.63 66.14C104.86 66.58 104.34 67.11 104.06 67.73C104.11 67.75 104.17 67.77 104.23 67.81C104.25 67.82 104.27 67.84 104.28 67.85C104.79 68.13 105.06 68.45 105.09 68.81C105.09 68.81 105.09 68.83 105.09 68.84C105.09 68.88 105.09 68.94 105.09 69.01C105.09 69.08 105.09 69.69 105.09 69.77C105.27 69.67 105.45 69.57 105.63 69.47C105.74 69.41 105.87 69.34 106 69.28C108.37 68 110.66 66.67 112.88 65.28C112.41 65.22 111.94 65.17 111.49 65.13Z" id="b1kqDYtAhg"></path><path d="M91.36 79.42L105.38 86.04L105.38 82.71L91.34 76.07L91.36 79.42Z" id="g3DH63wt9F"></path><path d="M102.52 57.36C99.81 58.93 98.39 60.88 98.28 63.2C98.26 63.36 98.26 63.53 98.28 63.71C98.28 63.72 98.28 63.8 98.28 63.81C98.29 64.27 98.36 64.74 98.47 65.23C98.47 65.23 98.47 65.25 98.47 65.26C98.8 66.58 99.45 67.85 100.41 69.08C100.49 69.18 100.56 69.26 100.6 69.32C100.61 69.33 100.63 69.37 100.63 69.37C100.68 69.41 100.73 69.45 100.78 69.5C100.86 69.56 100.96 69.63 101.07 69.69C101.58 69.97 102.17 70.12 102.84 70.13C103.16 70.13 103.47 70.11 103.74 70.06C103.88 70.03 104 69.99 104.11 69.96C104.24 69.89 104.37 69.83 104.5 69.76C104.86 69.55 105.06 69.3 105.09 69C105.09 68.94 105.09 68.88 105.09 68.83C105.09 68.83 105.09 68.81 105.09 68.81C105.06 68.45 104.79 68.13 104.28 67.85C104.27 67.83 104.25 67.82 104.23 67.8C104.17 67.77 104.11 67.74 104.06 67.73C103.6 67.52 103.1 67.4 102.54 67.38C102.51 67.38 102.48 67.38 102.47 67.38C102.8 66.63 103.45 65.98 104.43 65.42C106.18 64.41 108.49 64 111.37 64.2C112.3 64.26 113.21 64.39 114.11 64.57C113.99 64.64 113.01 65.21 112.89 65.28C110.66 66.67 108.37 68 106 69.27C105.87 69.34 105.74 69.4 105.63 69.47C105.45 69.57 105.27 69.66 105.09 69.76C104.76 69.93 104.44 70.1 104.11 70.28C102.83 70.93 101.54 71.57 100.24 72.19C97.38 73.55 94.41 74.84 91.34 76.06C92.28 76.51 96.96 78.72 105.38 82.7C105.41 82.72 105.43 82.73 105.43 82.73C109.47 78.5 115.18 74.45 122.56 70.6C122.69 70.52 123.69 69.94 123.81 69.86C124.27 70.45 124.58 71.06 124.74 71.7C125.12 73.24 124.56 74.5 123.05 75.47C122.95 75.54 122.85 75.61 122.74 75.67C121.61 76.32 120.24 76.72 118.62 76.85C118.62 76.82 118.62 76.78 118.62 76.75C118.62 76.74 118.62 76.71 118.62 76.7C118.6 76.54 118.54 76.38 118.42 76.23C118.31 76.1 118.17 75.98 118.01 75.87C117.96 75.82 117.91 75.78 117.86 75.74C117.84 75.74 117.83 75.74 117.81 75.74C117.32 75.45 116.74 75.29 116.07 75.28C115.42 75.26 114.87 75.38 114.43 75.65C114.02 75.89 113.82 76.17 113.82 76.48C113.82 76.51 113.82 76.54 113.82 76.58C113.86 76.97 114.13 77.31 114.62 77.61C114.67 77.62 114.72 77.65 114.77 77.68C114.93 77.75 115.09 77.8 115.24 77.85C115.3 77.87 115.36 77.88 115.41 77.9C115.46 77.92 115.51 77.93 115.58 77.95C116.92 78.32 118.3 78.64 119.72 78.88C120.98 79.08 122.27 79.21 123.59 79.3C129.33 79.7 133.94 78.91 137.42 76.89C139.31 75.8 140.52 74.57 141.04 73.22C141.21 72.73 141.3 72.23 141.34 71.72C141.34 71.71 141.34 71.63 141.34 71.62C141.32 70.92 141.17 70.19 140.87 69.44C139.7 66.47 136.82 63.69 132.25 61.11C132.2 61.08 132.14 61.04 132.07 61.01C132.01 60.98 131.93 60.94 131.85 60.89C131.83 60.88 131.68 60.78 131.66 60.77C130.41 60.08 129.69 59.68 129.47 59.56C125.24 57.36 120.69 55.96 115.8 55.35C110.42 54.68 106 55.35 102.52 57.36Z" id="b1jLbc3sE"></path><path d="M187.04 48.51L187.24 48.98L187.39 49.45L187.5 50.55L187.25 51.55L186.65 52.44L185.7 53.23L185.63 53.28L185.55 53.32L185.47 53.37L185.38 53.42L184.49 53.86L183.51 54.21L182.43 54.45L181.27 54.6L181.27 54.45L181.24 54.33L181.2 54.21L181.15 54.1L181.07 53.99L180.98 53.89L180.88 53.8L180.77 53.71L180.65 53.62L181.05 53.56L181.44 53.5L181.81 53.43L182.17 53.35L182.64 53.21L183.09 53.04L183.51 52.85L183.91 52.64L184.23 52.44L184.52 52.24L184.78 52.02L185.02 51.81L185.05 51.76L185.08 51.71L185.11 51.67L185.14 51.63L185.47 51.11L185.66 50.55L185.7 49.95L185.6 49.31L185.53 49.06L185.44 48.82L185.34 48.58L185.21 48.35L186.46 47.61L186.78 48.06L187.04 48.51Z" id="aa7608T6t"></path><path d="M165.48 47.88C164.81 47.87 164.22 47.72 163.72 47.44C163.6 47.38 163.5 47.31 163.42 47.25C163.37 47.2 163.32 47.16 163.27 47.12C163.27 47.12 163.25 47.08 163.25 47.08C163.2 47.01 163.13 46.93 163.05 46.83C162.09 45.61 161.44 44.33 161.12 43.01C161.12 43 161.12 42.98 161.12 42.98C161 42.49 160.94 42.02 160.92 41.56C160.92 41.85 160.9 44.14 160.9 44.43C160.9 44.44 160.9 44.48 160.9 44.53C160.9 44.58 160.9 44.63 160.9 44.67C160.91 45.2 160.99 45.74 161.12 46.32C161.43 47.58 162.02 48.78 162.88 49.94C164.19 49.32 165.48 48.69 166.75 48.03C167.08 47.85 167.41 47.68 167.74 47.52C167.74 47.44 167.74 46.83 167.74 46.76C167.7 47.05 167.51 47.31 167.15 47.52C167.02 47.58 166.89 47.65 166.76 47.71C166.64 47.74 166.52 47.78 166.39 47.81C166.11 47.86 165.81 47.88 165.48 47.88Z" id="b3QQpz0CLm"></path><path d="M176.46 54.23C176.46 53.92 176.67 53.64 177.07 53.4C177.51 53.14 178.06 53.01 178.72 53.03C179.39 53.05 179.97 53.2 180.46 53.49C180.47 53.49 180.49 53.49 180.51 53.49C180.55 53.53 180.6 53.57 180.65 53.62C181.19 53.55 181.7 53.46 182.17 53.35C183.09 52.82 184.04 52.31 185.02 51.8C185.06 51.74 185.11 51.68 185.14 51.63C185.68 50.96 185.83 50.18 185.6 49.3C185.52 48.97 185.39 48.66 185.21 48.35C177.83 52.2 172.11 56.25 168.08 60.48C168.08 60.48 168.06 60.47 168.03 60.45L168.03 63.79C168.06 63.8 168.08 63.81 168.08 63.81C170.35 61.44 173.14 59.13 176.46 56.87C176.46 56.94 176.46 57.49 176.46 57.56C176.46 57.59 176.46 57.63 176.46 57.66C176.51 58.05 176.78 58.39 177.27 58.69C177.32 58.7 177.37 58.73 177.42 58.76C177.58 58.83 177.73 58.88 177.88 58.93C177.95 58.95 178 58.97 178.05 58.98C180.63 59.73 183.36 60.2 186.24 60.38C191.97 60.79 196.58 59.99 200.06 57.98C202.53 56.56 203.83 54.9 203.96 53C203.97 52.8 203.97 52.61 203.96 52.41C203.96 52.12 203.98 49.77 203.98 49.47C203.95 49.98 203.85 50.48 203.69 50.97C203.17 52.32 201.96 53.55 200.06 54.64C196.58 56.65 191.97 57.45 186.24 57.05C184.92 56.96 183.62 56.82 182.37 56.63C180.94 56.38 179.56 56.07 178.22 55.7C178.16 55.68 178.1 55.67 178.05 55.65C178 55.63 177.95 55.62 177.88 55.6C177.73 55.55 177.58 55.49 177.42 55.43C177.37 55.4 177.32 55.37 177.27 55.36C176.78 55.06 176.51 54.72 176.46 54.33C176.46 54.3 176.46 54.26 176.46 54.23Z" id="ahmIbl2VF"></path><path d="M174.13 42.88C171.7 42.7 169.75 43.04 168.28 43.89C167.51 44.33 166.99 44.86 166.71 45.48C166.76 45.5 166.81 45.52 166.88 45.56C166.9 45.57 166.91 45.59 166.93 45.6C167.43 45.88 167.7 46.2 167.74 46.56C167.74 46.56 167.74 46.58 167.74 46.58C167.74 46.63 167.74 46.69 167.74 46.76C167.74 46.83 167.74 47.44 167.74 47.52C167.92 47.42 168.1 47.32 168.28 47.22C168.39 47.16 168.51 47.09 168.64 47.03C171.01 45.75 173.31 44.42 175.53 43.03C175.06 42.97 174.59 42.92 174.13 42.88Z" id="h19h5IWOoe"></path><path d="M154.01 57.17L168.03 63.79L168.03 60.46L153.99 53.81L154.01 57.17Z" id="fgEsX5Vim"></path><path d="M165.16 35.11C162.45 36.68 161.04 38.63 160.92 40.95C160.91 41.11 160.91 41.28 160.92 41.46C160.92 41.47 160.92 41.55 160.92 41.56C160.94 42.02 161.01 42.49 161.12 42.98C161.12 42.98 161.12 43 161.12 43.01C161.45 44.33 162.09 45.6 163.06 46.83C163.14 46.93 163.2 47.01 163.25 47.07C163.25 47.08 163.27 47.12 163.28 47.12C163.33 47.15 163.38 47.2 163.42 47.24C163.5 47.31 163.6 47.38 163.72 47.44C164.23 47.72 164.81 47.86 165.48 47.88C165.81 47.88 166.11 47.86 166.39 47.81C166.52 47.77 166.64 47.74 166.76 47.71C166.89 47.64 167.02 47.58 167.15 47.51C167.51 47.3 167.71 47.05 167.74 46.75C167.74 46.69 167.74 46.63 167.74 46.58C167.74 46.58 167.74 46.56 167.74 46.55C167.71 46.19 167.44 45.88 166.93 45.6C166.91 45.58 166.9 45.57 166.88 45.55C166.82 45.52 166.76 45.49 166.71 45.48C166.25 45.26 165.75 45.15 165.19 45.13C165.16 45.13 165.13 45.13 165.11 45.13C165.44 44.38 166.1 43.73 167.08 43.17C168.82 42.16 171.14 41.75 174.01 41.95C174.94 42.01 175.86 42.14 176.76 42.31C176.64 42.39 175.66 42.96 175.53 43.03C173.31 44.42 171.01 45.75 168.64 47.02C168.51 47.09 168.39 47.15 168.28 47.22C168.1 47.32 167.92 47.41 167.74 47.51C167.41 47.68 167.08 47.85 166.76 48.03C165.48 48.68 164.19 49.32 162.88 49.94C160.02 51.3 157.06 52.59 153.99 53.81C154.92 54.25 159.6 56.47 168.03 60.45C168.06 60.47 168.08 60.48 168.08 60.48C172.11 56.25 177.83 52.2 185.21 48.35C185.34 48.27 186.34 47.68 186.46 47.61C186.92 48.2 187.23 48.81 187.39 49.45C187.77 50.99 187.2 52.24 185.7 53.22C185.6 53.29 185.5 53.35 185.38 53.42C184.26 54.07 182.88 54.47 181.27 54.6C181.27 54.56 181.27 54.53 181.27 54.5C181.27 54.49 181.27 54.45 181.27 54.45C181.25 54.29 181.18 54.13 181.07 53.98C180.95 53.85 180.82 53.73 180.65 53.62C180.6 53.57 180.55 53.53 180.51 53.49C180.49 53.49 180.47 53.49 180.46 53.49C179.97 53.2 179.39 53.04 178.72 53.03C178.06 53.01 177.52 53.13 177.07 53.39C176.67 53.64 176.46 53.92 176.46 54.23C176.46 54.26 176.46 54.29 176.46 54.33C176.51 54.72 176.78 55.06 177.27 55.36C177.32 55.37 177.37 55.4 177.42 55.43C177.58 55.49 177.74 55.55 177.88 55.6C177.95 55.62 178.01 55.63 178.05 55.65C178.1 55.67 178.16 55.68 178.22 55.7C179.57 56.07 180.95 56.38 182.37 56.63C183.62 56.82 184.92 56.96 186.24 57.05C191.97 57.45 196.58 56.65 200.06 54.64C201.96 53.55 203.17 52.32 203.69 50.97C203.85 50.48 203.95 49.98 203.99 49.47C203.99 49.46 203.99 49.38 203.99 49.37C203.97 48.67 203.81 47.94 203.52 47.19C202.34 44.22 199.47 41.44 194.89 38.86C194.84 38.83 194.79 38.79 194.72 38.76C194.66 38.73 194.58 38.68 194.5 38.64C194.48 38.62 194.32 38.53 194.3 38.51C193.06 37.83 192.33 37.43 192.12 37.31C187.89 35.11 183.33 33.71 178.45 33.1C173.07 32.43 168.64 33.1 165.16 35.11Z" id="c2VJu9DjMi"></path></defs><g><g><g><g><use xlink:href="#a1RksTIyPX" opacity="1" fill="#918778" fill-opacity="1"></use><g><use xlink:href="#a1RksTIyPX" opacity="1" fill-opacity="0" stroke="#000000" stroke-width="1" stroke-opacity="0"></use></g></g><g><use xlink:href="#a1plecTYRz" opacity="1" fill="#c6c1b7" fill-opacity="1"></use><g><use xlink:href="#a1plecTYRz" opacity="1" fill-opacity="0" stroke="#000000" stroke-width="1" stroke-opacity="0"></use></g></g><g><use xlink:href="#chPsjOgkM" opacity="1" fill="#b4ada3" fill-opacity="1"></use><g><use xlink:href="#chPsjOgkM" opacity="1" fill-opacity="0" stroke="#000000" stroke-width="1" stroke-opacity="0"></use></g></g><g><use xlink:href="#b1kqDYtAhg" opacity="1" fill="#706b60" fill-opacity="1"></use><g><use xlink:href="#b1kqDYtAhg" opacity="1" fill-opacity="0" stroke="#000000" stroke-width="1" stroke-opacity="0"></use></g></g><g><use xlink:href="#g3DH63wt9F" opacity="1" fill="#c8c4bb" fill-opacity="1"></use><g><use xlink:href="#g3DH63wt9F" opacity="1" fill-opacity="0" stroke="#000000" stroke-width="1" stroke-opacity="0"></use></g></g><g><use xlink:href="#b1jLbc3sE" opacity="1" fill="#f7f1e6" fill-opacity="1"></use><g><use xlink:href="#b1jLbc3sE" opacity="1" fill-opacity="0" stroke="#000000" stroke-width="1" stroke-opacity="0"></use></g></g></g><g><g><use xlink:href="#aa7608T6t" opacity="1" fill="#918778" fill-opacity="1"></use><g><use xlink:href="#aa7608T6t" opacity="1" fill-opacity="0" stroke="#000000" stroke-width="1" stroke-opacity="0"></use></g></g><g><use xlink:href="#b3QQpz0CLm" opacity="1" fill="#c6c1b7" fill-opacity="1"></use><g><use xlink:href="#b3QQpz0CLm" opacity="1" fill-opacity="0" stroke="#000000" stroke-width="1" stroke-opacity="0"></use></g></g><g><use xlink:href="#ahmIbl2VF" opacity="1" fill="#b4ada3" fill-opacity="1"></use><g><use xlink:href="#ahmIbl2VF" opacity="1" fill-opacity="0" stroke="#000000" stroke-width="1" stroke-opacity="0"></use></g></g><g><use xlink:href="#h19h5IWOoe" opacity="1" fill="#706b60" fill-opacity="1"></use><g><use xlink:href="#h19h5IWOoe" opacity="1" fill-opacity="0" stroke="#000000" stroke-width="1" stroke-opacity="0"></use></g></g><g><use xlink:href="#fgEsX5Vim" opacity="1" fill="#c8c4bb" fill-opacity="1"></use><g><use xlink:href="#fgEsX5Vim" opacity="1" fill-opacity="0" stroke="#000000" stroke-width="1" stroke-opacity="0"></use></g></g><g><use xlink:href="#c2VJu9DjMi" opacity="1" fill="#f7f1e6" fill-opacity="1"></use><g><use xlink:href="#c2VJu9DjMi" opacity="1" fill-opacity="0" stroke="#000000" stroke-width="1" stroke-opacity="0"></use></g></g></g></g></g></svg>