<?xml version="1.0" encoding="UTF-8" standalone="no"?>
<!DOCTYPE svg PUBLIC "-//W3C//DTD SVG 1.1//EN" "http://www.w3.org/Graphics/SVG/1.1/DTD/svg11.dtd">
<svg version="1.1" xmlns="http://www.w3.org/2000/svg" xmlns:xlink="http://www.w3.org/1999/xlink" preserveAspectRatio="xMidYMid meet" viewBox="0 0 300 150" width="300" height="150"><defs><path d="M150.09 117.94L150.82 118.08L151.52 118.27L152.17 118.53L152.78 118.83L153.31 119.17L153.74 119.53L154.09 119.92L154.33 120.33L154.48 120.76L154.54 121.21L154.53 121.48L154.51 121.6L154.49 121.71L154.47 121.83L154.43 121.94L154.39 122.05L154.35 122.17L154.19 122.45L153.99 122.72L153.75 122.99L153.46 123.24L153.12 123.49L152.74 123.72L152.12 124.04L151.46 124.29L150.76 124.49L150.02 124.63L149.24 124.72L148.42 124.74L147.6 124.72L146.83 124.64L146.09 124.5L145.4 124.3L144.74 124.05L144.13 123.74L143.76 123.51L143.44 123.27L143.15 123.03L142.92 122.77L142.72 122.5L142.57 122.21L142.52 122.08L142.47 121.95L142.43 121.81L142.41 121.67L142.39 121.53L142.38 121.39L142.38 121.29L142.43 120.83L142.59 120.38L142.84 119.97L143.19 119.57L143.64 119.2L144.19 118.84L144.81 118.53L145.46 118.28L146.16 118.08L146.9 117.94L147.68 117.85L148.49 117.83L149.31 117.85L150.09 117.94ZM147.14 119.45L146.55 119.63L146 119.89L145.98 119.9L145.95 119.92L145.93 119.93L145.9 119.95L145.49 120.24L145.2 120.57L145.01 120.91L144.94 121.29L144.96 121.48L145 121.66L145.08 121.84L145.18 122.01L145.21 122.05L145.24 122.09L145.27 122.14L145.3 122.18L145.44 122.31L145.6 122.44L145.78 122.57L145.98 122.69L146.51 122.95L147.1 123.13L147.74 123.23L148.43 123.27L149.13 123.23L149.78 123.13L150.37 122.95L150.92 122.69L151.13 122.56L151.32 122.43L151.48 122.28L151.62 122.13L151.65 122.09L151.68 122.05L151.71 122.01L151.74 121.97L151.83 121.81L151.9 121.63L151.93 121.46L151.95 121.28L151.9 120.9L151.73 120.54L151.45 120.22L151.05 119.92L151.02 119.91L150.99 119.9L150.96 119.88L150.94 119.86L150.4 119.61L149.81 119.44L149.17 119.33L148.47 119.3L147.78 119.34L147.14 119.45Z" id="b4JvxMgZZe"></path><path d="M149.81 119.44L150.4 119.61L150.94 119.87L150.96 119.88L150.99 119.9L151.02 119.91L151.05 119.93L151.45 120.22L151.73 120.55L151.9 120.9L151.95 121.28L151.93 121.46L151.9 121.63L151.83 121.81L151.74 121.98L151.71 122.01L151.68 122.05L151.65 122.09L151.62 122.13L151.5 122.01L151.37 121.89L151.21 121.77L151.05 121.66L151.02 121.65L150.99 121.63L150.96 121.62L150.94 121.6L150.4 121.35L149.81 121.17L149.17 121.06L148.47 121.03L147.78 121.07L147.14 121.18L146.54 121.37L146 121.63L145.98 121.64L145.95 121.66L145.93 121.67L145.9 121.69L145.73 121.8L145.57 121.92L145.43 122.05L145.3 122.18L145.27 122.14L145.24 122.1L145.21 122.05L145.18 122.01L145.08 121.84L145 121.66L144.96 121.48L144.94 121.29L145.01 120.92L145.2 120.57L145.49 120.24L145.9 119.95L145.93 119.94L145.95 119.92L145.98 119.91L146 119.89L146.54 119.63L147.14 119.45L147.78 119.34L148.47 119.3L149.17 119.33L149.81 119.44Z" id="a3gLGWMX9p"></path><path d="M153.53 111.6L153.56 111.74L153.6 111.88L153.64 112.01L153.7 112.14L153.85 112.43L154.04 112.7L154.28 112.96L154.56 113.2L154.89 113.44L155.26 113.67L155.87 113.98L156.52 114.23L157.22 114.43L157.95 114.57L158.73 114.65L159.55 114.67L160.37 114.65L161.15 114.56L161.89 114.42L162.59 114.22L163.25 113.97L163.87 113.65L164.25 113.42L164.58 113.17L164.87 112.92L165.12 112.65L165.32 112.38L165.47 112.1L165.52 111.98L165.56 111.87L165.6 111.76L165.62 111.64L165.64 111.53L165.65 111.41L165.67 113.09L165.59 113.54L165.43 113.96L165.18 114.36L164.83 114.74L164.4 115.1L163.87 115.44L163.25 115.75L162.59 116.01L161.89 116.21L161.15 116.35L160.37 116.43L159.55 116.46L158.73 116.44L157.95 116.35L157.22 116.22L156.52 116.02L155.87 115.77L155.26 115.46L154.72 115.12L154.28 114.75L153.94 114.36L153.7 113.94L153.55 113.49L153.51 113.02L153.51 111.32L153.51 111.46L153.53 111.6Z" id="aurrSVWrj"></path><path d="M161.22 107.87L161.95 108.01L162.64 108.2L163.29 108.45L163.9 108.76L164.44 109.1L164.87 109.46L165.21 109.85L165.46 110.25L165.61 110.68L165.67 111.14L165.65 111.41L165.64 111.53L165.62 111.64L165.6 111.76L165.56 111.87L165.52 111.98L165.47 112.1L165.32 112.38L165.12 112.65L164.87 112.92L164.58 113.17L164.25 113.42L163.87 113.65L163.25 113.97L162.59 114.22L161.89 114.42L161.15 114.56L160.37 114.64L159.55 114.67L158.73 114.65L157.95 114.57L157.22 114.43L156.52 114.23L155.87 113.98L155.26 113.67L154.89 113.44L154.56 113.2L154.28 112.96L154.04 112.7L153.85 112.42L153.7 112.14L153.64 112.01L153.6 111.87L153.56 111.74L153.53 111.6L153.51 111.46L153.51 111.32L153.51 111.22L153.56 110.76L153.71 110.31L153.97 109.89L154.32 109.5L154.77 109.13L155.32 108.77L155.93 108.46L156.59 108.21L157.29 108.01L158.02 107.87L158.8 107.78L159.62 107.76L160.44 107.78L161.22 107.87ZM158.27 109.38L157.67 109.56L157.13 109.82L157.1 109.83L157.08 109.85L157.06 109.86L157.03 109.88L156.62 110.17L156.32 110.5L156.14 110.84L156.07 111.22L156.09 111.41L156.13 111.59L156.21 111.77L156.31 111.94L156.34 111.98L156.37 112.02L156.4 112.07L156.43 112.11L156.57 112.24L156.73 112.37L156.9 112.5L157.1 112.62L157.64 112.87L158.23 113.05L158.87 113.16L159.56 113.2L160.26 113.16L160.91 113.05L161.5 112.87L162.04 112.62L162.25 112.49L162.44 112.36L162.61 112.21L162.75 112.06L162.78 112.02L162.81 111.98L162.84 111.94L162.87 111.9L162.96 111.73L163.02 111.56L163.06 111.39L163.08 111.21L163.02 110.83L162.86 110.47L162.57 110.15L162.18 109.85L162.15 109.84L162.12 109.83L162.09 109.81L162.07 109.79L161.53 109.54L160.94 109.36L160.3 109.26L159.6 109.23L158.91 109.27L158.27 109.38Z" id="aZVfcWaGO"></path><path d="M160.25 122.06L160.27 122.19L160.31 122.33L160.36 122.47L160.41 122.6L160.56 122.88L160.76 123.15L160.99 123.41L161.28 123.66L161.6 123.9L161.97 124.12L162.58 124.43L163.24 124.69L163.93 124.88L164.67 125.02L165.45 125.1L166.26 125.13L167.08 125.1L167.86 125.02L168.6 124.87L169.3 124.68L169.96 124.42L170.58 124.11L170.96 123.87L171.3 123.63L171.59 123.37L171.83 123.11L172.03 122.83L172.19 122.55L172.24 122.44L172.28 122.33L172.31 122.21L172.34 122.1L172.36 121.98L172.37 121.87L172.38 123.55L172.31 123.99L172.15 124.41L171.89 124.82L171.55 125.2L171.11 125.56L170.58 125.9L169.96 126.21L169.3 126.46L168.6 126.66L167.86 126.8L167.08 126.89L166.26 126.92L165.45 126.89L164.67 126.81L163.93 126.67L163.24 126.48L162.58 126.23L161.97 125.92L161.43 125.58L160.99 125.21L160.65 124.81L160.41 124.39L160.27 123.95L160.22 123.47L160.22 121.77L160.23 121.91L160.25 122.06Z" id="axsHQ62Gv"></path><path d="M167.93 118.32L168.67 118.46L169.36 118.66L170.01 118.91L170.62 119.22L171.15 119.56L171.59 119.92L171.93 120.3L172.17 120.71L172.32 121.14L172.38 121.59L172.37 121.87L172.36 121.98L172.34 122.1L172.31 122.21L172.28 122.33L172.24 122.44L172.19 122.55L172.03 122.83L171.83 123.11L171.59 123.37L171.3 123.63L170.96 123.87L170.58 124.11L169.96 124.42L169.3 124.68L168.6 124.87L167.86 125.01L167.09 125.1L166.27 125.13L165.45 125.1L164.67 125.02L163.93 124.88L163.24 124.69L162.58 124.43L161.97 124.12L161.6 123.9L161.28 123.66L161 123.41L160.76 123.15L160.56 122.88L160.41 122.6L160.36 122.46L160.31 122.33L160.28 122.19L160.25 122.05L160.23 121.91L160.22 121.77L160.22 121.67L160.28 121.21L160.43 120.77L160.68 120.35L161.03 119.95L161.48 119.58L162.03 119.23L162.65 118.92L163.3 118.66L164 118.46L164.74 118.32L165.52 118.24L166.34 118.21L167.16 118.24L167.93 118.32ZM164.98 119.83L164.39 120.02L163.84 120.27L163.82 120.29L163.79 120.31L163.77 120.32L163.75 120.33L163.34 120.63L163.04 120.95L162.86 121.3L162.79 121.68L162.8 121.86L162.85 122.05L162.92 122.22L163.03 122.39L163.05 122.44L163.08 122.48L163.11 122.52L163.15 122.56L163.28 122.69L163.44 122.82L163.62 122.95L163.82 123.08L164.35 123.33L164.94 123.51L165.58 123.62L166.28 123.65L166.98 123.62L167.62 123.51L168.22 123.33L168.76 123.08L168.97 122.95L169.16 122.81L169.32 122.67L169.47 122.51L169.5 122.47L169.53 122.43L169.56 122.4L169.59 122.36L169.68 122.19L169.74 122.02L169.78 121.84L169.79 121.66L169.74 121.28L169.57 120.93L169.29 120.6L168.89 120.31L168.86 120.3L168.83 120.28L168.81 120.27L168.78 120.25L168.25 120L167.66 119.82L167.01 119.72L166.31 119.69L165.62 119.72L164.98 119.83Z" id="b1jk4ZG9S1"></path><path d="M107.02 53.24L107.76 53.38L108.45 53.57L109.1 53.83L109.71 54.13L110.24 54.47L110.68 54.83L111.02 55.22L111.26 55.63L111.42 56.06L111.47 56.51L111.46 56.78L111.45 56.9L111.43 57.01L111.4 57.13L111.37 57.24L111.33 57.35L111.28 57.47L111.12 57.75L110.92 58.02L110.68 58.29L110.39 58.54L110.05 58.79L109.67 59.02L109.05 59.34L108.39 59.59L107.69 59.79L106.95 59.93L106.18 60.02L105.36 60.04L104.54 60.02L103.76 59.94L103.02 59.8L102.33 59.6L101.68 59.35L101.06 59.04L100.69 58.81L100.37 58.57L100.09 58.33L99.85 58.07L99.65 57.8L99.5 57.51L99.45 57.38L99.4 57.25L99.37 57.11L99.34 56.97L99.32 56.83L99.31 56.69L99.31 56.59L99.37 56.13L99.52 55.68L99.77 55.27L100.12 54.87L100.57 54.5L101.12 54.14L101.74 53.83L102.39 53.58L103.09 53.38L103.83 53.24L104.61 53.15L105.43 53.13L106.25 53.15L107.02 53.24ZM104.07 54.75L103.48 54.93L102.93 55.19L102.91 55.2L102.88 55.22L102.86 55.23L102.84 55.25L102.43 55.54L102.13 55.86L101.95 56.21L101.88 56.59L101.89 56.78L101.94 56.96L102.01 57.14L102.12 57.31L102.14 57.35L102.17 57.39L102.2 57.44L102.24 57.48L102.37 57.61L102.53 57.74L102.71 57.87L102.91 57.99L103.44 58.25L104.03 58.43L104.67 58.53L105.37 58.57L106.07 58.53L106.71 58.43L107.31 58.25L107.85 57.99L108.06 57.86L108.25 57.73L108.41 57.58L108.56 57.43L108.59 57.39L108.62 57.35L108.65 57.31L108.68 57.27L108.77 57.1L108.83 56.93L108.87 56.76L108.88 56.58L108.83 56.2L108.66 55.84L108.38 55.52L107.98 55.22L107.95 55.21L107.92 55.2L107.9 55.18L107.87 55.16L107.34 54.91L106.75 54.74L106.1 54.63L105.4 54.6L104.71 54.64L104.07 54.75Z" id="bwI0DoeCk"></path><path d="M106.75 54.74L107.34 54.91L107.87 55.17L107.9 55.18L107.92 55.2L107.95 55.21L107.98 55.23L108.38 55.52L108.66 55.85L108.83 56.2L108.88 56.58L108.87 56.76L108.83 56.93L108.77 57.11L108.68 57.28L108.65 57.31L108.62 57.35L108.59 57.39L108.56 57.43L108.43 57.31L108.3 57.19L108.15 57.07L107.98 56.96L107.95 56.95L107.92 56.93L107.9 56.92L107.87 56.9L107.34 56.65L106.74 56.47L106.1 56.36L105.4 56.33L104.71 56.37L104.07 56.48L103.48 56.67L102.93 56.93L102.91 56.94L102.88 56.95L102.86 56.97L102.84 56.99L102.66 57.1L102.5 57.22L102.36 57.35L102.24 57.48L102.2 57.44L102.17 57.4L102.14 57.35L102.12 57.31L102.01 57.14L101.94 56.96L101.89 56.78L101.88 56.59L101.95 56.22L102.13 55.87L102.42 55.54L102.84 55.25L102.86 55.24L102.88 55.22L102.91 55.21L102.93 55.19L103.48 54.93L104.07 54.75L104.71 54.64L105.4 54.6L106.1 54.63L106.75 54.74Z" id="a3SKJn7Btn"></path><path d="M110.46 46.9L110.49 47.04L110.53 47.18L110.57 47.31L110.63 47.44L110.78 47.73L110.97 48L111.21 48.26L111.49 48.5L111.82 48.74L112.19 48.97L112.8 49.28L113.45 49.53L114.15 49.73L114.89 49.87L115.66 49.95L116.48 49.97L117.3 49.95L118.08 49.86L118.82 49.72L119.52 49.52L120.18 49.27L120.8 48.95L121.18 48.72L121.51 48.47L121.81 48.22L122.05 47.95L122.25 47.68L122.4 47.4L122.45 47.28L122.49 47.17L122.53 47.06L122.55 46.94L122.57 46.83L122.59 46.71L122.6 48.39L122.53 48.84L122.37 49.26L122.11 49.66L121.77 50.04L121.33 50.4L120.8 50.74L120.18 51.05L119.52 51.31L118.82 51.51L118.08 51.65L117.3 51.73L116.48 51.76L115.66 51.74L114.89 51.65L114.15 51.52L113.45 51.32L112.8 51.07L112.19 50.76L111.65 50.42L111.21 50.05L110.87 49.66L110.63 49.24L110.48 48.79L110.44 48.32L110.44 46.62L110.45 46.76L110.46 46.9Z" id="dI43ilZkJ"></path><path d="M118.15 43.17L118.88 43.31L119.58 43.5L120.23 43.75L120.84 44.06L121.37 44.4L121.8 44.76L122.15 45.15L122.39 45.55L122.54 45.98L122.6 46.44L122.59 46.71L122.57 46.83L122.55 46.94L122.53 47.06L122.49 47.17L122.45 47.28L122.41 47.39L122.25 47.68L122.05 47.95L121.81 48.22L121.52 48.47L121.18 48.72L120.8 48.95L120.18 49.27L119.52 49.52L118.82 49.72L118.08 49.86L117.3 49.94L116.48 49.97L115.66 49.95L114.89 49.87L114.15 49.73L113.45 49.53L112.8 49.28L112.19 48.97L111.82 48.74L111.49 48.5L111.21 48.25L110.97 48L110.78 47.72L110.63 47.44L110.58 47.31L110.53 47.17L110.49 47.04L110.47 46.9L110.45 46.76L110.44 46.62L110.44 46.52L110.49 46.06L110.65 45.61L110.9 45.19L111.25 44.8L111.7 44.42L112.25 44.07L112.87 43.76L113.52 43.51L114.22 43.31L114.96 43.17L115.74 43.08L116.55 43.05L117.37 43.08L118.15 43.17ZM115.2 44.68L114.61 44.86L114.06 45.12L114.04 45.13L114.01 45.15L113.99 45.16L113.96 45.18L113.55 45.47L113.26 45.79L113.07 46.14L113 46.52L113.02 46.71L113.06 46.89L113.14 47.07L113.24 47.24L113.27 47.28L113.3 47.32L113.33 47.37L113.36 47.41L113.5 47.54L113.66 47.67L113.84 47.8L114.04 47.92L114.57 48.17L115.16 48.35L115.8 48.46L116.49 48.5L117.19 48.46L117.84 48.35L118.43 48.17L118.98 47.92L119.19 47.79L119.38 47.66L119.54 47.51L119.68 47.36L119.71 47.32L119.74 47.28L119.77 47.24L119.8 47.2L119.89 47.03L119.96 46.86L119.99 46.69L120.01 46.51L119.96 46.13L119.79 45.77L119.51 45.45L119.11 45.15L119.08 45.14L119.05 45.13L119.02 45.11L119 45.09L118.46 44.84L117.87 44.66L117.23 44.56L116.53 44.53L115.84 44.57L115.2 44.68Z" id="bUVBZ4Yxv"></path><path d="M117.18 57.35L117.21 57.49L117.24 57.63L117.29 57.77L117.34 57.9L117.49 58.18L117.69 58.45L117.93 58.71L118.21 58.96L118.53 59.2L118.9 59.42L119.52 59.73L120.17 59.99L120.86 60.18L121.6 60.32L122.38 60.4L123.2 60.43L124.02 60.4L124.79 60.32L125.53 60.17L126.23 59.98L126.89 59.72L127.51 59.41L127.89 59.17L128.23 58.93L128.52 58.67L128.77 58.41L128.97 58.13L129.12 57.85L129.17 57.74L129.21 57.63L129.24 57.51L129.27 57.4L129.29 57.28L129.3 57.17L129.31 58.85L129.24 59.29L129.08 59.71L128.83 60.12L128.48 60.5L128.04 60.86L127.51 61.2L126.89 61.51L126.23 61.76L125.54 61.96L124.8 62.1L124.02 62.19L123.2 62.21L122.38 62.19L121.6 62.11L120.86 61.97L120.17 61.78L119.52 61.53L118.9 61.22L118.37 60.88L117.93 60.51L117.58 60.11L117.34 59.69L117.2 59.24L117.15 58.77L117.15 57.07L117.16 57.21L117.18 57.35Z" id="b5omdat10T"></path><path d="M124.86 53.62L125.6 53.76L126.29 53.96L126.94 54.21L127.55 54.52L128.08 54.86L128.52 55.22L128.86 55.6L129.11 56.01L129.26 56.44L129.31 56.89L129.3 57.17L129.29 57.28L129.27 57.4L129.24 57.51L129.21 57.62L129.17 57.74L129.12 57.85L128.97 58.13L128.77 58.41L128.52 58.67L128.23 58.93L127.9 59.17L127.51 59.41L126.9 59.72L126.24 59.97L125.54 60.17L124.8 60.31L124.02 60.4L123.2 60.43L122.38 60.4L121.6 60.32L120.87 60.18L120.17 59.99L119.52 59.73L118.9 59.42L118.54 59.19L118.21 58.96L117.93 58.71L117.69 58.45L117.5 58.18L117.35 57.9L117.29 57.76L117.25 57.63L117.21 57.49L117.18 57.35L117.16 57.21L117.15 57.07L117.15 56.97L117.21 56.51L117.36 56.07L117.61 55.65L117.96 55.25L118.41 54.88L118.96 54.53L119.58 54.22L120.24 53.96L120.93 53.76L121.67 53.62L122.45 53.54L123.27 53.51L124.09 53.54L124.86 53.62ZM121.91 55.13L121.32 55.32L120.77 55.57L120.75 55.59L120.73 55.61L120.7 55.62L120.68 55.63L120.27 55.93L119.97 56.25L119.79 56.6L119.72 56.98L119.73 57.16L119.78 57.35L119.85 57.52L119.96 57.69L119.99 57.74L120.01 57.78L120.04 57.82L120.08 57.86L120.22 57.99L120.37 58.12L120.55 58.25L120.75 58.38L121.29 58.63L121.88 58.81L122.52 58.92L123.21 58.95L123.91 58.92L124.56 58.81L125.15 58.63L125.69 58.38L125.9 58.25L126.09 58.11L126.26 57.97L126.4 57.81L126.43 57.77L126.46 57.73L126.49 57.7L126.52 57.66L126.61 57.49L126.67 57.32L126.71 57.14L126.72 56.96L126.67 56.58L126.5 56.23L126.22 55.9L125.82 55.61L125.79 55.6L125.77 55.58L125.74 55.57L125.72 55.55L125.18 55.3L124.59 55.12L123.94 55.02L123.25 54.99L122.56 55.02L121.91 55.13Z" id="d16EMAvhf7"></path><path d="M212.74 116.91L213.47 117.05L214.16 117.25L214.81 117.5L215.42 117.81L215.95 118.15L216.39 118.51L216.73 118.89L216.98 119.3L217.13 119.73L217.18 120.18L217.17 120.46L217.16 120.57L217.14 120.69L217.12 120.8L217.08 120.91L217.04 121.03L216.99 121.14L216.84 121.42L216.64 121.7L216.39 121.96L216.1 122.22L215.77 122.46L215.39 122.7L214.77 123.01L214.11 123.26L213.41 123.46L212.67 123.6L211.89 123.69L211.07 123.72L210.25 123.69L209.47 123.61L208.74 123.47L208.04 123.27L207.39 123.02L206.78 122.71L206.41 122.48L206.08 122.25L205.8 122L205.56 121.74L205.37 121.47L205.22 121.19L205.16 121.05L205.12 120.92L205.08 120.78L205.05 120.64L205.04 120.5L205.03 120.36L205.03 120.26L205.08 119.8L205.23 119.36L205.49 118.94L205.84 118.54L206.29 118.17L206.84 117.82L207.45 117.51L208.11 117.25L208.81 117.05L209.54 116.91L210.32 116.83L211.14 116.8L211.96 116.83L212.74 116.91ZM209.79 118.42L209.19 118.6L208.65 118.86L208.62 118.88L208.6 118.89L208.57 118.91L208.55 118.92L208.14 119.22L207.84 119.54L207.66 119.89L207.59 120.26L207.61 120.45L207.65 120.64L207.73 120.81L207.83 120.98L207.86 121.02L207.88 121.07L207.92 121.11L207.95 121.15L208.09 121.28L208.25 121.41L208.42 121.54L208.62 121.67L209.16 121.92L209.75 122.1L210.39 122.21L211.08 122.24L211.78 122.21L212.43 122.1L213.02 121.92L213.56 121.67L213.77 121.54L213.96 121.4L214.13 121.26L214.27 121.1L214.3 121.06L214.33 121.02L214.36 120.98L214.39 120.95L214.48 120.78L214.54 120.61L214.58 120.43L214.59 120.25L214.54 119.87L214.38 119.52L214.09 119.19L213.69 118.9L213.67 118.89L213.64 118.87L213.61 118.86L213.59 118.84L213.05 118.59L212.46 118.41L211.82 118.3L211.12 118.27L210.43 118.31L209.79 118.42Z" id="ao6peqnf0"></path><path d="M212.46 118.41L213.05 118.59L213.59 118.84L213.61 118.86L213.64 118.87L213.67 118.89L213.69 118.9L214.09 119.19L214.38 119.52L214.54 119.87L214.59 120.25L214.58 120.43L214.54 120.61L214.48 120.78L214.39 120.95L214.36 120.99L214.33 121.02L214.3 121.06L214.27 121.11L214.15 120.98L214.01 120.86L213.86 120.75L213.69 120.64L213.67 120.62L213.64 120.6L213.61 120.59L213.59 120.58L213.05 120.32L212.46 120.14L211.81 120.03L211.12 120L210.43 120.04L209.78 120.15L209.19 120.34L208.65 120.6L208.62 120.61L208.6 120.63L208.57 120.64L208.55 120.66L208.37 120.77L208.21 120.89L208.07 121.02L207.95 121.15L207.92 121.11L207.88 121.07L207.86 121.03L207.83 120.98L207.73 120.81L207.65 120.64L207.61 120.45L207.59 120.27L207.66 119.89L207.84 119.54L208.14 119.22L208.55 118.92L208.57 118.91L208.6 118.9L208.62 118.88L208.65 118.86L209.19 118.61L209.78 118.42L210.43 118.31L211.12 118.28L211.81 118.31L212.46 118.41Z" id="b7YK4iT4PG"></path><path d="M216.18 110.57L216.21 110.71L216.24 110.85L216.29 110.98L216.34 111.12L216.49 111.4L216.69 111.67L216.93 111.93L217.21 112.18L217.53 112.41L217.9 112.64L218.51 112.95L219.17 113.2L219.86 113.4L220.6 113.54L221.38 113.62L222.2 113.65L223.01 113.62L223.79 113.53L224.53 113.39L225.23 113.19L225.89 112.94L226.51 112.63L226.89 112.39L227.23 112.15L227.52 111.89L227.76 111.63L227.96 111.35L228.12 111.07L228.17 110.96L228.21 110.84L228.24 110.73L228.27 110.62L228.29 110.5L228.3 110.39L228.31 112.06L228.24 112.51L228.08 112.93L227.83 113.33L227.48 113.72L227.04 114.08L226.51 114.41L225.89 114.73L225.23 114.98L224.53 115.18L223.79 115.32L223.02 115.4L222.2 115.43L221.38 115.41L220.6 115.33L219.86 115.19L219.17 115L218.52 114.75L217.9 114.44L217.37 114.09L216.93 113.72L216.58 113.33L216.34 112.91L216.2 112.46L216.15 111.99L216.15 110.29L216.16 110.43L216.18 110.57Z" id="d1EbO5TyOG"></path><path d="M223.86 106.84L224.6 106.98L225.29 107.18L225.94 107.43L226.55 107.73L227.08 108.07L227.52 108.44L227.86 108.82L228.11 109.23L228.26 109.66L228.31 110.11L228.3 110.39L228.29 110.5L228.27 110.62L228.24 110.73L228.21 110.84L228.17 110.96L228.12 111.07L227.97 111.35L227.77 111.63L227.52 111.89L227.23 112.15L226.89 112.39L226.51 112.63L225.89 112.94L225.23 113.19L224.53 113.39L223.79 113.53L223.02 113.62L222.2 113.65L221.38 113.62L220.6 113.54L219.86 113.4L219.17 113.2L218.52 112.95L217.9 112.64L217.53 112.41L217.21 112.18L216.93 111.93L216.69 111.67L216.49 111.4L216.34 111.12L216.29 110.98L216.24 110.85L216.21 110.71L216.18 110.57L216.16 110.43L216.15 110.29L216.15 110.19L216.21 109.73L216.36 109.29L216.61 108.87L216.96 108.47L217.41 108.1L217.96 107.75L218.58 107.44L219.24 107.18L219.93 106.98L220.67 106.84L221.45 106.76L222.27 106.73L223.09 106.76L223.86 106.84ZM220.91 108.35L220.32 108.53L219.77 108.79L219.75 108.81L219.73 108.82L219.7 108.84L219.68 108.85L219.27 109.15L218.97 109.47L218.79 109.82L218.72 110.19L218.73 110.38L218.78 110.57L218.85 110.74L218.96 110.91L218.98 110.95L219.01 111L219.04 111.04L219.08 111.08L219.22 111.21L219.37 111.34L219.55 111.47L219.75 111.6L220.29 111.85L220.87 112.03L221.52 112.14L222.21 112.17L222.91 112.14L223.55 112.03L224.15 111.85L224.69 111.6L224.9 111.47L225.09 111.33L225.26 111.18L225.4 111.03L225.43 110.99L225.46 110.95L225.49 110.91L225.52 110.88L225.61 110.71L225.67 110.54L225.71 110.36L225.72 110.18L225.67 109.8L225.5 109.45L225.22 109.12L224.82 108.83L224.79 108.81L224.76 108.8L224.74 108.78L224.71 108.77L224.18 108.52L223.59 108.34L222.94 108.23L222.24 108.2L221.56 108.24L220.91 108.35Z" id="a6k1qQSlMd"></path><path d="M222.89 121.03L222.92 121.17L222.96 121.3L223 121.44L223.06 121.57L223.21 121.85L223.4 122.12L223.64 122.38L223.92 122.63L224.25 122.87L224.62 123.09L225.23 123.41L225.88 123.66L226.58 123.86L227.31 124L228.09 124.08L228.91 124.1L229.73 124.07L230.51 123.99L231.25 123.85L231.95 123.65L232.61 123.39L233.23 123.08L233.61 122.85L233.94 122.6L234.23 122.35L234.48 122.08L234.68 121.81L234.83 121.52L234.88 121.41L234.92 121.3L234.96 121.19L234.98 121.07L235 120.96L235.01 120.84L235.03 122.52L234.96 122.96L234.79 123.39L234.54 123.79L234.2 124.17L233.76 124.53L233.23 124.87L232.61 125.18L231.95 125.44L231.25 125.63L230.51 125.78L229.73 125.86L228.91 125.89L228.09 125.86L227.31 125.78L226.58 125.65L225.88 125.45L225.23 125.2L224.62 124.89L224.08 124.55L223.64 124.18L223.3 123.78L223.06 123.36L222.91 122.92L222.87 122.45L222.87 120.74L222.88 120.89L222.89 121.03Z" id="a50j5JszsP"></path><path d="M230.58 117.3L231.31 117.44L232 117.63L232.66 117.88L233.26 118.19L233.8 118.53L234.23 118.89L234.57 119.28L234.82 119.68L234.97 120.11L235.03 120.56L235.02 120.84L235 120.96L234.99 121.07L234.96 121.18L234.93 121.3L234.88 121.41L234.84 121.52L234.68 121.81L234.48 122.08L234.24 122.35L233.95 122.6L233.61 122.85L233.23 123.08L232.61 123.39L231.95 123.65L231.25 123.85L230.51 123.99L229.73 124.07L228.91 124.1L228.09 124.08L227.32 123.99L226.58 123.86L225.89 123.66L225.23 123.4L224.62 123.09L224.25 122.87L223.92 122.63L223.64 122.38L223.4 122.12L223.21 121.85L223.06 121.57L223.01 121.44L222.96 121.3L222.92 121.17L222.9 121.03L222.88 120.89L222.87 120.74L222.87 120.65L222.92 120.18L223.08 119.74L223.33 119.32L223.68 118.93L224.13 118.55L224.68 118.2L225.29 117.89L225.95 117.64L226.65 117.44L227.39 117.3L228.16 117.21L228.98 117.18L229.8 117.21L230.58 117.3ZM227.63 118.81L227.03 118.99L226.49 119.25L226.47 119.26L226.44 119.28L226.42 119.29L226.39 119.31L225.98 119.6L225.69 119.92L225.5 120.27L225.43 120.65L225.45 120.84L225.49 121.02L225.57 121.2L225.67 121.37L225.7 121.41L225.73 121.45L225.76 121.49L225.79 121.54L225.93 121.67L226.09 121.8L226.27 121.92L226.47 122.05L227 122.3L227.59 122.48L228.23 122.59L228.92 122.63L229.62 122.59L230.27 122.48L230.86 122.3L231.41 122.05L231.62 121.92L231.8 121.78L231.97 121.64L232.11 121.49L232.14 121.45L232.17 121.41L232.2 121.37L232.23 121.33L232.32 121.16L232.39 120.99L232.42 120.81L232.44 120.64L232.39 120.26L232.22 119.9L231.94 119.58L231.54 119.28L231.51 119.27L231.48 119.25L231.45 119.24L231.43 119.22L230.89 118.97L230.3 118.79L229.66 118.69L228.96 118.66L228.27 118.7L227.63 118.81Z" id="cQByU1bve"></path></defs><g><g><g><g><use xlink:href="#b4JvxMgZZe" opacity="1" fill="#c5ca8a" fill-opacity="1"></use><g><use xlink:href="#b4JvxMgZZe" opacity="1" fill-opacity="0" stroke="#000000" stroke-width="1" stroke-opacity="0"></use></g></g><g><use xlink:href="#a3gLGWMX9p" opacity="1" fill="#9ba166" fill-opacity="1"></use><g><use xlink:href="#a3gLGWMX9p" opacity="1" fill-opacity="0" stroke="#000000" stroke-width="1" stroke-opacity="0"></use></g></g><g><use xlink:href="#aurrSVWrj" opacity="1" fill="#3e4055" fill-opacity="1"></use><g><use xlink:href="#aurrSVWrj" opacity="1" fill-opacity="0" stroke="#000000" stroke-width="1" stroke-opacity="0"></use></g></g><g><use xlink:href="#aZVfcWaGO" opacity="1" fill="#66687d" fill-opacity="1"></use><g><use xlink:href="#aZVfcWaGO" opacity="1" fill-opacity="0" stroke="#000000" stroke-width="1" stroke-opacity="0"></use></g></g><g><use xlink:href="#axsHQ62Gv" opacity="1" fill="#3e4055" fill-opacity="1"></use><g><use xlink:href="#axsHQ62Gv" opacity="1" fill-opacity="0" stroke="#000000" stroke-width="1" stroke-opacity="0"></use></g></g><g><use xlink:href="#b1jk4ZG9S1" opacity="1" fill="#66687d" fill-opacity="1"></use><g><use xlink:href="#b1jk4ZG9S1" opacity="1" fill-opacity="0" stroke="#000000" stroke-width="1" stroke-opacity="0"></use></g></g></g><g><g><use xlink:href="#bwI0DoeCk" opacity="1" fill="#c5ca8a" fill-opacity="1"></use><g><use xlink:href="#bwI0DoeCk" opacity="1" fill-opacity="0" stroke="#000000" stroke-width="1" stroke-opacity="0"></use></g></g><g><use xlink:href="#a3SKJn7Btn" opacity="1" fill="#9ba166" fill-opacity="1"></use><g><use xlink:href="#a3SKJn7Btn" opacity="1" fill-opacity="0" stroke="#000000" stroke-width="1" stroke-opacity="0"></use></g></g><g><use xlink:href="#dI43ilZkJ" opacity="1" fill="#3e4055" fill-opacity="1"></use><g><use xlink:href="#dI43ilZkJ" opacity="1" fill-opacity="0" stroke="#000000" stroke-width="1" stroke-opacity="0"></use></g></g><g><use xlink:href="#bUVBZ4Yxv" opacity="1" fill="#66687d" fill-opacity="1"></use><g><use xlink:href="#bUVBZ4Yxv" opacity="1" fill-opacity="0" stroke="#000000" stroke-width="1" stroke-opacity="0"></use></g></g><g><use xlink:href="#b5omdat10T" opacity="1" fill="#3e4055" fill-opacity="1"></use><g><use xlink:href="#b5omdat10T" opacity="1" fill-opacity="0" stroke="#000000" stroke-width="1" stroke-opacity="0"></use></g></g><g><use xlink:href="#d16EMAvhf7" opacity="1" fill="#66687d" fill-opacity="1"></use><g><use xlink:href="#d16EMAvhf7" opacity="1" fill-opacity="0" stroke="#000000" stroke-width="1" stroke-opacity="0"></use></g></g></g><g><g><use xlink:href="#ao6peqnf0" opacity="1" fill="#c5ca8a" fill-opacity="1"></use><g><use xlink:href="#ao6peqnf0" opacity="1" fill-opacity="0" stroke="#000000" stroke-width="1" stroke-opacity="0"></use></g></g><g><use xlink:href="#b7YK4iT4PG" opacity="1" fill="#9ba166" fill-opacity="1"></use><g><use xlink:href="#b7YK4iT4PG" opacity="1" fill-opacity="0" stroke="#000000" stroke-width="1" stroke-opacity="0"></use></g></g><g><use xlink:href="#d1EbO5TyOG" opacity="1" fill="#3e4055" fill-opacity="1"></use><g><use xlink:href="#d1EbO5TyOG" opacity="1" fill-opacity="0" stroke="#000000" stroke-width="1" stroke-opacity="0"></use></g></g><g><use xlink:href="#a6k1qQSlMd" opacity="1" fill="#66687d" fill-opacity="1"></use><g><use xlink:href="#a6k1qQSlMd" opacity="1" fill-opacity="0" stroke="#000000" stroke-width="1" stroke-opacity="0"></use></g></g><g><use xlink:href="#a50j5JszsP" opacity="1" fill="#3e4055" fill-opacity="1"></use><g><use xlink:href="#a50j5JszsP" opacity="1" fill-opacity="0" stroke="#000000" stroke-width="1" stroke-opacity="0"></use></g></g><g><use xlink:href="#cQByU1bve" opacity="1" fill="#66687d" fill-opacity="1"></use><g><use xlink:href="#cQByU1bve" opacity="1" fill-opacity="0" stroke="#000000" stroke-width="1" stroke-opacity="0"></use></g></g></g></g></g></svg>