<?xml version="1.0" encoding="UTF-8" standalone="no"?>
<!DOCTYPE svg PUBLIC "-//W3C//DTD SVG 1.1//EN" "http://www.w3.org/Graphics/SVG/1.1/DTD/svg11.dtd">
<svg version="1.1" xmlns="http://www.w3.org/2000/svg" xmlns:xlink="http://www.w3.org/1999/xlink" preserveAspectRatio="xMidYMid meet" viewBox="0 0 300 150" width="300" height="150"><defs><path d="M52.34 79.22L52.64 79.6L52.96 79.99L52.96 82.66L52.64 82.29L52.34 81.91L52.05 81.51L51.79 81.11L51.79 78.44L52.05 78.83L52.34 79.22Z" id="gBg7axBtu"></path><path d="M51.34 77.67L51.56 78.05L51.79 78.44L51.79 81.11L51.55 80.71L51.32 80.31L51.12 79.91L50.93 79.5L50.97 76.91L51.15 77.29L51.34 77.67Z" id="b1dpNmfV0N"></path><path d="M63.5 85.79L63.68 85.69L63.92 85.57L63.52 85.79L63.5 85.79Z" id="e1o7aiXou"></path><path d="M60.86 87.32L60.86 84.62L62.77 83.65L62.77 86.21L60.86 87.32Z" id="abVRBbrTL"></path><path d="M59.95 85.08C59.95 86.69 59.95 87.58 59.95 87.76C59.98 87.77 60 87.79 60.03 87.8C60.09 87.77 60.36 87.61 60.86 87.32L60.86 84.66L60.84 84.64L59.95 85.08Z" id="awjzfUzv"></path><path d="M62.81 83.63L62.77 83.65L62.77 86.21L63.5 85.79L63.68 85.69L63.68 83.21L63.66 83.19L62.81 83.63Z" id="bQOmnO4Z7"></path><path d="M97.3 66.03L97.58 65.87L97.8 65.74L97.32 66.03L97.3 66.03Z" id="bzRPwPke4"></path><path d="M96.86 66.27L94.72 67.5C94.72 65.84 94.72 64.92 94.72 64.74C90.37 62.87 85.19 61.94 79.19 61.94C72.73 61.94 67.22 62.99 62.65 65.1C58.07 67.22 55.76 69.79 55.72 72.81C55.72 73.24 55.75 73.67 55.82 74.08C56.85 71.6 59.13 69.54 62.65 67.9C67.21 65.79 72.73 64.74 79.19 64.74C85.17 64.74 90.34 65.66 94.7 67.52C94.7 67.52 94.71 67.53 94.72 67.54L94.74 67.54L97.32 66.03L97.3 66.03L96.86 66.27Z" id="a1iejnaUOt"></path><path d="M99.42 64.8L99.42 62.1L100.16 61.68L100.16 64.38L99.42 64.8Z" id="a2IersyJkS"></path><path d="M99.4 62.1C99.41 62.1 99.42 62.11 99.42 62.12C99.42 62.12 99.42 62.11 99.42 62.1C99.86 61.84 100.11 61.7 100.16 61.68C99.98 61.57 99.79 61.46 99.6 61.35C93.98 58.18 87.2 56.6 79.23 56.6C71.24 56.59 64.41 58.16 58.74 61.31C53.08 64.47 50.22 68.3 50.16 72.79C50.16 72.81 50.16 72.82 50.16 72.83C50.16 72.87 50.16 73.16 50.16 73.2C50.18 73.54 50.2 73.9 50.24 74.26C50.37 75.16 50.61 76.04 50.97 76.9C51.2 77.41 51.47 77.92 51.79 78.43C52.13 78.96 52.52 79.47 52.96 79.98C53.27 80.34 53.61 80.69 53.97 81.03C54.48 81.53 55.05 82.01 55.68 82.48C56.03 82.74 56.39 82.99 56.77 83.25C57.31 83.59 57.88 83.94 58.48 84.29C58.5 84.31 58.52 84.32 58.54 84.33C58.93 84.55 59.32 84.75 59.71 84.96C59.79 85 59.87 85.04 59.95 85.08C60.04 85.03 60.75 84.68 60.84 84.64C60.24 84.35 59.65 84.05 59.07 83.73C53.6 80.71 50.9 77.05 50.95 72.77C50.95 72.3 51 71.83 51.09 71.36C51.67 67.69 54.41 64.52 59.33 61.85C64.84 58.84 71.47 57.35 79.23 57.36C86.98 57.37 93.58 58.88 99.03 61.9C99.15 61.97 99.27 62.03 99.4 62.1Z" id="a33GdlBWsX"></path><path d="M97.56 63.15C96.31 62.47 95 61.9 93.61 61.41C89.41 59.9 84.61 59.14 79.21 59.14C73.52 59.14 68.48 59.96 64.1 61.62C62.91 62.05 61.76 62.55 60.66 63.13C55.53 65.8 52.94 69.01 52.9 72.77C52.86 76.01 54.69 78.84 58.38 81.28C59 81.69 59.68 82.09 60.44 82.48C61.15 82.86 61.89 83.22 62.65 83.55C62.69 83.56 62.73 83.59 62.77 83.61C62.79 83.61 62.8 83.62 62.81 83.63C62.9 83.59 63.57 83.23 63.66 83.19C63.34 83.07 63.03 82.95 62.73 82.83C62.1 82.56 61.49 82.27 60.9 81.96C59.05 81.01 57.54 79.98 56.39 78.88C54.48 77.05 53.54 75.02 53.57 72.78C53.62 69.22 56.15 66.18 61.14 63.65C66.14 61.14 72.16 59.88 79.21 59.88C86.09 59.88 91.97 61.11 96.86 63.55C97 63.47 97.49 63.19 97.56 63.15Z" id="a4GkKK5wY"></path><path d="M94.72 67.5L94.72 64.74L96.86 63.55L96.86 66.27L94.72 67.5Z" id="b4abhIwTWj"></path><path d="M85.91 93.36C86.81 93.66 87.2 92.23 86.3 91.94C86.18 91.91 86.09 91.85 86.02 91.74C85.47 90.98 84.19 91.72 84.74 92.49C84.74 92.49 84.74 92.49 84.74 92.49C85.18 92.96 85.57 93.25 85.91 93.36Z" id="b8Oy7MAdS"></path><path d="M196.21 114.04L196.51 114.42L196.83 114.81L196.83 117.49L196.51 117.11L196.21 116.73L195.92 116.33L195.66 115.93L195.66 113.26L195.92 113.65L196.21 114.04Z" id="bl2JV7vCq"></path><path d="M195.21 112.49L195.43 112.87L195.66 113.26L195.66 115.93L195.42 115.53L195.2 115.13L194.99 114.73L194.8 114.32L194.84 111.73L195.02 112.11L195.21 112.49Z" id="bzKTWX8Ie"></path><path d="M207.37 120.61L207.55 120.51L207.79 120.39L207.39 120.61L207.37 120.61Z" id="f1eQEoGE6R"></path><path d="M204.73 122.14L204.73 119.44L206.64 118.47L206.64 121.03L204.73 122.14Z" id="aP2Mrydiz"></path><path d="M203.82 119.9C203.82 121.51 203.82 122.4 203.82 122.58C203.85 122.59 203.88 122.61 203.9 122.62C203.96 122.59 204.23 122.43 204.73 122.14L204.73 119.48L204.71 119.46L203.82 119.9Z" id="bgvivTD79"></path><path d="M206.68 118.45L206.64 118.47L206.64 121.03L207.37 120.61L207.55 120.51L207.55 118.03L207.53 118.01L206.68 118.45Z" id="bbUCrHfp7"></path><path d="M241.17 100.85L241.45 100.69L241.68 100.57L241.19 100.85L241.17 100.85Z" id="amw64TPoC"></path><path d="M240.73 101.09L238.59 102.32C238.59 100.66 238.59 99.74 238.59 99.56C234.24 97.69 229.06 96.76 223.06 96.76C216.6 96.76 211.09 97.81 206.52 99.92C201.94 102.04 199.63 104.61 199.59 107.63C199.59 108.06 199.62 108.49 199.69 108.9C200.72 106.42 203 104.36 206.52 102.72C211.09 100.61 216.6 99.56 223.06 99.56C229.04 99.56 234.21 100.48 238.57 102.34C238.57 102.34 238.58 102.35 238.59 102.36L238.61 102.36L241.19 100.85L241.17 100.85L240.73 101.09Z" id="h1d84SGvJi"></path><path d="M243.29 99.62L243.29 96.92L244.03 96.5L244.03 99.2L243.29 99.62Z" id="bbuo9plTw"></path><path d="M243.27 96.92C243.28 96.92 243.29 96.93 243.29 96.94C243.29 96.94 243.29 96.93 243.29 96.92C243.74 96.67 243.98 96.52 244.03 96.5C243.85 96.39 243.66 96.28 243.47 96.17C237.86 93.01 231.07 91.42 223.1 91.42C215.11 91.41 208.28 92.98 202.62 96.13C196.95 99.29 194.09 103.12 194.03 107.61C194.03 107.63 194.03 107.64 194.03 107.65C194.03 107.69 194.03 107.98 194.03 108.02C194.05 108.36 194.07 108.72 194.12 109.08C194.24 109.98 194.48 110.86 194.84 111.72C195.07 112.23 195.34 112.74 195.67 113.25C196 113.78 196.39 114.29 196.83 114.8C197.14 115.17 197.48 115.52 197.84 115.85C198.35 116.35 198.92 116.83 199.55 117.3C199.9 117.56 200.27 117.81 200.64 118.07C201.18 118.41 201.75 118.76 202.35 119.11C202.37 119.13 202.39 119.14 202.41 119.15C202.8 119.37 203.19 119.58 203.58 119.78C203.66 119.82 203.74 119.86 203.82 119.9C203.91 119.85 204.62 119.5 204.71 119.46C204.11 119.17 203.52 118.87 202.94 118.55C197.47 115.53 194.77 111.88 194.82 107.59C194.82 107.12 194.87 106.65 194.96 106.18C195.54 102.51 198.28 99.35 203.2 96.67C208.71 93.66 215.34 92.17 223.1 92.18C230.85 92.19 237.45 93.7 242.9 96.72C243.03 96.79 243.15 96.85 243.27 96.92Z" id="aMhtXWeof"></path><path d="M241.43 97.97C240.18 97.29 238.87 96.72 237.48 96.23C233.28 94.72 228.48 93.96 223.08 93.96C217.39 93.96 212.35 94.78 207.97 96.44C206.78 96.87 205.63 97.37 204.53 97.95C199.4 100.62 196.81 103.84 196.77 107.6C196.73 110.83 198.56 113.66 202.25 116.1C202.87 116.51 203.55 116.92 204.31 117.3C205.02 117.68 205.76 118.04 206.52 118.37C206.56 118.38 206.6 118.41 206.64 118.43C206.66 118.43 206.67 118.44 206.68 118.45C206.77 118.41 207.44 118.05 207.53 118.01C207.21 117.89 206.9 117.77 206.6 117.65C205.97 117.38 205.36 117.09 204.77 116.78C202.92 115.83 201.41 114.8 200.26 113.7C198.35 111.87 197.41 109.84 197.44 107.6C197.49 104.04 200.02 101 205.01 98.47C210.01 95.96 216.03 94.71 223.08 94.71C229.96 94.7 235.84 95.93 240.73 98.37C240.87 98.29 241.36 98.01 241.43 97.97Z" id="c4ZGRcfUAS"></path><path d="M238.59 102.32L238.59 99.56L240.73 98.37L240.73 101.09L238.59 102.32Z" id="a51SnOvVDd"></path><path d="M229.78 128.18C230.68 128.48 231.07 127.05 230.17 126.76C230.05 126.73 229.96 126.67 229.89 126.56C229.34 125.8 228.06 126.54 228.61 127.31C228.61 127.31 228.61 127.31 228.61 127.31C229.05 127.78 229.44 128.07 229.78 128.18Z" id="f5VIYNUJpW"></path><path d="M141.71 75.05L142.01 75.44L142.34 75.83L142.34 78.5L142.01 78.13L141.71 77.74L141.43 77.35L141.17 76.95L141.17 74.27L141.43 74.67L141.71 75.05Z" id="bXqQwtg3d"></path><path d="M140.72 73.51L140.93 73.89L141.17 74.27L141.17 76.95L140.92 76.55L140.7 76.15L140.49 75.75L140.3 75.34L140.34 72.74L140.52 73.13L140.72 73.51Z" id="a1dVSuwF8l"></path><path d="M152.87 81.63L153.05 81.53L153.29 81.4L152.89 81.63L152.87 81.63Z" id="axyLam31T"></path><path d="M150.23 83.16L150.23 80.46L152.15 79.49L152.15 82.05L150.23 83.16Z" id="g1SytHT1YE"></path><path d="M149.33 80.92C149.33 82.53 149.33 83.42 149.33 83.6C149.35 83.61 149.38 83.63 149.41 83.64C149.46 83.61 149.74 83.45 150.23 83.16L150.23 80.5L150.21 80.48L149.33 80.92Z" id="agKYOJfDW"></path><path d="M152.19 79.47L152.15 79.49L152.15 82.05L152.87 81.63L153.05 81.53L153.05 79.05L153.03 79.03L152.19 79.47Z" id="g4xb49k0Y9"></path><path d="M186.68 61.87L186.96 61.7L187.18 61.58L186.7 61.87L186.68 61.87Z" id="b389ogMUtU"></path><path d="M186.23 62.11L184.1 63.34C184.1 61.68 184.1 60.76 184.1 60.58C179.75 58.71 174.57 57.78 168.56 57.78C162.1 57.78 156.59 58.83 152.02 60.94C147.44 63.06 145.13 65.63 145.09 68.65C145.09 69.08 145.13 69.51 145.19 69.92C146.23 67.44 148.5 65.38 152.02 63.74C156.59 61.63 162.1 60.58 168.56 60.58C174.54 60.58 179.71 61.5 184.08 63.36C184.08 63.36 184.08 63.36 184.1 63.38L184.12 63.38L186.7 61.87L186.68 61.87L186.23 62.11Z" id="a2IRWrcrG0"></path><path d="M188.79 60.64L188.79 57.94L189.54 57.52L189.54 60.21L188.79 60.64Z" id="acdJ9J652"></path><path d="M188.77 57.94C188.78 57.94 188.79 57.94 188.79 57.96C188.79 57.96 188.79 57.95 188.79 57.94C189.24 57.68 189.49 57.54 189.54 57.52C189.35 57.41 189.16 57.3 188.97 57.19C183.36 54.02 176.57 52.44 168.61 52.44C160.62 52.43 153.79 54 148.12 57.15C142.45 60.31 139.59 64.13 139.54 68.63C139.54 68.65 139.54 68.66 139.54 68.67C139.54 68.71 139.54 69 139.54 69.03C139.55 69.38 139.58 69.74 139.62 70.1C139.74 71 139.98 71.88 140.34 72.74C140.57 73.25 140.85 73.76 141.17 74.27C141.51 74.8 141.89 75.31 142.34 75.82C142.65 76.18 142.98 76.53 143.35 76.87C143.86 77.37 144.43 77.85 145.06 78.32C145.41 78.57 145.77 78.83 146.15 79.08C146.68 79.43 147.25 79.78 147.86 80.13C147.87 80.14 147.89 80.16 147.92 80.17C148.31 80.39 148.7 80.59 149.09 80.8C149.17 80.84 149.25 80.88 149.33 80.92C149.42 80.87 150.13 80.52 150.22 80.47C149.61 80.19 149.02 79.89 148.44 79.57C142.98 76.55 140.27 72.89 140.32 68.61C140.32 68.14 140.37 67.67 140.47 67.2C141.04 63.53 143.79 60.36 148.7 57.69C154.21 54.68 160.85 53.18 168.61 53.2C176.35 53.2 182.95 54.71 188.41 57.74C188.53 57.8 188.65 57.87 188.77 57.94Z" id="dpd4bnl7t"></path><path d="M186.94 58.98C185.69 58.31 184.37 57.74 182.99 57.25C178.78 55.74 173.98 54.98 168.58 54.98C162.89 54.98 157.85 55.8 153.48 57.45C152.28 57.88 151.13 58.39 150.03 58.97C144.9 61.64 142.32 64.85 142.28 68.61C142.24 71.85 144.06 74.68 147.76 77.11C148.37 77.53 149.06 77.93 149.81 78.32C150.52 78.7 151.26 79.05 152.03 79.39C152.07 79.4 152.11 79.42 152.15 79.45C152.16 79.45 152.17 79.46 152.19 79.47C152.27 79.43 152.95 79.07 153.03 79.03C152.71 78.91 152.4 78.79 152.11 78.67C151.48 78.4 150.86 78.11 150.27 77.8C148.42 76.85 146.92 75.82 145.76 74.72C143.85 72.89 142.91 70.86 142.94 68.62C143 65.06 145.52 62.02 150.52 59.49C155.51 56.98 161.54 55.72 168.59 55.72C175.46 55.72 181.34 56.95 186.23 59.39C186.37 59.31 186.87 59.02 186.94 58.98Z" id="d2eWSRffnK"></path><path d="M184.1 63.34L184.1 60.58L186.23 59.39L186.23 62.11L184.1 63.34Z" id="ag7R6UNGw"></path><path d="M175.28 89.2C176.19 89.5 176.57 88.07 175.67 87.77C175.55 87.75 175.46 87.68 175.39 87.58C174.84 86.82 173.56 87.55 174.12 88.33C174.12 88.33 174.12 88.33 174.12 88.33C174.55 88.8 174.94 89.09 175.28 89.2Z" id="a1FmCQ7WXk"></path></defs><g><g><g><use xlink:href="#gBg7axBtu" opacity="1" fill="#815f83" fill-opacity="1"></use><g><use xlink:href="#gBg7axBtu" opacity="1" fill-opacity="0" stroke="#000000" stroke-width="1" stroke-opacity="0"></use></g></g><g><use xlink:href="#b1dpNmfV0N" opacity="1" fill="#937596" fill-opacity="1"></use><g><use xlink:href="#b1dpNmfV0N" opacity="1" fill-opacity="0" stroke="#000000" stroke-width="1" stroke-opacity="0"></use></g></g><g><use xlink:href="#e1o7aiXou" opacity="1" fill="#efeeee" fill-opacity="1"></use><g><use xlink:href="#e1o7aiXou" opacity="1" fill-opacity="0" stroke="#000000" stroke-width="1" stroke-opacity="0"></use></g></g><g><use xlink:href="#abVRBbrTL" opacity="1" fill="#cfd0d0" fill-opacity="1"></use><g><use xlink:href="#abVRBbrTL" opacity="1" fill-opacity="0" stroke="#000000" stroke-width="1" stroke-opacity="0"></use></g></g><g><use xlink:href="#awjzfUzv" opacity="1" fill="#736077" fill-opacity="1"></use><g><use xlink:href="#awjzfUzv" opacity="1" fill-opacity="0" stroke="#000000" stroke-width="1" stroke-opacity="0"></use></g></g><g><use xlink:href="#bQOmnO4Z7" opacity="1" fill="#957c99" fill-opacity="1"></use><g><use xlink:href="#bQOmnO4Z7" opacity="1" fill-opacity="0" stroke="#000000" stroke-width="1" stroke-opacity="0"></use></g></g><g><use xlink:href="#bzRPwPke4" opacity="1" fill="#f1f0f0" fill-opacity="1"></use><g><use xlink:href="#bzRPwPke4" opacity="1" fill-opacity="0" stroke="#000000" stroke-width="1" stroke-opacity="0"></use></g></g><g><use xlink:href="#a1iejnaUOt" opacity="1" fill="#dfdfde" fill-opacity="1"></use><g><use xlink:href="#a1iejnaUOt" opacity="1" fill-opacity="0" stroke="#000000" stroke-width="1" stroke-opacity="0"></use></g></g><g><use xlink:href="#a2IersyJkS" opacity="1" fill="#977a9b" fill-opacity="1"></use><g><use xlink:href="#a2IersyJkS" opacity="1" fill-opacity="0" stroke="#000000" stroke-width="1" stroke-opacity="0"></use></g></g><g><use xlink:href="#a33GdlBWsX" opacity="1" fill="#c19bc7" fill-opacity="1"></use><g><use xlink:href="#a33GdlBWsX" opacity="1" fill-opacity="0" stroke="#000000" stroke-width="1" stroke-opacity="0"></use></g></g><g><use xlink:href="#a4GkKK5wY" opacity="1" fill="#b394b7" fill-opacity="1"></use><g><use xlink:href="#a4GkKK5wY" opacity="1" fill-opacity="0" stroke="#000000" stroke-width="1" stroke-opacity="0"></use></g></g><g><use xlink:href="#b4abhIwTWj" opacity="1" fill="#c6c5c5" fill-opacity="1"></use><g><use xlink:href="#b4abhIwTWj" opacity="1" fill-opacity="0" stroke="#000000" stroke-width="1" stroke-opacity="0"></use></g></g><g><use xlink:href="#b8Oy7MAdS" opacity="1" fill="#56ab46" fill-opacity="1"></use><g><use xlink:href="#b8Oy7MAdS" opacity="1" fill-opacity="0" stroke="#000000" stroke-width="1" stroke-opacity="0"></use></g></g><g><use xlink:href="#bl2JV7vCq" opacity="1" fill="#815f83" fill-opacity="1"></use><g><use xlink:href="#bl2JV7vCq" opacity="1" fill-opacity="0" stroke="#000000" stroke-width="1" stroke-opacity="0"></use></g></g><g><use xlink:href="#bzKTWX8Ie" opacity="1" fill="#937596" fill-opacity="1"></use><g><use xlink:href="#bzKTWX8Ie" opacity="1" fill-opacity="0" stroke="#000000" stroke-width="1" stroke-opacity="0"></use></g></g><g><use xlink:href="#f1eQEoGE6R" opacity="1" fill="#efeeee" fill-opacity="1"></use><g><use xlink:href="#f1eQEoGE6R" opacity="1" fill-opacity="0" stroke="#000000" stroke-width="1" stroke-opacity="0"></use></g></g><g><use xlink:href="#aP2Mrydiz" opacity="1" fill="#cfd0d0" fill-opacity="1"></use><g><use xlink:href="#aP2Mrydiz" opacity="1" fill-opacity="0" stroke="#000000" stroke-width="1" stroke-opacity="0"></use></g></g><g><use xlink:href="#bgvivTD79" opacity="1" fill="#736077" fill-opacity="1"></use><g><use xlink:href="#bgvivTD79" opacity="1" fill-opacity="0" stroke="#000000" stroke-width="1" stroke-opacity="0"></use></g></g><g><use xlink:href="#bbUCrHfp7" opacity="1" fill="#957c99" fill-opacity="1"></use><g><use xlink:href="#bbUCrHfp7" opacity="1" fill-opacity="0" stroke="#000000" stroke-width="1" stroke-opacity="0"></use></g></g><g><use xlink:href="#amw64TPoC" opacity="1" fill="#f1f0f0" fill-opacity="1"></use><g><use xlink:href="#amw64TPoC" opacity="1" fill-opacity="0" stroke="#000000" stroke-width="1" stroke-opacity="0"></use></g></g><g><use xlink:href="#h1d84SGvJi" opacity="1" fill="#dfdfde" fill-opacity="1"></use><g><use xlink:href="#h1d84SGvJi" opacity="1" fill-opacity="0" stroke="#000000" stroke-width="1" stroke-opacity="0"></use></g></g><g><use xlink:href="#bbuo9plTw" opacity="1" fill="#977a9b" fill-opacity="1"></use><g><use xlink:href="#bbuo9plTw" opacity="1" fill-opacity="0" stroke="#000000" stroke-width="1" stroke-opacity="0"></use></g></g><g><use xlink:href="#aMhtXWeof" opacity="1" fill="#c19bc7" fill-opacity="1"></use><g><use xlink:href="#aMhtXWeof" opacity="1" fill-opacity="0" stroke="#000000" stroke-width="1" stroke-opacity="0"></use></g></g><g><use xlink:href="#c4ZGRcfUAS" opacity="1" fill="#b394b7" fill-opacity="1"></use><g><use xlink:href="#c4ZGRcfUAS" opacity="1" fill-opacity="0" stroke="#000000" stroke-width="1" stroke-opacity="0"></use></g></g><g><use xlink:href="#a51SnOvVDd" opacity="1" fill="#c6c5c5" fill-opacity="1"></use><g><use xlink:href="#a51SnOvVDd" opacity="1" fill-opacity="0" stroke="#000000" stroke-width="1" stroke-opacity="0"></use></g></g><g><use xlink:href="#f5VIYNUJpW" opacity="1" fill="#56ab46" fill-opacity="1"></use><g><use xlink:href="#f5VIYNUJpW" opacity="1" fill-opacity="0" stroke="#000000" stroke-width="1" stroke-opacity="0"></use></g></g><g><use xlink:href="#bXqQwtg3d" opacity="1" fill="#815f83" fill-opacity="1"></use><g><use xlink:href="#bXqQwtg3d" opacity="1" fill-opacity="0" stroke="#000000" stroke-width="1" stroke-opacity="0"></use></g></g><g><use xlink:href="#a1dVSuwF8l" opacity="1" fill="#937596" fill-opacity="1"></use><g><use xlink:href="#a1dVSuwF8l" opacity="1" fill-opacity="0" stroke="#000000" stroke-width="1" stroke-opacity="0"></use></g></g><g><use xlink:href="#axyLam31T" opacity="1" fill="#efeeee" fill-opacity="1"></use><g><use xlink:href="#axyLam31T" opacity="1" fill-opacity="0" stroke="#000000" stroke-width="1" stroke-opacity="0"></use></g></g><g><use xlink:href="#g1SytHT1YE" opacity="1" fill="#cfd0d0" fill-opacity="1"></use><g><use xlink:href="#g1SytHT1YE" opacity="1" fill-opacity="0" stroke="#000000" stroke-width="1" stroke-opacity="0"></use></g></g><g><use xlink:href="#agKYOJfDW" opacity="1" fill="#736077" fill-opacity="1"></use><g><use xlink:href="#agKYOJfDW" opacity="1" fill-opacity="0" stroke="#000000" stroke-width="1" stroke-opacity="0"></use></g></g><g><use xlink:href="#g4xb49k0Y9" opacity="1" fill="#957c99" fill-opacity="1"></use><g><use xlink:href="#g4xb49k0Y9" opacity="1" fill-opacity="0" stroke="#000000" stroke-width="1" stroke-opacity="0"></use></g></g><g><use xlink:href="#b389ogMUtU" opacity="1" fill="#f1f0f0" fill-opacity="1"></use><g><use xlink:href="#b389ogMUtU" opacity="1" fill-opacity="0" stroke="#000000" stroke-width="1" stroke-opacity="0"></use></g></g><g><use xlink:href="#a2IRWrcrG0" opacity="1" fill="#dfdfde" fill-opacity="1"></use><g><use xlink:href="#a2IRWrcrG0" opacity="1" fill-opacity="0" stroke="#000000" stroke-width="1" stroke-opacity="0"></use></g></g><g><use xlink:href="#acdJ9J652" opacity="1" fill="#977a9b" fill-opacity="1"></use><g><use xlink:href="#acdJ9J652" opacity="1" fill-opacity="0" stroke="#000000" stroke-width="1" stroke-opacity="0"></use></g></g><g><use xlink:href="#dpd4bnl7t" opacity="1" fill="#c19bc7" fill-opacity="1"></use><g><use xlink:href="#dpd4bnl7t" opacity="1" fill-opacity="0" stroke="#000000" stroke-width="1" stroke-opacity="0"></use></g></g><g><use xlink:href="#d2eWSRffnK" opacity="1" fill="#b394b7" fill-opacity="1"></use><g><use xlink:href="#d2eWSRffnK" opacity="1" fill-opacity="0" stroke="#000000" stroke-width="1" stroke-opacity="0"></use></g></g><g><use xlink:href="#ag7R6UNGw" opacity="1" fill="#c6c5c5" fill-opacity="1"></use><g><use xlink:href="#ag7R6UNGw" opacity="1" fill-opacity="0" stroke="#000000" stroke-width="1" stroke-opacity="0"></use></g></g><g><use xlink:href="#a1FmCQ7WXk" opacity="1" fill="#56ab46" fill-opacity="1"></use><g><use xlink:href="#a1FmCQ7WXk" opacity="1" fill-opacity="0" stroke="#000000" stroke-width="1" stroke-opacity="0"></use></g></g></g></g></svg>