<?xml version="1.0" encoding="UTF-8" standalone="no"?>
<!DOCTYPE svg PUBLIC "-//W3C//DTD SVG 1.1//EN" "http://www.w3.org/Graphics/SVG/1.1/DTD/svg11.dtd">
<svg version="1.1" xmlns="http://www.w3.org/2000/svg" xmlns:xlink="http://www.w3.org/1999/xlink" preserveAspectRatio="xMidYMid meet" viewBox="0 0 300 150" width="300" height="150"><defs><path d="M81.03 58.56L81.03 58.58L81.03 58.6L81.03 58.62L81.03 58.64L81.03 58.66L81.03 58.69L81.03 58.71L81.03 58.73L81.03 58.75L81.03 58.77L81.03 58.79L81.03 58.81L81.02 58.83L80.99 59.22L80.91 59.6L80.8 59.97L80.66 60.34L80.47 60.7L80.25 61.06L79.99 61.41L79.69 61.76L79.36 62.1L78.99 62.44L78.58 62.77L78.13 63.09L77.65 63.42L77.13 63.73L76.59 64.03L76.06 64.29L75.54 64.53L75.02 64.73L74.5 64.9L73.99 65.03L73.48 65.14L72.98 65.21L72.49 65.25L72 65.26L71.51 65.24L71.03 65.18L70.55 65.09L70.08 64.98L69.79 65.18L69.48 65.36L69.14 65.54L68.79 65.7L68.41 65.84L68.02 65.97L67.6 66.09L67.17 66.19L66.71 66.28L66.23 66.35L65.73 66.41L65.22 66.46L64.68 66.49L64.12 66.51L63.55 66.51L62.97 66.48L62.38 66.43L61.79 66.35L61.19 66.25L60.59 66.12L59.98 65.96L59.36 65.78L58.74 65.58L58.11 65.35L57.47 65.09L56.83 64.81L56.18 64.5L55.53 64.17L54.92 63.83L54.35 63.5L53.83 63.16L53.35 62.82L52.92 62.48L52.53 62.14L52.19 61.79L51.89 61.44L51.64 61.09L51.43 60.74L51.26 60.39L51.14 60.03L51.07 59.67L51.04 59.31L51.03 59.31L51.03 59.3L51.03 59.29L51.03 59.29L51.03 59.28L51.03 59.27L51.03 59.26L51.03 59.26L51.03 59.25L51.04 59.25L51.04 57.88L51.04 57.93L51.04 57.97L51.04 58.02L51.04 58.06L51.05 58.11L51.05 58.15L51.06 58.2L51.07 58.24L51.07 58.29L51.08 58.33L51.09 58.38L51.1 58.42L51.11 58.47L51.12 58.51L51.21 58.82L51.33 59.14L51.49 59.45L51.69 59.75L51.92 60.06L52.18 60.37L52.48 60.67L52.81 60.97L53.18 61.27L53.58 61.57L54.01 61.87L54.48 62.16L54.99 62.46L55.53 62.75L56.18 63.08L56.83 63.39L57.47 63.67L58.11 63.93L58.74 64.16L59.36 64.37L59.98 64.55L60.59 64.7L61.19 64.83L61.79 64.93L62.38 65.01L62.97 65.06L63.55 65.09L64.12 65.09L64.67 65.08L65.19 65.04L65.7 65L66.19 64.94L66.65 64.87L67.1 64.79L67.53 64.69L67.94 64.58L68.33 64.45L68.7 64.32L69.05 64.16L69.38 64L69.69 63.82L69.99 63.63L69.99 63.62L70.01 63.61L70.02 63.61L70.02 63.61L70.03 63.6L70.04 63.6L70.05 63.59L70.06 63.58L70.06 63.58L70.07 63.57L70.08 63.57L70.08 63.56L70.21 63.6L70.33 63.63L70.45 63.66L70.57 63.69L70.7 63.71L70.82 63.74L70.95 63.76L71.07 63.78L71.2 63.79L71.32 63.81L71.45 63.82L71.57 63.83L71.7 63.84L71.83 63.85L72.19 63.85L72.55 63.84L72.92 63.81L73.29 63.76L73.66 63.69L74.03 63.61L74.41 63.51L74.79 63.39L75.17 63.26L75.56 63.1L75.95 62.93L76.34 62.74L76.73 62.54L77.13 62.32L77.6 62.03L78.04 61.75L78.45 61.45L78.82 61.16L79.17 60.86L79.49 60.55L79.78 60.25L80.04 59.93L80.27 59.61L80.47 59.29L80.64 58.97L80.78 58.64L80.89 58.3L80.97 57.96L80.97 57.93L80.98 57.89L80.98 57.85L80.99 57.81L80.99 57.77L81 57.73L81 57.69L81.01 57.65L81.01 57.61L81.01 57.57L81.02 57.54L81.02 57.5L81.02 57.46L81.02 57.42L81.02 57.42L81.02 58.54L81.03 58.56Z" id="bA1YRZlZE"></path><path d="M67.28 48.18L68.08 48.21L68.85 48.26L69.6 48.33L70.32 48.42L71.02 48.52L71.69 48.64L72.33 48.78L72.96 48.94L73.55 49.11L74.12 49.31L74.67 49.52L75.19 49.74L75.69 49.99L76.16 50.25L76.53 50.48L76.87 50.71L77.18 50.94L77.45 51.16L77.69 51.39L77.89 51.61L78.07 51.83L78.21 52.05L78.31 52.27L78.39 52.48L78.42 52.7L78.43 52.91L78.4 53.12L78.34 53.33L78.25 53.54L78.23 53.57L78.21 53.61L78.18 53.65L78.16 53.68L78.14 53.72L78.11 53.76L78.08 53.79L78.06 53.83L78.03 53.86L78 53.9L77.97 53.94L77.94 53.97L77.9 54.01L77.87 54.05L77.84 54.08L77.88 54.09L77.92 54.1L77.96 54.11L78 54.12L78.04 54.12L78.08 54.13L78.12 54.14L78.16 54.15L78.2 54.16L78.24 54.17L78.28 54.18L78.32 54.19L78.36 54.2L78.39 54.21L78.43 54.22L78.76 54.32L79.07 54.44L79.36 54.57L79.62 54.71L79.86 54.87L80.08 55.04L80.28 55.22L80.45 55.42L80.6 55.64L80.73 55.86L80.84 56.1L80.92 56.36L80.98 56.63L81.02 56.91L81.03 57.21L81.03 57.22L81.03 57.23L81.03 57.25L81.03 57.26L81.03 57.27L81.03 57.29L81.03 57.3L81.03 57.32L81.03 57.33L81.03 57.35L81.03 57.36L81.03 57.37L81.02 57.4L81.02 57.42L81.02 57.45L81.02 57.49L81.02 57.53L81.01 57.56L81.01 57.6L81.01 57.64L81 57.67L81 57.71L81 57.75L80.99 57.78L80.99 57.82L80.98 57.85L80.98 57.89L80.97 57.93L80.97 57.96L80.89 58.28L80.79 58.59L80.67 58.9L80.52 59.21L80.34 59.51L80.14 59.81L79.91 60.1L79.65 60.39L79.37 60.68L79.06 60.96L78.73 61.24L78.37 61.51L77.98 61.78L77.57 62.05L77.13 62.32L76.76 62.52L76.39 62.72L76.03 62.9L75.66 63.06L75.3 63.21L74.94 63.34L74.59 63.46L74.24 63.56L73.88 63.65L73.54 63.72L73.19 63.77L72.85 63.81L72.5 63.84L72.16 63.85L71.83 63.85L71.71 63.84L71.59 63.83L71.47 63.82L71.36 63.81L71.24 63.8L71.12 63.78L71 63.77L70.89 63.75L70.77 63.73L70.66 63.7L70.54 63.68L70.43 63.65L70.31 63.62L70.2 63.59L70.08 63.56L70.08 63.57L70.07 63.57L70.07 63.58L70.06 63.58L70.05 63.58L70.04 63.59L70.03 63.6L70.03 63.6L70.02 63.61L70.01 63.61L70 63.62L69.99 63.62L69.99 63.63L69.71 63.81L69.43 63.97L69.12 64.13L68.8 64.28L68.46 64.41L68.1 64.53L67.72 64.64L67.33 64.74L66.92 64.82L66.5 64.9L66.06 64.96L65.6 65.01L65.12 65.05L64.63 65.08L64.12 65.09L63.59 65.09L63.05 65.07L62.5 65.02L61.95 64.96L61.39 64.87L60.83 64.76L60.27 64.62L59.69 64.47L59.11 64.29L58.53 64.09L57.94 63.86L57.35 63.62L56.74 63.35L56.14 63.06L55.53 62.75L55.02 62.48L54.55 62.2L54.1 61.93L53.69 61.65L53.31 61.37L52.95 61.09L52.63 60.81L52.33 60.53L52.07 60.24L51.84 59.96L51.63 59.67L51.46 59.38L51.31 59.09L51.2 58.8L51.12 58.51L51.11 58.47L51.1 58.43L51.09 58.38L51.08 58.34L51.07 58.3L51.07 58.26L51.06 58.22L51.06 58.18L51.05 58.13L51.05 58.09L51.04 58.05L51.04 58.01L51.04 57.97L51.04 57.93L51.04 57.88L51.04 57.85L51.03 57.83L51.03 57.83L51.03 57.82L51.03 57.81L51.03 57.8L51.03 57.79L51.03 57.79L51.03 57.78L51.04 57.77L51.04 57.69L51.06 57.36L51.12 57.04L51.21 56.73L51.33 56.43L51.48 56.14L51.66 55.86L51.88 55.59L52.12 55.34L52.39 55.09L52.69 54.86L53.02 54.63L53.39 54.42L53.78 54.22L54.2 54.03L54.66 53.85L54.7 53.84L54.74 53.82L54.76 53.82L54.78 53.81L54.82 53.79L54.85 53.78L54.89 53.77L54.93 53.75L54.97 53.74L54.96 53.72L54.95 53.7L54.93 53.68L54.92 53.66L54.91 53.63L54.9 53.61L54.88 53.59L54.87 53.57L54.86 53.55L54.85 53.53L54.84 53.51L54.83 53.49L54.82 53.47L54.81 53.46L54.8 53.44L54.71 53.21L54.65 52.99L54.63 52.77L54.64 52.55L54.68 52.32L54.76 52.1L54.87 51.87L55.02 51.64L55.19 51.41L55.41 51.18L55.65 50.95L55.93 50.72L56.24 50.49L56.59 50.25L56.97 50.02L57.41 49.77L57.89 49.54L58.39 49.33L58.91 49.13L59.46 48.96L60.04 48.8L60.65 48.66L61.28 48.53L61.94 48.43L62.63 48.34L63.34 48.27L64.08 48.21L64.85 48.18L65.64 48.16L66.46 48.16L67.28 48.18ZM64.76 49.68L63.99 49.73L63.25 49.8L62.55 49.89L61.88 50.01L61.24 50.15L60.64 50.31L60.08 50.5L59.54 50.7L59.05 50.94L58.58 51.19L58.22 51.42L57.91 51.64L57.64 51.87L57.41 52.09L57.22 52.31L57.08 52.54L56.98 52.76L56.93 52.98L56.91 53.2L56.95 53.42L57.02 53.64L57.14 53.85L57.16 53.89L57.19 53.93L57.21 53.96L57.24 54L57.27 54.03L57.3 54.07L57.33 54.1L57.36 54.14L57.39 54.18L57.43 54.21L57.46 54.25L57.5 54.28L57.5 54.28L57.49 54.28L57.49 54.29L57.48 54.29L57.44 54.3L57.39 54.32L57.34 54.33L57.29 54.35L57.24 54.36L57.2 54.37L57.15 54.39L57.1 54.4L57.06 54.42L57.01 54.43L56.96 54.45L56.92 54.47L56.41 54.65L55.95 54.84L55.53 55.05L55.16 55.27L54.83 55.5L54.53 55.75L54.29 56.01L54.08 56.28L53.92 56.57L53.8 56.87L53.72 57.18L53.69 57.51L53.68 57.58L53.68 57.64L53.68 57.71L53.69 57.78L53.69 57.85L53.7 57.92L53.71 57.99L53.72 58.05L53.74 58.12L53.75 58.19L53.77 58.26L53.79 58.33L53.89 58.61L54.03 58.9L54.2 59.19L54.42 59.47L54.66 59.75L54.94 60.03L55.26 60.31L55.62 60.59L56.01 60.87L56.44 61.14L56.9 61.41L57.4 61.68L58.03 62L58.65 62.29L59.26 62.55L59.87 62.79L60.47 62.99L61.06 63.17L61.65 63.31L62.23 63.43L62.8 63.52L63.37 63.58L63.93 63.62L64.48 63.62L65.02 63.6L65.53 63.56L66.02 63.49L66.49 63.41L66.93 63.31L67.36 63.18L67.75 63.04L68.13 62.87L68.48 62.69L68.81 62.48L69.12 62.25L69.4 62.01L69.85 62.17L70.31 62.3L70.78 62.38L71.25 62.43L71.73 62.43L72.21 62.4L72.7 62.32L73.19 62.2L73.69 62.05L74.2 61.85L74.71 61.61L75.22 61.33L75.65 61.07L76.05 60.8L76.41 60.54L76.75 60.26L77.05 59.98L77.33 59.7L77.57 59.41L77.78 59.12L77.97 58.82L78.12 58.52L78.24 58.22L78.34 57.91L78.35 57.85L78.36 57.8L78.37 57.75L78.38 57.69L78.39 57.64L78.4 57.59L78.4 57.54L78.41 57.48L78.41 57.43L78.42 57.38L78.42 57.32L78.43 57.27L78.42 56.96L78.38 56.67L78.3 56.4L78.19 56.14L78.05 55.91L77.86 55.7L77.65 55.5L77.39 55.33L77.11 55.17L76.78 55.03L76.43 54.92L76.03 54.82L75.96 54.8L75.89 54.79L75.82 54.78L75.75 54.76L75.68 54.75L75.61 54.74L75.53 54.73L75.46 54.72L75.38 54.71L75.3 54.7L75.23 54.69L75.15 54.68L75.14 54.68L75.21 54.62L75.28 54.56L75.35 54.51L75.41 54.45L75.47 54.39L75.53 54.34L75.58 54.28L75.64 54.22L75.68 54.16L75.73 54.11L75.77 54.05L75.81 53.99L75.93 53.78L76 53.56L76.04 53.35L76.02 53.13L75.97 52.91L75.88 52.69L75.74 52.48L75.56 52.26L75.33 52.04L75.07 51.82L74.76 51.6L74.4 51.38L73.92 51.11L73.4 50.86L72.84 50.64L72.26 50.44L71.64 50.26L70.99 50.1L70.31 49.97L69.59 49.86L68.84 49.77L68.06 49.71L67.25 49.67L66.41 49.65L65.57 49.65L64.76 49.68Z" id="e2gO2hz96l"></path><path d="M75.6 54.74L75.82 54.78L76.03 54.82L77.11 55.17L77.86 55.7L78.3 56.4L78.43 57.27L78.41 57.43L78.4 57.59L78.37 57.75L78.34 57.91L77.96 57.22L77.31 56.69L76.37 56.32L75.15 56.09L75.15 54.68L75.38 54.71L75.6 54.74Z" id="c6F4EcXvFt"></path><path d="M102.45 75.08L102.45 75.1L102.45 75.13L102.45 75.15L102.45 75.17L102.45 75.19L102.45 75.21L102.45 75.23L102.45 75.25L102.45 75.27L102.45 75.29L102.45 75.32L102.45 75.34L102.45 75.36L102.41 75.74L102.34 76.12L102.23 76.49L102.08 76.86L101.89 77.23L101.67 77.58L101.41 77.94L101.11 78.28L100.78 78.63L100.41 78.96L100 79.29L99.55 79.62L99.07 79.94L98.55 80.25L98.02 80.55L97.48 80.82L96.96 81.05L96.44 81.25L95.92 81.42L95.41 81.56L94.91 81.66L94.4 81.74L93.91 81.78L93.42 81.79L92.93 81.76L92.45 81.71L91.98 81.62L91.51 81.5L91.21 81.7L90.9 81.89L90.56 82.06L90.21 82.22L89.84 82.36L89.44 82.49L89.02 82.61L88.59 82.71L88.13 82.8L87.65 82.88L87.16 82.94L86.64 82.98L86.1 83.01L85.54 83.03L84.97 83.03L84.39 83L83.81 82.95L83.21 82.87L82.62 82.77L82.01 82.64L81.4 82.49L80.78 82.31L80.16 82.1L79.53 81.87L78.9 81.61L78.25 81.33L77.6 81.02L76.95 80.69L76.34 80.36L75.77 80.02L75.25 79.69L74.77 79.35L74.34 79.01L73.95 78.66L73.61 78.32L73.31 77.97L73.06 77.62L72.85 77.27L72.68 76.91L72.56 76.56L72.49 76.2L72.46 75.84L72.46 75.83L72.46 75.83L72.45 75.82L72.45 75.81L72.45 75.8L72.45 75.79L72.45 75.79L72.46 75.78L72.46 75.78L72.46 75.77L72.46 74.41L72.46 74.45L72.46 74.5L72.46 74.54L72.47 74.59L72.47 74.63L72.48 74.68L72.48 74.72L72.49 74.77L72.49 74.81L72.5 74.86L72.51 74.9L72.52 74.94L72.53 74.99L72.54 75.03L72.63 75.35L72.75 75.66L72.91 75.97L73.11 76.28L73.34 76.59L73.6 76.89L73.9 77.19L74.23 77.5L74.6 77.8L75 78.1L75.43 78.39L75.91 78.69L76.41 78.98L76.95 79.28L77.6 79.61L78.25 79.92L78.9 80.2L79.53 80.46L80.16 80.69L80.78 80.89L81.4 81.07L82.01 81.23L82.62 81.36L83.21 81.46L83.81 81.54L84.39 81.59L84.97 81.62L85.54 81.62L86.09 81.6L86.61 81.57L87.12 81.53L87.61 81.47L88.08 81.4L88.52 81.31L88.95 81.21L89.36 81.1L89.75 80.98L90.12 80.84L90.47 80.69L90.8 80.52L91.12 80.34L91.41 80.15L91.42 80.15L91.43 80.14L91.44 80.13L91.45 80.13L91.45 80.12L91.46 80.12L91.47 80.11L91.48 80.11L91.49 80.1L91.49 80.1L91.5 80.09L91.51 80.09L91.63 80.12L91.75 80.15L91.87 80.18L92 80.21L92.12 80.24L92.24 80.26L92.37 80.28L92.49 80.3L92.62 80.32L92.74 80.33L92.87 80.35L93 80.36L93.12 80.37L93.25 80.37L93.61 80.38L93.97 80.36L94.34 80.33L94.71 80.28L95.08 80.22L95.46 80.13L95.83 80.03L96.21 79.92L96.6 79.78L96.98 79.63L97.37 79.46L97.76 79.27L98.15 79.06L98.55 78.84L99.02 78.56L99.46 78.27L99.87 77.98L100.25 77.68L100.6 77.38L100.91 77.08L101.2 76.77L101.46 76.46L101.69 76.14L101.89 75.82L102.06 75.49L102.2 75.16L102.31 74.83L102.39 74.49L102.39 74.45L102.4 74.41L102.4 74.37L102.41 74.33L102.42 74.29L102.42 74.25L102.42 74.22L102.43 74.18L102.43 74.14L102.44 74.1L102.44 74.06L102.44 74.02L102.44 73.98L102.45 73.94L102.45 73.94L102.45 75.06L102.45 75.08Z" id="a1mLFrcOdM"></path><path d="M88.7 64.7L89.5 64.73L90.27 64.79L91.02 64.85L91.74 64.94L92.44 65.05L93.11 65.17L93.76 65.31L94.38 65.46L94.97 65.64L95.55 65.83L96.09 66.04L96.61 66.27L97.11 66.51L97.58 66.78L97.95 67.01L98.29 67.24L98.6 67.46L98.87 67.69L99.11 67.91L99.32 68.13L99.49 68.35L99.63 68.57L99.74 68.79L99.81 69.01L99.85 69.22L99.85 69.43L99.83 69.64L99.76 69.85L99.67 70.06L99.65 70.1L99.63 70.13L99.61 70.17L99.58 70.21L99.56 70.24L99.53 70.28L99.51 70.32L99.48 70.35L99.45 70.39L99.42 70.43L99.39 70.46L99.36 70.5L99.33 70.53L99.29 70.57L99.26 70.61L99.3 70.61L99.34 70.62L99.38 70.63L99.42 70.64L99.46 70.65L99.51 70.66L99.55 70.67L99.59 70.68L99.62 70.69L99.66 70.7L99.7 70.71L99.74 70.72L99.78 70.73L99.82 70.74L99.85 70.75L100.19 70.85L100.49 70.96L100.78 71.09L101.04 71.24L101.29 71.39L101.5 71.56L101.7 71.75L101.87 71.95L102.02 72.16L102.15 72.39L102.26 72.63L102.34 72.88L102.4 73.15L102.44 73.43L102.45 73.73L102.45 73.74L102.45 73.76L102.45 73.77L102.45 73.78L102.45 73.8L102.45 73.81L102.45 73.83L102.45 73.84L102.45 73.86L102.45 73.87L102.45 73.88L102.45 73.9L102.45 73.93L102.45 73.94L102.44 73.98L102.44 74.02L102.44 74.05L102.44 74.09L102.43 74.12L102.43 74.16L102.43 74.2L102.42 74.23L102.42 74.27L102.41 74.31L102.41 74.34L102.4 74.38L102.4 74.42L102.39 74.45L102.39 74.49L102.31 74.8L102.22 75.12L102.09 75.43L101.94 75.73L101.76 76.03L101.56 76.33L101.33 76.62L101.07 76.91L100.79 77.2L100.48 77.48L100.15 77.76L99.79 78.04L99.4 78.31L98.99 78.58L98.55 78.84L98.18 79.05L97.81 79.24L97.45 79.42L97.09 79.58L96.73 79.73L96.37 79.86L96.01 79.98L95.66 80.08L95.31 80.17L94.96 80.24L94.61 80.3L94.27 80.34L93.93 80.37L93.59 80.38L93.25 80.37L93.13 80.37L93.01 80.36L92.9 80.35L92.78 80.34L92.66 80.32L92.54 80.31L92.43 80.29L92.31 80.27L92.19 80.25L92.08 80.23L91.96 80.2L91.85 80.18L91.73 80.15L91.62 80.12L91.51 80.08L91.5 80.09L91.49 80.09L91.49 80.1L91.48 80.1L91.48 80.11L91.46 80.12L91.46 80.12L91.45 80.13L91.44 80.13L91.44 80.14L91.42 80.14L91.42 80.15L91.41 80.15L91.14 80.33L90.85 80.5L90.54 80.66L90.22 80.8L89.88 80.93L89.52 81.05L89.15 81.16L88.75 81.26L88.35 81.35L87.92 81.42L87.48 81.48L87.02 81.53L86.54 81.57L86.05 81.6L85.54 81.62L85.01 81.62L84.47 81.59L83.92 81.55L83.37 81.48L82.82 81.39L82.25 81.28L81.69 81.15L81.11 80.99L80.54 80.81L79.95 80.61L79.36 80.39L78.77 80.14L78.17 79.88L77.56 79.59L76.95 79.27L76.44 79L75.97 78.73L75.53 78.45L75.11 78.18L74.73 77.9L74.37 77.62L74.05 77.34L73.76 77.05L73.49 76.77L73.26 76.48L73.05 76.2L72.88 75.91L72.74 75.62L72.62 75.33L72.54 75.03L72.53 74.99L72.52 74.95L72.51 74.91L72.5 74.87L72.5 74.83L72.49 74.78L72.48 74.74L72.48 74.7L72.47 74.66L72.47 74.62L72.47 74.58L72.46 74.53L72.46 74.49L72.46 74.45L72.46 74.41L72.46 74.37L72.46 74.36L72.45 74.35L72.45 74.34L72.45 74.34L72.45 74.33L72.45 74.32L72.46 74.31L72.46 74.3L72.46 74.3L72.46 74.22L72.49 73.88L72.55 73.56L72.64 73.25L72.76 72.95L72.91 72.66L73.09 72.38L73.3 72.12L73.54 71.86L73.81 71.62L74.11 71.38L74.45 71.16L74.81 70.95L75.2 70.75L75.63 70.56L76.08 70.38L76.12 70.36L76.16 70.35L76.18 70.34L76.2 70.33L76.25 70.32L76.27 70.31L76.31 70.29L76.35 70.28L76.4 70.26L76.38 70.24L76.37 70.22L76.36 70.2L76.34 70.18L76.33 70.16L76.32 70.14L76.31 70.12L76.29 70.1L76.28 70.08L76.27 70.06L76.26 70.04L76.25 70.02L76.24 70L76.23 69.98L76.22 69.96L76.13 69.74L76.07 69.52L76.05 69.29L76.06 69.07L76.1 68.85L76.18 68.62L76.29 68.39L76.44 68.17L76.62 67.94L76.83 67.71L77.07 67.48L77.35 67.24L77.67 67.01L78.01 66.78L78.39 66.54L78.84 66.29L79.31 66.06L79.81 65.85L80.33 65.66L80.89 65.48L81.46 65.32L82.07 65.18L82.7 65.06L83.36 64.95L84.05 64.86L84.76 64.79L85.5 64.74L86.27 64.7L87.06 64.69L87.88 64.69L88.7 64.7ZM86.18 66.2L85.41 66.25L84.67 66.32L83.97 66.42L83.3 66.53L82.67 66.67L82.07 66.84L81.5 67.02L80.97 67.23L80.47 67.46L80 67.71L79.65 67.94L79.33 68.17L79.06 68.39L78.83 68.62L78.64 68.84L78.5 69.06L78.4 69.28L78.35 69.5L78.34 69.72L78.37 69.94L78.44 70.16L78.56 70.38L78.58 70.41L78.61 70.45L78.63 70.49L78.66 70.52L78.69 70.56L78.72 70.59L78.75 70.63L78.78 70.66L78.81 70.7L78.85 70.73L78.88 70.77L78.92 70.81L78.92 70.81L78.92 70.81L78.91 70.81L78.91 70.81L78.86 70.83L78.81 70.84L78.76 70.86L78.71 70.87L78.67 70.88L78.62 70.9L78.57 70.91L78.52 70.93L78.48 70.94L78.43 70.96L78.39 70.97L78.34 70.99L77.84 71.17L77.38 71.36L76.96 71.57L76.58 71.79L76.25 72.02L75.96 72.27L75.71 72.53L75.5 72.8L75.34 73.09L75.22 73.39L75.14 73.7L75.11 74.03L75.11 74.1L75.1 74.17L75.11 74.24L75.11 74.31L75.12 74.37L75.12 74.44L75.13 74.51L75.14 74.58L75.16 74.65L75.17 74.71L75.19 74.78L75.21 74.85L75.31 75.14L75.45 75.43L75.63 75.71L75.84 75.99L76.08 76.28L76.37 76.56L76.69 76.84L77.04 77.11L77.43 77.39L77.86 77.66L78.32 77.94L78.82 78.21L79.45 78.53L80.07 78.82L80.68 79.08L81.29 79.31L81.89 79.51L82.49 79.69L83.07 79.84L83.65 79.96L84.23 80.05L84.79 80.11L85.35 80.14L85.9 80.14L86.44 80.12L86.95 80.08L87.44 80.02L87.91 79.94L88.36 79.83L88.78 79.71L89.18 79.56L89.55 79.4L89.9 79.21L90.23 79.01L90.54 78.78L90.82 78.53L91.28 78.7L91.74 78.82L92.2 78.91L92.67 78.95L93.15 78.96L93.63 78.92L94.12 78.84L94.61 78.73L95.11 78.57L95.62 78.37L96.13 78.13L96.65 77.85L97.07 77.59L97.47 77.33L97.83 77.06L98.17 76.79L98.47 76.51L98.75 76.22L98.99 75.94L99.21 75.64L99.39 75.35L99.54 75.05L99.67 74.74L99.76 74.43L99.77 74.38L99.78 74.32L99.79 74.27L99.8 74.22L99.81 74.17L99.82 74.11L99.83 74.06L99.83 74.01L99.84 73.95L99.84 73.9L99.85 73.85L99.85 73.8L99.84 73.49L99.8 73.19L99.73 72.92L99.61 72.67L99.47 72.44L99.29 72.22L99.07 72.03L98.82 71.85L98.53 71.7L98.21 71.56L97.85 71.44L97.45 71.34L97.39 71.33L97.32 71.32L97.24 71.3L97.17 71.29L97.1 71.28L97.03 71.26L96.95 71.25L96.88 71.24L96.8 71.23L96.73 71.22L96.65 71.21L96.57 71.2L96.56 71.2L96.64 71.15L96.7 71.09L96.77 71.03L96.83 70.97L96.89 70.92L96.95 70.86L97.01 70.8L97.06 70.75L97.11 70.69L97.15 70.63L97.19 70.58L97.23 70.52L97.35 70.3L97.43 70.09L97.46 69.87L97.45 69.65L97.39 69.44L97.3 69.22L97.16 69L96.98 68.78L96.75 68.56L96.49 68.34L96.18 68.12L95.83 67.9L95.34 67.63L94.82 67.39L94.26 67.16L93.68 66.96L93.06 66.78L92.41 66.63L91.73 66.5L91.01 66.39L90.27 66.3L89.49 66.23L88.68 66.19L87.83 66.17L86.99 66.18L86.18 66.2Z" id="a2Bmp3Lnl9"></path><path d="M97.03 71.26L97.24 71.3L97.45 71.34L98.53 71.7L99.29 72.22L99.73 72.92L99.85 73.8L99.84 73.95L99.82 74.11L99.79 74.27L99.76 74.43L99.39 73.75L98.73 73.21L97.79 72.84L96.57 72.62L96.57 71.2L96.8 71.23L97.03 71.26Z" id="bvQRYRhls"></path><path d="M164.99 39.36L164.99 39.38L165 39.41L165 39.43L165 39.45L165 39.47L165 39.49L165 39.51L165 39.53L165 39.55L165 39.57L164.99 39.59L164.99 39.62L164.99 39.64L164.96 40.02L164.88 40.4L164.77 40.77L164.62 41.14L164.44 41.51L164.22 41.86L163.96 42.22L163.66 42.56L163.33 42.91L162.95 43.24L162.55 43.57L162.1 43.9L161.62 44.22L161.1 44.53L160.56 44.83L160.03 45.1L159.51 45.33L158.98 45.53L158.47 45.7L157.96 45.84L157.45 45.94L156.95 46.02L156.46 46.06L155.96 46.06L155.48 46.04L155 45.99L154.52 45.9L154.05 45.78L153.76 45.98L153.45 46.17L153.11 46.34L152.76 46.5L152.38 46.64L151.99 46.77L151.57 46.89L151.13 46.99L150.68 47.08L150.2 47.16L149.7 47.22L149.19 47.26L148.65 47.29L148.09 47.31L147.52 47.31L146.94 47.28L146.35 47.23L145.76 47.15L145.16 47.05L144.56 46.92L143.95 46.77L143.33 46.59L142.71 46.38L142.08 46.15L141.44 45.89L140.8 45.61L140.15 45.3L139.5 44.97L138.88 44.64L138.32 44.3L137.8 43.96L137.32 43.63L136.89 43.28L136.5 42.94L136.16 42.6L135.86 42.25L135.6 41.9L135.39 41.55L135.23 41.19L135.11 40.84L135.03 40.48L135 40.12L135 40.11L135 40.11L135 40.1L135 40.09L135 40.08L135 40.07L135 40.06L135 40.06L135 40.05L135 40.05L135 38.69L135.01 38.73L135.01 38.78L135.01 38.82L135.01 38.87L135.02 38.91L135.02 38.96L135.03 39L135.03 39.05L135.04 39.09L135.05 39.14L135.06 39.18L135.06 39.22L135.07 39.27L135.08 39.31L135.18 39.63L135.3 39.94L135.46 40.25L135.66 40.56L135.88 40.87L136.15 41.17L136.45 41.47L136.78 41.78L137.14 42.08L137.55 42.38L137.98 42.67L138.45 42.97L138.96 43.26L139.5 43.55L140.15 43.89L140.8 44.2L141.44 44.48L142.08 44.73L142.71 44.97L143.33 45.17L143.95 45.35L144.56 45.51L145.16 45.63L145.76 45.74L146.35 45.82L146.94 45.87L147.52 45.9L148.09 45.9L148.63 45.88L149.16 45.85L149.67 45.8L150.15 45.75L150.62 45.68L151.07 45.59L151.5 45.49L151.91 45.38L152.3 45.26L152.67 45.12L153.02 44.97L153.35 44.8L153.66 44.62L153.96 44.43L153.96 44.43L153.98 44.42L153.98 44.41L153.99 44.41L154 44.4L154.01 44.4L154.02 44.39L154.03 44.38L154.03 44.38L154.04 44.37L154.05 44.37L154.05 44.36L154.17 44.4L154.3 44.43L154.42 44.46L154.54 44.49L154.67 44.52L154.79 44.54L154.91 44.56L155.04 44.58L155.16 44.6L155.29 44.61L155.42 44.63L155.54 44.64L155.67 44.65L155.8 44.65L156.16 44.66L156.52 44.64L156.89 44.61L157.26 44.56L157.63 44.5L158 44.41L158.38 44.31L158.76 44.19L159.14 44.06L159.53 43.91L159.92 43.74L160.31 43.55L160.7 43.34L161.1 43.12L161.57 42.84L162.01 42.55L162.41 42.26L162.79 41.96L163.14 41.66L163.46 41.36L163.75 41.05L164.01 40.74L164.24 40.42L164.44 40.1L164.61 39.77L164.75 39.44L164.85 39.11L164.93 38.77L164.94 38.73L164.95 38.69L164.95 38.65L164.96 38.61L164.96 38.57L164.97 38.53L164.97 38.5L164.97 38.46L164.98 38.42L164.98 38.38L164.98 38.34L164.99 38.3L164.99 38.26L164.99 38.22L164.99 38.22L164.99 39.34L164.99 39.36Z" id="crsRzsThQ"></path><path d="M151.25 28.98L152.05 29.01L152.82 29.07L153.57 29.13L154.29 29.22L154.98 29.32L155.66 29.45L156.3 29.59L156.92 29.74L157.52 29.92L158.09 30.11L158.64 30.32L159.16 30.55L159.65 30.79L160.13 31.06L160.5 31.29L160.84 31.52L161.14 31.74L161.42 31.97L161.66 32.19L161.86 32.41L162.04 32.63L162.18 32.85L162.28 33.07L162.35 33.29L162.39 33.5L162.4 33.71L162.37 33.92L162.31 34.13L162.22 34.34L162.2 34.38L162.18 34.41L162.15 34.45L162.13 34.49L162.11 34.52L162.08 34.56L162.05 34.6L162.03 34.63L162 34.67L161.97 34.7L161.94 34.74L161.91 34.78L161.87 34.81L161.84 34.85L161.8 34.89L161.85 34.89L161.89 34.9L161.93 34.91L161.97 34.92L162.01 34.93L162.05 34.94L162.09 34.95L162.13 34.96L162.17 34.96L162.21 34.97L162.25 34.98L162.29 34.99L162.33 35L162.36 35.02L162.4 35.03L162.73 35.13L163.04 35.24L163.33 35.37L163.59 35.51L163.83 35.67L164.05 35.84L164.25 36.03L164.42 36.23L164.57 36.44L164.7 36.67L164.8 36.91L164.89 37.16L164.95 37.43L164.98 37.71L165 38.01L165 38.02L165 38.04L165 38.05L165 38.06L165 38.08L165 38.09L165 38.11L165 38.12L165 38.14L165 38.15L165 38.16L165 38.18L164.99 38.21L164.99 38.22L164.99 38.26L164.99 38.29L164.99 38.33L164.98 38.37L164.98 38.4L164.98 38.44L164.97 38.48L164.97 38.51L164.96 38.55L164.96 38.59L164.96 38.62L164.95 38.66L164.94 38.69L164.94 38.73L164.93 38.77L164.86 39.08L164.76 39.4L164.64 39.7L164.49 40.01L164.31 40.31L164.1 40.61L163.87 40.9L163.62 41.19L163.34 41.48L163.03 41.76L162.69 42.04L162.33 42.32L161.95 42.59L161.54 42.86L161.1 43.12L160.73 43.33L160.36 43.52L159.99 43.7L159.63 43.86L159.27 44.01L158.91 44.14L158.56 44.26L158.2 44.36L157.85 44.45L157.5 44.52L157.16 44.58L156.81 44.62L156.47 44.64L156.13 44.66L155.8 44.65L155.68 44.65L155.56 44.64L155.44 44.63L155.32 44.62L155.21 44.6L155.09 44.59L154.97 44.57L154.86 44.55L154.74 44.53L154.62 44.51L154.51 44.48L154.39 44.46L154.28 44.43L154.17 44.4L154.05 44.36L154.05 44.37L154.04 44.37L154.03 44.38L154.03 44.38L154.02 44.39L154.01 44.4L154 44.4L154 44.41L153.99 44.41L153.98 44.41L153.97 44.42L153.96 44.43L153.96 44.43L153.68 44.61L153.39 44.78L153.09 44.93L152.76 45.08L152.42 45.21L152.07 45.33L151.69 45.44L151.3 45.54L150.89 45.63L150.47 45.7L150.03 45.76L149.57 45.81L149.09 45.85L148.6 45.88L148.09 45.9L147.55 45.9L147.01 45.87L146.47 45.83L145.92 45.76L145.36 45.67L144.8 45.56L144.23 45.43L143.66 45.27L143.08 45.09L142.5 44.89L141.91 44.67L141.31 44.42L140.71 44.16L140.11 43.87L139.5 43.55L138.99 43.28L138.52 43.01L138.07 42.73L137.66 42.45L137.27 42.18L136.92 41.9L136.6 41.61L136.3 41.33L136.04 41.05L135.8 40.76L135.6 40.48L135.43 40.19L135.28 39.9L135.17 39.61L135.08 39.31L135.08 39.27L135.07 39.23L135.06 39.19L135.05 39.15L135.04 39.11L135.04 39.06L135.03 39.02L135.02 38.98L135.02 38.94L135.02 38.9L135.01 38.85L135.01 38.81L135.01 38.77L135 38.73L135 38.69L135 38.65L135 38.64L135 38.63L135 38.62L135 38.62L135 38.61L135 38.6L135 38.59L135 38.58L135 38.58L135 38.5L135.03 38.16L135.09 37.84L135.18 37.53L135.3 37.23L135.45 36.94L135.63 36.66L135.84 36.39L136.09 36.14L136.36 35.89L136.66 35.66L136.99 35.44L137.35 35.23L137.75 35.03L138.17 34.84L138.63 34.66L138.67 34.64L138.71 34.63L138.73 34.62L138.75 34.61L138.79 34.6L138.81 34.59L138.86 34.57L138.9 34.56L138.94 34.54L138.93 34.52L138.92 34.5L138.9 34.48L138.89 34.46L138.88 34.44L138.86 34.42L138.85 34.4L138.84 34.38L138.83 34.36L138.82 34.34L138.81 34.32L138.8 34.3L138.79 34.28L138.78 34.26L138.77 34.24L138.68 34.02L138.62 33.8L138.6 33.57L138.61 33.35L138.65 33.13L138.73 32.9L138.84 32.67L138.98 32.45L139.16 32.22L139.37 31.99L139.62 31.76L139.9 31.52L140.21 31.29L140.56 31.06L140.94 30.82L141.38 30.57L141.86 30.34L142.35 30.13L142.88 29.94L143.43 29.76L144.01 29.6L144.62 29.46L145.25 29.34L145.91 29.23L146.6 29.14L147.31 29.07L148.05 29.02L148.82 28.98L149.61 28.97L150.43 28.97L151.25 28.98ZM148.73 30.48L147.96 30.53L147.22 30.6L146.52 30.7L145.85 30.81L145.21 30.95L144.61 31.11L144.04 31.3L143.51 31.51L143.01 31.74L142.55 31.99L142.19 32.22L141.88 32.45L141.6 32.67L141.38 32.89L141.19 33.12L141.05 33.34L140.95 33.56L140.89 33.78L140.88 34L140.91 34.22L140.99 34.44L141.11 34.66L141.13 34.69L141.15 34.73L141.18 34.77L141.21 34.8L141.23 34.84L141.26 34.87L141.29 34.91L141.33 34.94L141.36 34.98L141.39 35.01L141.43 35.05L141.47 35.09L141.46 35.09L141.46 35.09L141.46 35.09L141.45 35.09L141.4 35.11L141.36 35.12L141.31 35.13L141.26 35.15L141.21 35.16L141.16 35.18L141.12 35.19L141.07 35.21L141.02 35.22L140.98 35.24L140.93 35.25L140.89 35.27L140.38 35.45L139.92 35.64L139.5 35.85L139.13 36.07L138.79 36.3L138.5 36.55L138.25 36.81L138.05 37.08L137.89 37.37L137.77 37.67L137.69 37.98L137.65 38.31L137.65 38.38L137.65 38.45L137.65 38.52L137.66 38.59L137.66 38.65L137.67 38.72L137.68 38.79L137.69 38.86L137.7 38.93L137.72 38.99L137.74 39.06L137.76 39.13L137.86 39.42L138 39.7L138.17 39.99L138.38 40.27L138.63 40.56L138.91 40.84L139.23 41.12L139.59 41.39L139.98 41.67L140.4 41.94L140.87 42.22L141.37 42.49L141.99 42.81L142.62 43.09L143.23 43.36L143.84 43.59L144.44 43.79L145.03 43.97L145.62 44.12L146.2 44.23L146.77 44.32L147.34 44.39L147.9 44.42L148.45 44.42L148.99 44.4L149.5 44.36L149.99 44.3L150.46 44.21L150.9 44.11L151.32 43.99L151.72 43.84L152.1 43.68L152.45 43.49L152.78 43.29L153.08 43.06L153.37 42.81L153.82 42.98L154.28 43.1L154.75 43.19L155.22 43.23L155.7 43.24L156.18 43.2L156.67 43.12L157.16 43.01L157.66 42.85L158.16 42.65L158.68 42.41L159.19 42.13L159.62 41.87L160.01 41.61L160.38 41.34L160.72 41.07L161.02 40.79L161.3 40.5L161.54 40.22L161.75 39.92L161.94 39.63L162.09 39.33L162.21 39.02L162.31 38.71L162.32 38.66L162.33 38.6L162.34 38.55L162.35 38.5L162.36 38.44L162.36 38.39L162.37 38.34L162.38 38.29L162.38 38.23L162.39 38.18L162.39 38.13L162.39 38.08L162.39 37.76L162.35 37.47L162.27 37.2L162.16 36.95L162.01 36.72L161.83 36.5L161.62 36.31L161.36 36.13L161.08 35.98L160.75 35.84L160.39 35.72L160 35.62L159.93 35.61L159.86 35.59L159.79 35.58L159.72 35.57L159.65 35.56L159.57 35.54L159.5 35.53L159.43 35.52L159.35 35.51L159.27 35.5L159.2 35.49L159.12 35.48L159.11 35.48L159.18 35.43L159.25 35.37L159.32 35.31L159.38 35.25L159.44 35.2L159.5 35.14L159.55 35.08L159.6 35.02L159.65 34.97L159.7 34.91L159.74 34.85L159.78 34.8L159.9 34.58L159.97 34.37L160 34.15L159.99 33.93L159.94 33.71L159.84 33.5L159.71 33.28L159.52 33.06L159.3 32.84L159.03 32.62L158.73 32.4L158.37 32.18L157.88 31.91L157.36 31.67L156.81 31.44L156.23 31.24L155.61 31.06L154.96 30.91L154.27 30.78L153.56 30.67L152.81 30.58L152.03 30.51L151.22 30.47L150.38 30.45L149.54 30.46L148.73 30.48Z" id="b9PEkaH9"></path><path d="M159.57 35.54L159.79 35.58L160 35.62L161.08 35.98L161.83 36.5L162.27 37.2L162.39 38.08L162.38 38.23L162.36 38.39L162.34 38.55L162.31 38.71L161.93 38.02L161.28 37.49L160.34 37.12L159.12 36.9L159.12 35.48L159.35 35.51L159.57 35.54Z" id="aOWAPm4sS"></path><path d="M174.17 96.7L174.17 96.72L174.17 96.75L174.17 96.77L174.17 96.79L174.17 96.81L174.17 96.83L174.17 96.85L174.17 96.87L174.17 96.89L174.17 96.91L174.17 96.94L174.17 96.96L174.17 96.98L174.13 97.36L174.06 97.74L173.95 98.11L173.8 98.48L173.62 98.85L173.39 99.2L173.13 99.56L172.84 99.9L172.5 100.25L172.13 100.58L171.72 100.91L171.28 101.24L170.8 101.56L170.28 101.87L169.74 102.17L169.21 102.44L168.68 102.67L168.16 102.87L167.65 103.04L167.13 103.18L166.63 103.28L166.13 103.36L165.63 103.4L165.14 103.41L164.66 103.38L164.18 103.33L163.7 103.24L163.23 103.12L162.94 103.32L162.62 103.51L162.29 103.68L161.93 103.84L161.56 103.98L161.16 104.11L160.75 104.23L160.31 104.33L159.85 104.42L159.38 104.5L158.88 104.56L158.36 104.6L157.82 104.63L157.27 104.65L156.69 104.65L156.11 104.62L155.53 104.57L154.94 104.49L154.34 104.39L153.74 104.26L153.13 104.11L152.51 103.93L151.88 103.72L151.26 103.49L150.62 103.23L149.98 102.95L149.33 102.64L148.67 102.31L148.06 101.98L147.5 101.64L146.97 101.31L146.5 100.97L146.06 100.63L145.68 100.28L145.33 99.94L145.03 99.59L144.78 99.24L144.57 98.89L144.41 98.53L144.29 98.18L144.21 97.82L144.18 97.46L144.18 97.45L144.18 97.45L144.18 97.44L144.18 97.43L144.18 97.42L144.18 97.41L144.18 97.41L144.18 97.4L144.18 97.4L144.18 97.39L144.18 96.03L144.18 96.07L144.18 96.12L144.19 96.16L144.19 96.21L144.19 96.25L144.2 96.3L144.2 96.34L144.21 96.39L144.22 96.43L144.23 96.48L144.23 96.52L144.24 96.56L144.25 96.61L144.26 96.65L144.35 96.97L144.48 97.28L144.64 97.59L144.83 97.9L145.06 98.21L145.32 98.51L145.62 98.81L145.95 99.12L146.32 99.42L146.72 99.72L147.16 100.01L147.63 100.31L148.13 100.6L148.67 100.9L149.33 101.23L149.98 101.54L150.62 101.82L151.26 102.08L151.88 102.31L152.51 102.51L153.13 102.69L153.74 102.85L154.34 102.98L154.94 103.08L155.53 103.16L156.11 103.21L156.69 103.24L157.27 103.24L157.81 103.22L158.34 103.19L158.84 103.14L159.33 103.09L159.8 103.02L160.25 102.93L160.68 102.83L161.09 102.72L161.48 102.6L161.85 102.46L162.2 102.31L162.53 102.14L162.84 101.96L163.13 101.77L163.14 101.77L163.15 101.76L163.16 101.75L163.17 101.75L163.18 101.74L163.18 101.74L163.2 101.73L163.2 101.73L163.21 101.72L163.22 101.72L163.22 101.71L163.23 101.71L163.35 101.74L163.47 101.77L163.6 101.8L163.72 101.83L163.84 101.86L163.97 101.88L164.09 101.9L164.22 101.92L164.34 101.94L164.47 101.95L164.59 101.97L164.72 101.98L164.85 101.99L164.97 101.99L165.33 102L165.7 101.98L166.06 101.95L166.43 101.9L166.81 101.84L167.18 101.75L167.56 101.65L167.94 101.54L168.32 101.4L168.71 101.25L169.09 101.08L169.48 100.89L169.88 100.68L170.27 100.46L170.74 100.18L171.18 99.89L171.59 99.6L171.97 99.3L172.32 99L172.64 98.7L172.93 98.39L173.19 98.08L173.42 97.76L173.61 97.44L173.78 97.11L173.92 96.78L174.03 96.45L174.11 96.11L174.12 96.07L174.12 96.03L174.13 95.99L174.13 95.95L174.14 95.91L174.14 95.87L174.15 95.84L174.15 95.8L174.16 95.76L174.16 95.72L174.16 95.68L174.16 95.64L174.17 95.6L174.17 95.56L174.17 95.56L174.17 96.68L174.17 96.7Z" id="a7RKbiMIH7"></path><path d="M160.43 86.32L161.22 86.35L162 86.41L162.74 86.47L163.46 86.56L164.16 86.67L164.83 86.79L165.48 86.93L166.1 87.08L166.7 87.26L167.27 87.45L167.81 87.66L168.34 87.89L168.83 88.13L169.3 88.4L169.68 88.63L170.02 88.86L170.32 89.08L170.59 89.31L170.83 89.53L171.04 89.75L171.21 89.97L171.35 90.19L171.46 90.41L171.53 90.63L171.57 90.84L171.58 91.05L171.55 91.26L171.49 91.47L171.39 91.68L171.37 91.72L171.35 91.75L171.33 91.79L171.31 91.83L171.28 91.86L171.26 91.9L171.23 91.94L171.2 91.97L171.17 92.01L171.14 92.05L171.11 92.08L171.08 92.12L171.05 92.15L171.02 92.19L170.98 92.23L171.02 92.23L171.07 92.24L171.11 92.25L171.15 92.26L171.19 92.27L171.23 92.28L171.27 92.29L171.31 92.3L171.35 92.31L171.39 92.32L171.43 92.33L171.46 92.34L171.5 92.35L171.54 92.36L171.58 92.37L171.91 92.47L172.22 92.58L172.5 92.71L172.77 92.86L173.01 93.01L173.23 93.18L173.42 93.37L173.6 93.57L173.75 93.78L173.88 94.01L173.98 94.25L174.06 94.5L174.12 94.77L174.16 95.05L174.18 95.35L174.18 95.36L174.18 95.38L174.18 95.39L174.18 95.4L174.18 95.42L174.18 95.43L174.18 95.45L174.18 95.46L174.17 95.48L174.17 95.49L174.17 95.5L174.17 95.52L174.17 95.55L174.17 95.56L174.17 95.6L174.17 95.64L174.16 95.67L174.16 95.71L174.16 95.74L174.15 95.78L174.15 95.82L174.15 95.85L174.14 95.89L174.14 95.93L174.13 95.96L174.13 96L174.12 96.03L174.12 96.07L174.11 96.11L174.04 96.42L173.94 96.74L173.81 97.05L173.66 97.35L173.48 97.65L173.28 97.95L173.05 98.24L172.8 98.53L172.51 98.82L172.21 99.1L171.87 99.38L171.51 99.66L171.13 99.93L170.71 100.2L170.27 100.46L169.9 100.67L169.54 100.86L169.17 101.04L168.81 101.2L168.45 101.35L168.09 101.48L167.73 101.6L167.38 101.7L167.03 101.79L166.68 101.86L166.34 101.92L165.99 101.96L165.65 101.99L165.31 102L164.97 101.99L164.85 101.99L164.74 101.98L164.62 101.97L164.5 101.96L164.38 101.94L164.27 101.93L164.15 101.91L164.03 101.89L163.92 101.87L163.8 101.85L163.69 101.82L163.57 101.8L163.46 101.77L163.34 101.74L163.23 101.7L163.22 101.71L163.22 101.71L163.21 101.72L163.2 101.72L163.2 101.73L163.19 101.74L163.18 101.74L163.17 101.75L163.17 101.75L163.16 101.75L163.15 101.76L163.14 101.77L163.13 101.77L162.86 101.95L162.57 102.12L162.26 102.27L161.94 102.42L161.6 102.55L161.24 102.67L160.87 102.78L160.48 102.88L160.07 102.97L159.64 103.04L159.2 103.1L158.74 103.15L158.27 103.19L157.77 103.22L157.27 103.24L156.73 103.24L156.19 103.21L155.65 103.17L155.1 103.1L154.54 103.01L153.98 102.9L153.41 102.77L152.84 102.61L152.26 102.43L151.68 102.23L151.09 102.01L150.49 101.76L149.89 101.5L149.28 101.21L148.67 100.89L148.17 100.62L147.69 100.35L147.25 100.07L146.84 99.8L146.45 99.52L146.1 99.24L145.77 98.96L145.48 98.67L145.22 98.39L144.98 98.1L144.78 97.82L144.6 97.53L144.46 97.24L144.35 96.95L144.26 96.65L144.25 96.61L144.24 96.57L144.24 96.53L144.23 96.49L144.22 96.45L144.21 96.4L144.21 96.36L144.2 96.32L144.2 96.28L144.19 96.24L144.19 96.2L144.19 96.15L144.18 96.11L144.18 96.07L144.18 96.03L144.18 95.99L144.18 95.98L144.18 95.97L144.18 95.96L144.18 95.96L144.18 95.95L144.18 95.94L144.18 95.93L144.18 95.92L144.18 95.92L144.18 95.84L144.21 95.5L144.27 95.18L144.36 94.87L144.48 94.57L144.63 94.28L144.81 94L145.02 93.74L145.26 93.48L145.53 93.23L145.84 93L146.17 92.78L146.53 92.57L146.93 92.37L147.35 92.18L147.8 92L147.84 91.98L147.89 91.97L147.91 91.96L147.93 91.95L147.97 91.94L147.99 91.93L148.03 91.91L148.08 91.9L148.12 91.88L148.11 91.86L148.09 91.84L148.08 91.82L148.07 91.8L148.05 91.78L148.04 91.76L148.03 91.74L148.02 91.72L148.01 91.7L148 91.68L147.98 91.66L147.97 91.64L147.96 91.62L147.95 91.6L147.94 91.58L147.85 91.36L147.8 91.14L147.77 90.91L147.78 90.69L147.83 90.47L147.91 90.24L148.02 90.01L148.16 89.79L148.34 89.56L148.55 89.33L148.8 89.1L149.08 88.86L149.39 88.63L149.74 88.4L150.11 88.16L150.56 87.91L151.03 87.68L151.53 87.47L152.06 87.28L152.61 87.1L153.19 86.94L153.79 86.8L154.43 86.68L155.09 86.57L155.77 86.48L156.49 86.41L157.23 86.36L157.99 86.32L158.79 86.31L159.61 86.31L160.43 86.32ZM157.91 87.82L157.14 87.87L156.4 87.94L155.69 88.04L155.02 88.15L154.39 88.29L153.79 88.46L153.22 88.64L152.69 88.85L152.19 89.08L151.73 89.33L151.37 89.56L151.05 89.79L150.78 90.01L150.55 90.23L150.37 90.46L150.23 90.68L150.13 90.9L150.07 91.12L150.06 91.34L150.09 91.56L150.17 91.78L150.28 92L150.31 92.03L150.33 92.07L150.36 92.11L150.38 92.14L150.41 92.18L150.44 92.21L150.47 92.25L150.5 92.28L150.54 92.32L150.57 92.35L150.61 92.39L150.65 92.43L150.64 92.43L150.64 92.43L150.64 92.43L150.63 92.43L150.58 92.45L150.53 92.46L150.48 92.48L150.44 92.49L150.39 92.5L150.34 92.52L150.29 92.53L150.25 92.55L150.2 92.56L150.16 92.58L150.11 92.59L150.06 92.61L149.56 92.79L149.1 92.98L148.68 93.19L148.3 93.41L147.97 93.64L147.68 93.89L147.43 94.15L147.23 94.42L147.06 94.71L146.94 95.01L146.87 95.32L146.83 95.65L146.83 95.72L146.83 95.79L146.83 95.86L146.83 95.93L146.84 95.99L146.85 96.06L146.86 96.13L146.87 96.2L146.88 96.27L146.9 96.33L146.91 96.4L146.93 96.47L147.04 96.76L147.18 97.05L147.35 97.33L147.56 97.61L147.81 97.9L148.09 98.18L148.41 98.46L148.76 98.73L149.15 99.01L149.58 99.28L150.04 99.56L150.54 99.83L151.17 100.15L151.79 100.44L152.41 100.7L153.01 100.93L153.62 101.13L154.21 101.31L154.8 101.46L155.38 101.58L155.95 101.67L156.51 101.73L157.07 101.76L157.63 101.76L158.16 101.74L158.68 101.7L159.17 101.64L159.64 101.56L160.08 101.45L160.5 101.33L160.9 101.18L161.27 101.02L161.63 100.83L161.96 100.63L162.26 100.4L162.54 100.15L163 100.32L163.46 100.44L163.92 100.53L164.4 100.57L164.87 100.58L165.36 100.54L165.84 100.46L166.34 100.35L166.84 100.19L167.34 99.99L167.85 99.75L168.37 99.47L168.8 99.21L169.19 98.95L169.56 98.68L169.89 98.41L170.2 98.13L170.47 97.84L170.72 97.56L170.93 97.26L171.11 96.97L171.27 96.67L171.39 96.36L171.48 96.05L171.49 96L171.51 95.94L171.52 95.89L171.53 95.84L171.53 95.79L171.54 95.73L171.55 95.68L171.56 95.63L171.56 95.57L171.56 95.52L171.57 95.47L171.57 95.42L171.57 95.11L171.53 94.81L171.45 94.54L171.34 94.29L171.19 94.06L171.01 93.84L170.79 93.65L170.54 93.47L170.25 93.32L169.93 93.18L169.57 93.06L169.18 92.96L169.11 92.95L169.04 92.93L168.97 92.92L168.9 92.91L168.82 92.9L168.75 92.88L168.68 92.87L168.6 92.86L168.53 92.85L168.45 92.84L168.37 92.83L168.29 92.82L168.29 92.82L168.36 92.77L168.43 92.71L168.49 92.65L168.56 92.59L168.62 92.54L168.68 92.48L168.73 92.42L168.78 92.37L168.83 92.31L168.87 92.25L168.92 92.2L168.96 92.14L169.07 91.92L169.15 91.71L169.18 91.49L169.17 91.27L169.12 91.06L169.02 90.84L168.88 90.62L168.7 90.4L168.48 90.18L168.21 89.96L167.9 89.74L167.55 89.52L167.06 89.25L166.54 89.01L165.99 88.78L165.4 88.58L164.78 88.4L164.13 88.25L163.45 88.12L162.74 88.01L161.99 87.92L161.21 87.85L160.4 87.81L159.55 87.79L158.71 87.8L157.91 87.82Z" id="g10ha5E4xi"></path><path d="M168.75 92.88L168.97 92.92L169.18 92.96L170.25 93.32L171.01 93.84L171.45 94.54L171.57 95.42L171.56 95.57L171.54 95.73L171.52 95.89L171.48 96.05L171.11 95.36L170.45 94.83L169.51 94.46L168.29 94.24L168.29 92.82L168.53 92.85L168.75 92.88Z" id="a2yrMPAJDt"></path></defs><g><g><g><g><use xlink:href="#bA1YRZlZE" opacity="1" fill="#d75d27" fill-opacity="1"></use><g><use xlink:href="#bA1YRZlZE" opacity="1" fill-opacity="0" stroke="#000000" stroke-width="1" stroke-opacity="0"></use></g></g><g><use xlink:href="#e2gO2hz96l" opacity="1" fill="#f58857" fill-opacity="1"></use><g><use xlink:href="#e2gO2hz96l" opacity="1" fill-opacity="0" stroke="#000000" stroke-width="1" stroke-opacity="0"></use></g></g><g><use xlink:href="#c6F4EcXvFt" opacity="1" fill="#d95d2e" fill-opacity="1"></use><g><use xlink:href="#c6F4EcXvFt" opacity="1" fill-opacity="0" stroke="#000000" stroke-width="1" stroke-opacity="0"></use></g></g></g><g><g><use xlink:href="#a1mLFrcOdM" opacity="1" fill="#d75d27" fill-opacity="1"></use><g><use xlink:href="#a1mLFrcOdM" opacity="1" fill-opacity="0" stroke="#000000" stroke-width="1" stroke-opacity="0"></use></g></g><g><use xlink:href="#a2Bmp3Lnl9" opacity="1" fill="#f58857" fill-opacity="1"></use><g><use xlink:href="#a2Bmp3Lnl9" opacity="1" fill-opacity="0" stroke="#000000" stroke-width="1" stroke-opacity="0"></use></g></g><g><use xlink:href="#bvQRYRhls" opacity="1" fill="#d95d2e" fill-opacity="1"></use><g><use xlink:href="#bvQRYRhls" opacity="1" fill-opacity="0" stroke="#000000" stroke-width="1" stroke-opacity="0"></use></g></g></g><g><g><use xlink:href="#crsRzsThQ" opacity="1" fill="#d75d27" fill-opacity="1"></use><g><use xlink:href="#crsRzsThQ" opacity="1" fill-opacity="0" stroke="#000000" stroke-width="1" stroke-opacity="0"></use></g></g><g><use xlink:href="#b9PEkaH9" opacity="1" fill="#f58857" fill-opacity="1"></use><g><use xlink:href="#b9PEkaH9" opacity="1" fill-opacity="0" stroke="#000000" stroke-width="1" stroke-opacity="0"></use></g></g><g><use xlink:href="#aOWAPm4sS" opacity="1" fill="#d95d2e" fill-opacity="1"></use><g><use xlink:href="#aOWAPm4sS" opacity="1" fill-opacity="0" stroke="#000000" stroke-width="1" stroke-opacity="0"></use></g></g></g><g><g><use xlink:href="#a7RKbiMIH7" opacity="1" fill="#d75d27" fill-opacity="1"></use><g><use xlink:href="#a7RKbiMIH7" opacity="1" fill-opacity="0" stroke="#000000" stroke-width="1" stroke-opacity="0"></use></g></g><g><use xlink:href="#g10ha5E4xi" opacity="1" fill="#f58857" fill-opacity="1"></use><g><use xlink:href="#g10ha5E4xi" opacity="1" fill-opacity="0" stroke="#000000" stroke-width="1" stroke-opacity="0"></use></g></g><g><use xlink:href="#a2yrMPAJDt" opacity="1" fill="#d95d2e" fill-opacity="1"></use><g><use xlink:href="#a2yrMPAJDt" opacity="1" fill-opacity="0" stroke="#000000" stroke-width="1" stroke-opacity="0"></use></g></g></g></g></g></svg>