<?xml version="1.0" encoding="UTF-8" standalone="no"?>
<!DOCTYPE svg PUBLIC "-//W3C//DTD SVG 1.1//EN" "http://www.w3.org/Graphics/SVG/1.1/DTD/svg11.dtd">
<svg version="1.1" xmlns="http://www.w3.org/2000/svg" xmlns:xlink="http://www.w3.org/1999/xlink" preserveAspectRatio="xMidYMid meet" viewBox="0 0 300 150" width="300" height="150"><defs><path d="M75.54 61.83L75.54 63.52L78.82 65.35L78.82 63.7L78.82 63.68L75.56 61.83L75.54 61.83Z" id="a11Eg0wkhM"></path><path d="M92.15 59.92C90.27 62.79 88.7 64.56 87.43 65.26C86.54 65.75 85.16 66.07 83.27 66.24C82.97 66.07 81.5 65.22 78.84 63.7L78.82 63.7L78.82 65.36C81.49 66.85 82.97 67.67 83.27 67.84C85.76 67.7 87.53 67.35 88.59 66.78C89.86 66.09 91.44 64.31 93.33 61.44C95.25 58.49 96.97 56.56 98.47 55.65C100.01 54.71 102.53 54.16 106.02 54.01C107.9 53.95 109.2 53.86 109.93 53.76C110.11 53.73 110.29 53.71 110.45 53.68C110.45 53.5 110.45 52.09 110.45 51.91C109.94 52.05 109.37 52.16 108.76 52.24C108.04 52.34 106.74 52.42 104.87 52.49C101.38 52.64 98.85 53.19 97.3 54.12C95.8 55.04 94.09 56.97 92.15 59.92Z" id="a3CH1rqkwx"></path><path d="M97.28 54.82C98.83 53.88 101.35 53.33 104.85 53.18C106.72 53.11 108.02 53.03 108.74 52.93C109.36 52.85 109.92 52.74 110.43 52.6C110.46 52.6 110.49 52.59 110.51 52.58C110.07 52.33 106.56 50.28 106.12 50.02C105.55 50.19 104.93 50.31 104.25 50.4C103.53 50.49 102.23 50.58 100.36 50.65C96.86 50.8 94.34 51.34 92.79 52.27C91.3 53.2 89.58 55.13 87.64 58.07C85.77 60.95 84.19 62.73 82.92 63.41C82.05 63.88 80.68 64.21 78.82 64.39C79.26 64.65 82.81 66.68 83.25 66.93C85.14 66.77 86.53 66.44 87.41 65.95C88.68 65.26 90.25 63.48 92.13 60.61C94.07 57.66 95.79 55.73 97.28 54.82Z" id="bss8Su6yO"></path><path d="M101.23 47.82C100.51 47.91 99.21 48 97.33 48.07C93.84 48.21 91.32 48.76 89.76 49.71C88.27 50.62 86.56 52.55 84.62 55.49C82.74 58.37 81.17 60.15 79.9 60.85C79 61.33 77.55 61.66 75.56 61.83C75.78 61.95 76.86 62.57 78.82 63.68C78.83 63.69 78.84 63.7 78.84 63.7C80.7 63.52 82.07 63.19 82.94 62.71C84.21 62.03 85.79 60.25 87.66 57.38C89.6 54.44 91.32 52.5 92.81 51.58C94.36 50.64 96.88 50.1 100.38 49.96C102.25 49.88 103.55 49.8 104.27 49.71C104.95 49.62 105.57 49.49 106.14 49.32C105.93 49.2 104.88 48.59 103 47.48C102.25 47.66 101.66 47.77 101.23 47.82Z" id="e1i9HVvpxH"></path><path d="M103 47.48C102.47 47.17 98.23 44.69 97.7 44.38C97.11 44.55 96.45 44.69 95.74 44.78C95 44.87 93.7 44.95 91.82 45.03C88.33 45.17 85.81 45.72 84.27 46.67C82.77 47.58 81.05 49.51 79.13 52.45C77.24 55.32 75.66 57.11 74.39 57.8C73.51 58.28 72.13 58.6 70.23 58.77C70.58 58.97 72.35 59.99 75.54 61.83C75.55 61.83 75.56 61.83 75.56 61.83C77.55 61.66 79 61.34 79.9 60.85C81.17 60.15 82.74 58.37 84.62 55.49C86.56 52.55 88.27 50.62 89.76 49.71C91.32 48.76 93.84 48.21 97.34 48.07C99.21 48 100.51 47.91 101.23 47.82C101.87 47.75 102.46 47.63 103 47.48Z" id="b9IEETCNI"></path><path d="M70.23 60.54L75.54 63.52L75.54 61.83L70.23 58.77L70.23 60.54Z" id="b1lgo9Ow1k"></path><path d="M70.23 60.54L70.23 58.76L66.53 56.66L66.53 58.48L70.23 60.54Z" id="ahl7en8oE"></path><path d="M66.51 56.67L60.53 53.54L60.53 55.43L66.53 58.48L66.53 56.67L66.51 56.67Z" id="iXMGMC7Ep"></path><path d="M66.53 56.66C66.9 56.87 69.86 58.55 70.23 58.76C72.13 58.6 73.51 58.28 74.39 57.8C75.66 57.11 77.24 55.32 79.13 52.44C81.05 49.5 82.77 47.58 84.27 46.66C85.81 45.71 88.33 45.17 91.82 45.03C93.7 44.95 95 44.87 95.74 44.78C96.45 44.69 97.11 44.55 97.7 44.37C97.35 44.17 94.51 42.5 94.15 42.29C93.65 42.42 93.11 42.52 92.54 42.6C91.82 42.7 90.52 42.79 88.64 42.85C85.14 43.01 82.61 43.55 81.07 44.49C79.58 45.4 77.87 47.33 75.93 50.29C74.05 53.15 72.48 54.93 71.21 55.62C70.26 56.14 68.7 56.48 66.53 56.66Z" id="d1mLv5RH4"></path><path d="M71.21 55.63C72.48 54.93 74.05 53.15 75.93 50.29C77.87 47.34 79.58 45.4 81.07 44.49C82.61 43.55 85.14 43.01 88.65 42.85C90.52 42.79 91.82 42.71 92.54 42.6C93.12 42.53 93.65 42.42 94.16 42.3C93.56 41.95 88.78 39.14 88.18 38.79C87.66 38.94 87.08 39.06 86.45 39.14C85.73 39.23 84.43 39.31 82.56 39.39C79.06 39.53 76.54 40.07 74.98 41C73.49 41.93 71.78 43.86 69.84 46.8C67.96 49.68 66.39 51.46 65.12 52.14C64.17 52.67 62.7 53.37 60.53 53.54C60.93 53.75 62.92 54.79 66.51 56.67L66.53 56.67C69.01 56.31 70.57 55.97 71.21 55.63Z" id="c2yWUKETdP"></path><path d="M120.84 108.75L120.84 110.45L124.11 112.28L124.11 110.62L124.11 110.6L120.86 108.75L120.84 108.75Z" id="c16DqsrovN"></path><path d="M137.44 106.85C135.57 109.71 134 111.49 132.72 112.18C131.84 112.67 130.45 113 128.56 113.17C128.27 113 126.79 112.15 124.13 110.62L124.11 110.62L124.11 112.28C126.78 113.77 128.27 114.6 128.56 114.77C131.05 114.62 132.83 114.27 133.88 113.71C135.15 113.01 136.73 111.23 138.62 108.37C140.55 105.42 142.26 103.48 143.76 102.57C145.31 101.63 147.82 101.09 151.32 100.93C153.19 100.87 154.49 100.79 155.23 100.68C155.41 100.66 155.58 100.63 155.75 100.61C155.75 100.43 155.75 99.01 155.75 98.83C155.23 98.98 154.67 99.08 154.05 99.16C153.33 99.27 152.04 99.35 150.16 99.41C146.67 99.57 144.14 100.11 142.59 101.05C141.1 101.96 139.38 103.89 137.44 106.85Z" id="e46fmLEbD"></path><path d="M142.59 101.05C144.14 100.11 146.67 99.57 150.16 99.41C152.04 99.35 153.33 99.26 154.05 99.16C154.67 99.08 155.23 98.98 155.75 98.83C155.77 98.83 155.8 98.83 155.83 98.81C155.39 98.56 151.87 96.51 151.43 96.25C150.87 96.42 150.25 96.55 149.56 96.64C148.85 96.73 147.55 96.81 145.67 96.89C142.18 97.03 139.65 97.57 138.1 98.51C136.61 99.43 134.9 101.36 132.96 104.3C131.08 107.18 129.51 108.96 128.24 109.64C127.36 110.12 125.99 110.44 124.13 110.62C124.58 110.88 128.12 112.91 128.56 113.17C130.45 113 131.84 112.67 132.73 112.18C134 111.49 135.57 109.71 137.45 106.85C139.38 103.89 141.1 101.96 142.59 101.05Z" id="d20U4f0i16"></path><path d="M146.52 94.75C145.8 94.84 144.5 94.92 142.63 95C139.13 95.14 136.61 95.68 135.06 96.63C133.57 97.55 131.85 99.47 129.91 102.41C128.04 105.29 126.46 107.08 125.19 107.77C124.29 108.26 122.85 108.59 120.85 108.75C121.07 108.88 122.16 109.49 124.11 110.6C124.12 110.62 124.13 110.62 124.13 110.62C125.99 110.44 127.36 110.12 128.23 109.64C129.51 108.96 131.08 107.18 132.95 104.3C134.89 101.36 136.61 99.43 138.1 98.51C139.65 97.57 142.18 97.03 145.67 96.89C147.55 96.81 148.84 96.73 149.56 96.64C150.24 96.55 150.87 96.42 151.43 96.25C151.22 96.13 150.18 95.51 148.29 94.4C147.54 94.58 146.95 94.7 146.52 94.75Z" id="amxaSSTnd"></path><path d="M148.29 94.4C147.76 94.09 143.52 91.61 142.99 91.3C142.4 91.48 141.75 91.62 141.03 91.71C140.3 91.8 138.99 91.88 137.12 91.96C133.62 92.1 131.11 92.64 129.57 93.59C128.06 94.5 126.35 96.43 124.42 99.37C122.53 102.25 120.95 104.04 119.68 104.73C118.81 105.2 117.42 105.53 115.52 105.69C115.87 105.9 117.65 106.92 120.84 108.76C120.85 108.76 120.85 108.76 120.86 108.76C122.85 108.59 124.29 108.26 125.19 107.77C126.46 107.08 128.04 105.29 129.91 102.42C131.85 99.48 133.57 97.55 135.06 96.64C136.61 95.69 139.14 95.14 142.63 95C144.5 94.92 145.8 94.84 146.52 94.75C147.16 94.67 147.75 94.56 148.29 94.4Z" id="a1ai2zhY1z"></path><path d="M115.52 107.46L120.84 110.45L120.84 108.76L115.52 105.69L115.52 107.46Z" id="h2SqwdSmr"></path><path d="M115.52 107.46L115.52 105.69L111.82 103.59L111.82 105.4L115.52 107.46Z" id="g2neNbr52D"></path><path d="M111.8 103.59L105.83 100.46L105.83 102.36L111.82 105.4L111.82 103.59L111.8 103.59Z" id="m9pxQehh7"></path><path d="M111.82 103.59C112.19 103.8 115.15 105.48 115.52 105.69C117.42 105.52 118.81 105.2 119.68 104.73C120.95 104.03 122.53 102.25 124.42 99.37C126.35 96.43 128.06 94.5 129.57 93.59C131.11 92.64 133.62 92.1 137.12 91.95C138.99 91.88 140.3 91.79 141.03 91.7C141.75 91.61 142.4 91.48 142.99 91.3C142.64 91.09 139.8 89.43 139.45 89.22C138.95 89.35 138.41 89.45 137.83 89.53C137.11 89.63 135.81 89.71 133.94 89.78C130.43 89.93 127.91 90.48 126.37 91.41C124.88 92.33 123.16 94.26 121.22 97.21C119.35 100.08 117.77 101.86 116.5 102.55C115.55 103.06 113.99 103.41 111.82 103.59Z" id="c4efKrshA"></path><path d="M116.5 102.55C117.77 101.86 119.35 100.08 121.22 97.22C123.16 94.26 124.88 92.33 126.37 91.42C127.91 90.48 130.43 89.93 133.94 89.78C135.81 89.71 137.11 89.63 137.83 89.53C138.41 89.45 138.95 89.35 139.45 89.22C138.85 88.87 134.07 86.07 133.48 85.72C132.95 85.87 132.37 85.99 131.74 86.06C131.02 86.15 129.72 86.24 127.85 86.31C124.36 86.45 121.83 86.99 120.28 87.93C118.79 88.86 117.07 90.79 115.13 93.73C113.26 96.61 111.69 98.39 110.41 99.07C109.46 99.59 108 100.3 105.83 100.46C106.22 100.67 108.22 101.72 111.8 103.59L111.82 103.59C114.31 103.24 115.87 102.89 116.5 102.55Z" id="g9wmbpidG"></path><path d="M173.28 121.87L173.28 123.57L176.55 125.4L176.55 123.74L176.55 123.72L173.3 121.87L173.28 121.87Z" id="bmWGoSvL7"></path><path d="M189.89 119.97C188.01 122.83 186.44 124.61 185.17 125.3C184.28 125.79 182.89 126.12 181 126.29C180.71 126.12 179.23 125.27 176.57 123.74L176.55 123.74L176.55 125.4C179.22 126.89 180.71 127.72 181 127.88C183.5 127.74 185.27 127.39 186.32 126.82C187.59 126.13 189.17 124.35 191.06 121.49C192.99 118.53 194.7 116.6 196.21 115.69C197.75 114.75 200.27 114.21 203.76 114.05C205.63 113.99 206.94 113.91 207.67 113.8C207.85 113.78 208.02 113.75 208.19 113.73C208.19 113.55 208.19 112.13 208.19 111.95C207.68 112.09 207.11 112.2 206.5 112.28C205.78 112.38 204.48 112.47 202.6 112.53C199.11 112.68 196.59 113.23 195.03 114.17C193.54 115.08 191.83 117.01 189.89 119.97Z" id="d1McOt67Bs"></path><path d="M195.03 114.17C196.59 113.23 199.11 112.68 202.6 112.53C204.48 112.47 205.78 112.38 206.5 112.28C207.11 112.2 207.68 112.09 208.19 111.95C208.22 111.95 208.24 111.95 208.27 111.93C207.83 111.68 204.32 109.63 203.88 109.37C203.31 109.54 202.69 109.67 202.01 109.76C201.29 109.85 199.99 109.93 198.12 110.01C194.62 110.15 192.1 110.69 190.54 111.62C189.05 112.55 187.34 114.48 185.4 117.42C183.52 120.3 181.95 122.08 180.68 122.76C179.81 123.23 178.44 123.56 176.57 123.74C177.02 124 180.56 126.03 181.01 126.29C182.89 126.12 184.28 125.79 185.17 125.3C186.44 124.61 188.01 122.83 189.89 119.97C191.83 117.01 193.54 115.08 195.03 114.17Z" id="b616EEYl6"></path><path d="M198.96 107.87C198.24 107.96 196.95 108.04 195.07 108.12C191.58 108.26 189.05 108.8 187.5 109.75C186.01 110.67 184.29 112.59 182.35 115.53C180.48 118.41 178.91 120.2 177.63 120.89C176.73 121.38 175.29 121.7 173.3 121.87C173.51 122 174.6 122.61 176.55 123.72C176.57 123.73 176.57 123.74 176.57 123.74C178.44 123.56 179.8 123.23 180.68 122.76C181.95 122.08 183.52 120.3 185.4 117.42C187.34 114.48 189.05 112.55 190.54 111.62C192.1 110.69 194.62 110.15 198.11 110C199.99 109.93 201.29 109.84 202.01 109.75C202.69 109.66 203.31 109.54 203.87 109.37C203.67 109.25 202.62 108.63 200.74 107.52C199.98 107.7 199.39 107.82 198.96 107.87Z" id="i2GzgP25Ck"></path><path d="M200.74 107.52C200.21 107.21 195.97 104.73 195.44 104.42C194.85 104.6 194.19 104.73 193.47 104.82C192.74 104.91 191.44 105 189.56 105.07C186.07 105.21 183.55 105.76 182.01 106.71C180.5 107.62 178.79 109.55 176.86 112.49C174.97 115.37 173.39 117.15 172.12 117.85C171.25 118.32 169.86 118.64 167.96 118.81C168.32 119.01 170.09 120.04 173.28 121.87C173.29 121.87 173.3 121.87 173.3 121.87C175.29 121.71 176.73 121.38 177.63 120.89C178.91 120.2 180.48 118.41 182.36 115.53C184.29 112.59 186.01 110.67 187.5 109.75C189.05 108.8 191.58 108.26 195.07 108.12C196.95 108.04 198.24 107.96 198.96 107.87C199.61 107.79 200.2 107.68 200.74 107.52Z" id="a4Vcs8cc0G"></path><path d="M167.96 120.58L173.28 123.57L173.28 121.87L167.96 118.81L167.96 120.58Z" id="c2UB0CXpb"></path><path d="M167.96 120.58L167.96 118.81L164.26 116.71L164.26 118.52L167.96 120.58Z" id="a5ladYZhA"></path><path d="M164.24 116.71L158.27 113.58L158.27 115.48L164.26 118.52L164.26 116.71L164.24 116.71Z" id="c24evLfmp8"></path><path d="M164.26 116.71C164.63 116.92 167.59 118.6 167.96 118.81C169.86 118.64 171.25 118.32 172.12 117.85C173.39 117.15 174.98 115.37 176.86 112.49C178.79 109.55 180.5 107.62 182.01 106.71C183.55 105.76 186.07 105.21 189.56 105.07C191.44 104.99 192.74 104.91 193.47 104.82C194.19 104.73 194.85 104.6 195.44 104.42C195.08 104.21 192.25 102.55 191.89 102.34C191.39 102.47 190.85 102.57 190.27 102.65C189.55 102.75 188.25 102.83 186.38 102.9C182.87 103.05 180.35 103.59 178.81 104.53C177.32 105.44 175.6 107.38 173.66 110.33C171.79 113.2 170.21 114.98 168.94 115.67C167.99 116.18 166.43 116.53 164.26 116.71Z" id="dt5OuaCQi"></path><path d="M168.94 115.67C170.21 114.98 171.79 113.2 173.66 110.33C175.6 107.38 177.32 105.45 178.81 104.54C180.35 103.6 182.88 103.05 186.38 102.9C188.26 102.83 189.55 102.75 190.27 102.65C190.85 102.57 191.39 102.47 191.89 102.34C191.29 101.99 186.52 99.18 185.92 98.83C185.39 98.99 184.81 99.1 184.18 99.18C183.47 99.27 182.17 99.35 180.29 99.43C176.8 99.57 174.27 100.11 172.72 101.05C171.23 101.97 169.52 103.91 167.58 106.85C165.7 109.72 164.13 111.5 162.85 112.18C161.9 112.71 160.44 113.42 158.27 113.58C158.67 113.79 160.66 114.83 164.24 116.71L164.26 116.71C166.75 116.36 168.31 116.01 168.94 115.67Z" id="g7TSfExV"></path><path d="M167.76 48.33L167.76 50.03L171.04 51.86L171.04 50.2L171.04 50.18L167.78 48.33L167.76 48.33Z" id="a4PO2Kh7V"></path><path d="M184.37 46.43C182.49 49.29 180.92 51.07 179.65 51.76C178.76 52.25 177.38 52.58 175.49 52.75C175.19 52.58 173.72 51.73 171.06 50.2L171.04 50.2L171.04 51.86C173.71 53.35 175.19 54.18 175.49 54.35C177.98 54.2 179.75 53.85 180.81 53.29C182.08 52.59 183.66 50.81 185.55 47.95C187.47 45 189.19 43.06 190.69 42.15C192.23 41.21 194.75 40.67 198.24 40.51C200.12 40.45 201.42 40.37 202.15 40.26C202.33 40.24 202.51 40.21 202.67 40.19C202.67 40.01 202.67 38.59 202.67 38.41C202.16 38.55 201.59 38.66 200.98 38.74C200.26 38.84 198.96 38.93 197.09 38.99C193.59 39.15 191.07 39.69 189.51 40.63C188.02 41.54 186.31 43.47 184.37 46.43Z" id="a1kUNbBBeS"></path><path d="M189.52 40.63C191.07 39.69 193.59 39.15 197.09 38.99C198.96 38.93 200.26 38.84 200.98 38.74C201.6 38.66 202.16 38.55 202.68 38.41C202.7 38.41 202.73 38.41 202.75 38.39C202.31 38.14 198.8 36.09 198.36 35.83C197.79 36 197.17 36.13 196.49 36.22C195.77 36.31 194.47 36.39 192.6 36.47C189.1 36.61 186.58 37.15 185.03 38.09C183.54 39.01 181.82 40.94 179.88 43.88C178.01 46.76 176.43 48.54 175.16 49.22C174.29 49.7 172.92 50.02 171.06 50.2C171.5 50.46 175.05 52.49 175.49 52.75C177.38 52.58 178.77 52.25 179.65 51.76C180.92 51.07 182.5 49.29 184.37 46.43C186.31 43.47 188.03 41.54 189.52 40.63Z" id="cblCnzhcp"></path><path d="M193.45 34.33C192.73 34.42 191.43 34.5 189.55 34.58C186.06 34.72 183.54 35.26 181.98 36.21C180.49 37.13 178.78 39.05 176.84 41.99C174.96 44.87 173.39 46.66 172.12 47.35C171.22 47.84 169.77 48.17 167.78 48.33C168 48.46 169.08 49.07 171.04 50.18C171.05 50.19 171.06 50.2 171.06 50.2C172.92 50.02 174.29 49.7 175.16 49.22C176.43 48.54 178.01 46.76 179.88 43.88C181.82 40.94 183.53 39.01 185.03 38.08C186.58 37.15 189.1 36.61 192.6 36.47C194.47 36.39 195.77 36.3 196.49 36.22C197.17 36.13 197.79 36 198.36 35.83C198.15 35.71 197.1 35.09 195.22 33.98C194.47 34.16 193.87 34.28 193.45 34.33Z" id="beVCOnwXo"></path><path d="M195.22 33.98C194.69 33.67 190.45 31.19 189.92 30.88C189.33 31.06 188.67 31.2 187.96 31.28C187.22 31.37 185.92 31.46 184.04 31.53C180.55 31.68 178.03 32.22 176.49 33.17C174.99 34.08 173.27 36.01 171.35 38.95C169.46 41.83 167.88 43.61 166.61 44.31C165.73 44.78 164.35 45.1 162.45 45.27C162.8 45.48 164.57 46.5 167.76 48.33C167.77 48.33 167.78 48.33 167.78 48.33C169.77 48.17 171.22 47.84 172.12 47.35C173.39 46.66 174.96 44.87 176.84 42C178.78 39.05 180.49 37.13 181.98 36.22C183.54 35.26 186.06 34.72 189.56 34.58C191.43 34.5 192.73 34.42 193.45 34.33C194.09 34.25 194.68 34.14 195.22 33.98Z" id="bAh4mffrh"></path><path d="M162.45 47.04L167.76 50.03L167.76 48.33L162.45 45.27L162.45 47.04Z" id="alVmJcj2j"></path><path d="M162.45 47.04L162.45 45.27L158.75 43.17L158.75 44.98L162.45 47.04Z" id="cAqHfbYfX"></path><path d="M158.73 43.17L152.75 40.04L152.75 41.94L158.75 44.98L158.75 43.17L158.73 43.17Z" id="k1njQRNbJ3"></path><path d="M158.75 43.17C159.12 43.38 162.08 45.06 162.45 45.27C164.35 45.1 165.73 44.78 166.61 44.31C167.88 43.61 169.46 41.83 171.35 38.95C173.27 36.01 174.99 34.08 176.49 33.17C178.03 32.22 180.55 31.67 184.04 31.53C185.92 31.46 187.22 31.37 187.96 31.28C188.67 31.19 189.33 31.06 189.92 30.88C189.57 30.67 186.73 29.01 186.37 28.8C185.87 28.93 185.33 29.03 184.76 29.11C184.04 29.21 182.74 29.29 180.86 29.36C177.36 29.51 174.83 30.06 173.29 30.99C171.8 31.91 170.09 33.84 168.15 36.79C166.27 39.66 164.7 41.44 163.43 42.13C162.48 42.64 160.92 42.99 158.75 43.17Z" id="a3aTANmIqV"></path><path d="M163.43 42.13C164.7 41.44 166.27 39.66 168.15 36.79C170.09 33.84 171.8 31.91 173.29 31C174.83 30.06 177.36 29.51 180.86 29.36C182.74 29.29 184.04 29.21 184.76 29.11C185.33 29.03 185.87 28.93 186.38 28.8C185.78 28.45 181 25.65 180.4 25.3C179.88 25.45 179.3 25.56 178.67 25.64C177.95 25.73 176.65 25.82 174.78 25.89C171.28 26.03 168.76 26.57 167.2 27.51C165.71 28.44 164 30.37 162.06 33.31C160.18 36.19 158.61 37.96 157.34 38.64C156.39 39.17 154.92 39.88 152.75 40.04C153.15 40.25 155.14 41.29 158.73 43.17L158.75 43.17C161.23 42.82 162.79 42.47 163.43 42.13Z" id="e528igWcy"></path><path d="M204.93 65.13L204.93 66.82L208.21 68.66L208.21 67L208.21 66.98L204.95 65.13L204.93 65.13Z" id="c1eU3kmjzx"></path><path d="M221.54 63.22C219.66 66.09 218.09 67.87 216.82 68.56C215.93 69.05 214.54 69.37 212.66 69.54C212.36 69.37 210.88 68.53 208.22 67L208.2 67L208.2 68.66C210.88 70.15 212.36 70.98 212.66 71.14C215.15 71 216.92 70.65 217.97 70.08C219.24 69.39 220.83 67.61 222.71 64.75C224.64 61.79 226.35 59.86 227.86 58.95C229.4 58.01 231.92 57.46 235.41 57.31C237.28 57.25 238.59 57.16 239.32 57.06C239.5 57.03 239.67 57.01 239.84 56.98C239.84 56.81 239.84 55.39 239.84 55.21C239.33 55.35 238.76 55.46 238.15 55.54C237.43 55.64 236.13 55.72 234.25 55.79C230.76 55.94 228.24 56.49 226.68 57.42C225.19 58.34 223.48 60.27 221.54 63.22Z" id="a1sGZNKmFk"></path><path d="M226.68 57.42C228.24 56.49 230.76 55.94 234.26 55.79C236.13 55.72 237.43 55.64 238.15 55.54C238.76 55.46 239.33 55.35 239.84 55.21C239.87 55.21 239.89 55.2 239.92 55.19C239.48 54.93 235.97 52.88 235.53 52.63C234.96 52.79 234.34 52.92 233.66 53.01C232.94 53.1 231.64 53.19 229.77 53.26C226.27 53.4 223.75 53.94 222.19 54.88C220.7 55.81 218.99 57.74 217.05 60.68C215.17 63.56 213.6 65.34 212.33 66.02C211.46 66.49 210.09 66.82 208.23 67C208.67 67.25 212.21 69.29 212.66 69.54C214.55 69.38 215.93 69.05 216.82 68.56C218.09 67.87 219.66 66.09 221.54 63.22C223.48 60.27 225.19 58.34 226.68 57.42Z" id="b82Jpgoz7r"></path><path d="M230.61 51.12C229.89 51.21 228.6 51.3 226.72 51.37C223.23 51.51 220.7 52.06 219.15 53.01C217.66 53.92 215.94 55.85 214 58.79C212.13 61.67 210.56 63.45 209.28 64.15C208.38 64.64 206.94 64.96 204.95 65.13C205.17 65.25 206.25 65.87 208.2 66.98C208.22 66.99 208.22 67 208.22 67C210.09 66.82 211.45 66.49 212.33 66.02C213.6 65.33 215.17 63.56 217.05 60.68C218.99 57.74 220.7 55.8 222.19 54.88C223.75 53.94 226.27 53.4 229.76 53.26C231.64 53.18 232.94 53.1 233.66 53.01C234.34 52.92 234.96 52.79 235.53 52.63C235.32 52.5 234.27 51.89 232.39 50.78C231.63 50.96 231.04 51.07 230.61 51.12Z" id="a1hbIKEjyt"></path><path d="M232.39 50.78C231.86 50.47 227.62 47.99 227.09 47.68C226.5 47.86 225.84 47.99 225.12 48.08C224.39 48.17 223.09 48.25 221.21 48.33C217.72 48.47 215.2 49.02 213.66 49.97C212.16 50.88 210.44 52.81 208.51 55.75C206.62 58.63 205.05 60.41 203.77 61.1C202.9 61.58 201.51 61.9 199.61 62.07C199.97 62.27 201.74 63.29 204.93 65.13C204.94 65.13 204.95 65.13 204.95 65.13C206.94 64.96 208.39 64.64 209.28 64.15C210.56 63.45 212.13 61.67 214.01 58.79C215.95 55.85 217.66 53.92 219.15 53.01C220.7 52.06 223.23 51.52 226.72 51.37C228.6 51.3 229.89 51.21 230.61 51.12C231.26 51.05 231.85 50.93 232.39 50.78Z" id="e5o1E53AcB"></path><path d="M199.61 63.84L204.93 66.83L204.93 65.13L199.61 62.07L199.61 63.84Z" id="b7pyNXo5Xy"></path><path d="M199.61 63.84L199.61 62.07L195.91 59.97L195.91 61.78L199.61 63.84Z" id="aFx5RQo4K"></path><path d="M195.89 59.97L189.92 56.84L189.92 58.73L195.91 61.78L195.91 59.97L195.89 59.97Z" id="a34FpUNt3V"></path><path d="M195.91 59.97C196.28 60.18 199.24 61.86 199.61 62.07C201.51 61.9 202.9 61.58 203.77 61.1C205.05 60.41 206.63 58.62 208.51 55.75C210.44 52.81 212.16 50.88 213.66 49.97C215.2 49.02 217.72 48.47 221.21 48.33C223.09 48.25 224.39 48.17 225.12 48.08C225.84 47.99 226.5 47.85 227.09 47.68C226.73 47.47 223.9 45.8 223.54 45.59C223.04 45.72 222.5 45.83 221.92 45.9C221.2 46.01 219.91 46.09 218.03 46.15C214.52 46.31 212 46.85 210.46 47.79C208.97 48.7 207.25 50.63 205.31 53.59C203.44 56.45 201.87 58.23 200.59 58.93C199.64 59.44 198.08 59.79 195.91 59.97Z" id="fWOywFAWg"></path><path d="M200.59 58.93C201.87 58.23 203.44 56.46 205.32 53.59C207.25 50.64 208.97 48.7 210.46 47.79C212 46.85 214.53 46.31 218.03 46.16C219.91 46.09 221.21 46.01 221.92 45.91C222.5 45.83 223.04 45.73 223.54 45.6C222.95 45.25 218.17 42.44 217.57 42.09C217.04 42.25 216.47 42.36 215.84 42.44C215.12 42.53 213.82 42.61 211.94 42.69C208.45 42.83 205.93 43.37 204.37 44.31C202.88 45.23 201.17 47.16 199.23 50.1C197.35 52.98 195.78 54.76 194.51 55.44C193.55 55.97 192.09 56.67 189.92 56.84C190.32 57.05 192.31 58.09 195.89 59.97L195.91 59.97C198.4 59.62 199.96 59.27 200.59 58.93Z" id="c2RMsBeRK"></path></defs><g><g><g><g><use xlink:href="#a11Eg0wkhM" opacity="1" fill="#caa28a" fill-opacity="1"></use><g><use xlink:href="#a11Eg0wkhM" opacity="1" fill-opacity="0" stroke="#000000" stroke-width="1" stroke-opacity="0"></use></g></g><g><use xlink:href="#a3CH1rqkwx" opacity="1" fill="#b66f46" fill-opacity="1"></use><g><use xlink:href="#a3CH1rqkwx" opacity="1" fill-opacity="0" stroke="#000000" stroke-width="1" stroke-opacity="0"></use></g></g><g><use xlink:href="#bss8Su6yO" opacity="1" fill="#c68660" fill-opacity="1"></use><g><use xlink:href="#bss8Su6yO" opacity="1" fill-opacity="0" stroke="#000000" stroke-width="1" stroke-opacity="0"></use></g></g><g><use xlink:href="#e1i9HVvpxH" opacity="1" fill="#f9e2d6" fill-opacity="1"></use><g><use xlink:href="#e1i9HVvpxH" opacity="1" fill-opacity="0" stroke="#000000" stroke-width="1" stroke-opacity="0"></use></g></g><g><use xlink:href="#b9IEETCNI" opacity="1" fill="#bf9073" fill-opacity="1"></use><g><use xlink:href="#b9IEETCNI" opacity="1" fill-opacity="0" stroke="#000000" stroke-width="1" stroke-opacity="0"></use></g></g><g><use xlink:href="#b1lgo9Ow1k" opacity="1" fill="#af8266" fill-opacity="1"></use><g><use xlink:href="#b1lgo9Ow1k" opacity="1" fill-opacity="0" stroke="#000000" stroke-width="1" stroke-opacity="0"></use></g></g><g><use xlink:href="#ahl7en8oE" opacity="1" fill="#d2b6a5" fill-opacity="1"></use><g><use xlink:href="#ahl7en8oE" opacity="1" fill-opacity="0" stroke="#000000" stroke-width="1" stroke-opacity="0"></use></g></g><g><use xlink:href="#iXMGMC7Ep" opacity="1" fill="#b17f5f" fill-opacity="1"></use><g><use xlink:href="#iXMGMC7Ep" opacity="1" fill-opacity="0" stroke="#000000" stroke-width="1" stroke-opacity="0"></use></g></g><g><use xlink:href="#d1mLv5RH4" opacity="1" fill="#eeccb6" fill-opacity="1"></use><g><use xlink:href="#d1mLv5RH4" opacity="1" fill-opacity="0" stroke="#000000" stroke-width="1" stroke-opacity="0"></use></g></g><g><use xlink:href="#c2yWUKETdP" opacity="1" fill="#c48863" fill-opacity="1"></use><g><use xlink:href="#c2yWUKETdP" opacity="1" fill-opacity="0" stroke="#000000" stroke-width="1" stroke-opacity="0"></use></g></g></g><g><use xlink:href="#c16DqsrovN" opacity="1" fill="#caa28a" fill-opacity="1"></use><g><use xlink:href="#c16DqsrovN" opacity="1" fill-opacity="0" stroke="#000000" stroke-width="1" stroke-opacity="0"></use></g></g><g><use xlink:href="#e46fmLEbD" opacity="1" fill="#b66f46" fill-opacity="1"></use><g><use xlink:href="#e46fmLEbD" opacity="1" fill-opacity="0" stroke="#000000" stroke-width="1" stroke-opacity="0"></use></g></g><g><use xlink:href="#d20U4f0i16" opacity="1" fill="#c68660" fill-opacity="1"></use><g><use xlink:href="#d20U4f0i16" opacity="1" fill-opacity="0" stroke="#000000" stroke-width="1" stroke-opacity="0"></use></g></g><g><use xlink:href="#amxaSSTnd" opacity="1" fill="#f9e2d6" fill-opacity="1"></use><g><use xlink:href="#amxaSSTnd" opacity="1" fill-opacity="0" stroke="#000000" stroke-width="1" stroke-opacity="0"></use></g></g><g><use xlink:href="#a1ai2zhY1z" opacity="1" fill="#bf9073" fill-opacity="1"></use><g><use xlink:href="#a1ai2zhY1z" opacity="1" fill-opacity="0" stroke="#000000" stroke-width="1" stroke-opacity="0"></use></g></g><g><use xlink:href="#h2SqwdSmr" opacity="1" fill="#af8266" fill-opacity="1"></use><g><use xlink:href="#h2SqwdSmr" opacity="1" fill-opacity="0" stroke="#000000" stroke-width="1" stroke-opacity="0"></use></g></g><g><use xlink:href="#g2neNbr52D" opacity="1" fill="#d2b6a5" fill-opacity="1"></use><g><use xlink:href="#g2neNbr52D" opacity="1" fill-opacity="0" stroke="#000000" stroke-width="1" stroke-opacity="0"></use></g></g><g><use xlink:href="#m9pxQehh7" opacity="1" fill="#b17f5f" fill-opacity="1"></use><g><use xlink:href="#m9pxQehh7" opacity="1" fill-opacity="0" stroke="#000000" stroke-width="1" stroke-opacity="0"></use></g></g><g><use xlink:href="#c4efKrshA" opacity="1" fill="#eeccb6" fill-opacity="1"></use><g><use xlink:href="#c4efKrshA" opacity="1" fill-opacity="0" stroke="#000000" stroke-width="1" stroke-opacity="0"></use></g></g><g><use xlink:href="#g9wmbpidG" opacity="1" fill="#c48863" fill-opacity="1"></use><g><use xlink:href="#g9wmbpidG" opacity="1" fill-opacity="0" stroke="#000000" stroke-width="1" stroke-opacity="0"></use></g></g><g><use xlink:href="#bmWGoSvL7" opacity="1" fill="#caa28a" fill-opacity="1"></use><g><use xlink:href="#bmWGoSvL7" opacity="1" fill-opacity="0" stroke="#000000" stroke-width="1" stroke-opacity="0"></use></g></g><g><use xlink:href="#d1McOt67Bs" opacity="1" fill="#b66f46" fill-opacity="1"></use><g><use xlink:href="#d1McOt67Bs" opacity="1" fill-opacity="0" stroke="#000000" stroke-width="1" stroke-opacity="0"></use></g></g><g><use xlink:href="#b616EEYl6" opacity="1" fill="#c68660" fill-opacity="1"></use><g><use xlink:href="#b616EEYl6" opacity="1" fill-opacity="0" stroke="#000000" stroke-width="1" stroke-opacity="0"></use></g></g><g><use xlink:href="#i2GzgP25Ck" opacity="1" fill="#f9e2d6" fill-opacity="1"></use><g><use xlink:href="#i2GzgP25Ck" opacity="1" fill-opacity="0" stroke="#000000" stroke-width="1" stroke-opacity="0"></use></g></g><g><use xlink:href="#a4Vcs8cc0G" opacity="1" fill="#bf9073" fill-opacity="1"></use><g><use xlink:href="#a4Vcs8cc0G" opacity="1" fill-opacity="0" stroke="#000000" stroke-width="1" stroke-opacity="0"></use></g></g><g><use xlink:href="#c2UB0CXpb" opacity="1" fill="#af8266" fill-opacity="1"></use><g><use xlink:href="#c2UB0CXpb" opacity="1" fill-opacity="0" stroke="#000000" stroke-width="1" stroke-opacity="0"></use></g></g><g><use xlink:href="#a5ladYZhA" opacity="1" fill="#d2b6a5" fill-opacity="1"></use><g><use xlink:href="#a5ladYZhA" opacity="1" fill-opacity="0" stroke="#000000" stroke-width="1" stroke-opacity="0"></use></g></g><g><use xlink:href="#c24evLfmp8" opacity="1" fill="#b17f5f" fill-opacity="1"></use><g><use xlink:href="#c24evLfmp8" opacity="1" fill-opacity="0" stroke="#000000" stroke-width="1" stroke-opacity="0"></use></g></g><g><use xlink:href="#dt5OuaCQi" opacity="1" fill="#eeccb6" fill-opacity="1"></use><g><use xlink:href="#dt5OuaCQi" opacity="1" fill-opacity="0" stroke="#000000" stroke-width="1" stroke-opacity="0"></use></g></g><g><use xlink:href="#g7TSfExV" opacity="1" fill="#c48863" fill-opacity="1"></use><g><use xlink:href="#g7TSfExV" opacity="1" fill-opacity="0" stroke="#000000" stroke-width="1" stroke-opacity="0"></use></g></g><g><use xlink:href="#a4PO2Kh7V" opacity="1" fill="#caa28a" fill-opacity="1"></use><g><use xlink:href="#a4PO2Kh7V" opacity="1" fill-opacity="0" stroke="#000000" stroke-width="1" stroke-opacity="0"></use></g></g><g><use xlink:href="#a1kUNbBBeS" opacity="1" fill="#b66f46" fill-opacity="1"></use><g><use xlink:href="#a1kUNbBBeS" opacity="1" fill-opacity="0" stroke="#000000" stroke-width="1" stroke-opacity="0"></use></g></g><g><use xlink:href="#cblCnzhcp" opacity="1" fill="#c68660" fill-opacity="1"></use><g><use xlink:href="#cblCnzhcp" opacity="1" fill-opacity="0" stroke="#000000" stroke-width="1" stroke-opacity="0"></use></g></g><g><use xlink:href="#beVCOnwXo" opacity="1" fill="#f9e2d6" fill-opacity="1"></use><g><use xlink:href="#beVCOnwXo" opacity="1" fill-opacity="0" stroke="#000000" stroke-width="1" stroke-opacity="0"></use></g></g><g><use xlink:href="#bAh4mffrh" opacity="1" fill="#bf9073" fill-opacity="1"></use><g><use xlink:href="#bAh4mffrh" opacity="1" fill-opacity="0" stroke="#000000" stroke-width="1" stroke-opacity="0"></use></g></g><g><use xlink:href="#alVmJcj2j" opacity="1" fill="#af8266" fill-opacity="1"></use><g><use xlink:href="#alVmJcj2j" opacity="1" fill-opacity="0" stroke="#000000" stroke-width="1" stroke-opacity="0"></use></g></g><g><use xlink:href="#cAqHfbYfX" opacity="1" fill="#d2b6a5" fill-opacity="1"></use><g><use xlink:href="#cAqHfbYfX" opacity="1" fill-opacity="0" stroke="#000000" stroke-width="1" stroke-opacity="0"></use></g></g><g><use xlink:href="#k1njQRNbJ3" opacity="1" fill="#b17f5f" fill-opacity="1"></use><g><use xlink:href="#k1njQRNbJ3" opacity="1" fill-opacity="0" stroke="#000000" stroke-width="1" stroke-opacity="0"></use></g></g><g><use xlink:href="#a3aTANmIqV" opacity="1" fill="#eeccb6" fill-opacity="1"></use><g><use xlink:href="#a3aTANmIqV" opacity="1" fill-opacity="0" stroke="#000000" stroke-width="1" stroke-opacity="0"></use></g></g><g><use xlink:href="#e528igWcy" opacity="1" fill="#c48863" fill-opacity="1"></use><g><use xlink:href="#e528igWcy" opacity="1" fill-opacity="0" stroke="#000000" stroke-width="1" stroke-opacity="0"></use></g></g><g><use xlink:href="#c1eU3kmjzx" opacity="1" fill="#caa28a" fill-opacity="1"></use><g><use xlink:href="#c1eU3kmjzx" opacity="1" fill-opacity="0" stroke="#000000" stroke-width="1" stroke-opacity="0"></use></g></g><g><use xlink:href="#a1sGZNKmFk" opacity="1" fill="#b66f46" fill-opacity="1"></use><g><use xlink:href="#a1sGZNKmFk" opacity="1" fill-opacity="0" stroke="#000000" stroke-width="1" stroke-opacity="0"></use></g></g><g><use xlink:href="#b82Jpgoz7r" opacity="1" fill="#c68660" fill-opacity="1"></use><g><use xlink:href="#b82Jpgoz7r" opacity="1" fill-opacity="0" stroke="#000000" stroke-width="1" stroke-opacity="0"></use></g></g><g><use xlink:href="#a1hbIKEjyt" opacity="1" fill="#f9e2d6" fill-opacity="1"></use><g><use xlink:href="#a1hbIKEjyt" opacity="1" fill-opacity="0" stroke="#000000" stroke-width="1" stroke-opacity="0"></use></g></g><g><use xlink:href="#e5o1E53AcB" opacity="1" fill="#bf9073" fill-opacity="1"></use><g><use xlink:href="#e5o1E53AcB" opacity="1" fill-opacity="0" stroke="#000000" stroke-width="1" stroke-opacity="0"></use></g></g><g><use xlink:href="#b7pyNXo5Xy" opacity="1" fill="#af8266" fill-opacity="1"></use><g><use xlink:href="#b7pyNXo5Xy" opacity="1" fill-opacity="0" stroke="#000000" stroke-width="1" stroke-opacity="0"></use></g></g><g><use xlink:href="#aFx5RQo4K" opacity="1" fill="#d2b6a5" fill-opacity="1"></use><g><use xlink:href="#aFx5RQo4K" opacity="1" fill-opacity="0" stroke="#000000" stroke-width="1" stroke-opacity="0"></use></g></g><g><use xlink:href="#a34FpUNt3V" opacity="1" fill="#b17f5f" fill-opacity="1"></use><g><use xlink:href="#a34FpUNt3V" opacity="1" fill-opacity="0" stroke="#000000" stroke-width="1" stroke-opacity="0"></use></g></g><g><use xlink:href="#fWOywFAWg" opacity="1" fill="#eeccb6" fill-opacity="1"></use><g><use xlink:href="#fWOywFAWg" opacity="1" fill-opacity="0" stroke="#000000" stroke-width="1" stroke-opacity="0"></use></g></g><g><use xlink:href="#c2RMsBeRK" opacity="1" fill="#c48863" fill-opacity="1"></use><g><use xlink:href="#c2RMsBeRK" opacity="1" fill-opacity="0" stroke="#000000" stroke-width="1" stroke-opacity="0"></use></g></g></g></g></svg>